<svg width="83" height="83" viewBox="0 0 83 83" fill="none" xmlns="http://www.w3.org/2000/svg">
<path d="M53.6784 55.8354C54.0748 54.9094 54.4726 53.9948 54.871 53.0917C54.333 48.717 52.4091 44.4841 49.443 40.9422C47.3417 38.4331 45.9844 35.3014 45.9844 31.3975C45.9844 22.4322 52.3472 17.8609 59.9282 15.5961C67.3742 13.3718 66.813 2.65813 59.1929 1.13414C32.604 -4.18337 3.28623 9.41922 0.526155 37.2853C-0.863609 51.3169 5.26413 62.9748 13.6627 72.144C22.5416 81.8379 37.3062 82.1418 46.6805 74.1424C48.4747 68.7088 50.8537 62.4343 53.6784 55.8354Z" fill="#CAF0F8"/>
<path d="M26.1078 72.1452C17.7094 62.9761 11.5815 51.3182 12.9713 37.2865C15.1215 15.5778 33.3895 2.52619 53.9285 0.332198C28.8687 -2.33385 3.10499 11.2499 0.526151 37.2865C-0.863613 51.3182 5.26428 62.9761 13.6627 72.1452C19.953 79.0128 29.1971 81.1661 37.3861 78.9943C33.2173 77.8806 29.2855 75.6145 26.1078 72.1452Z" fill="#00B4D8" fill-opacity="0.24"/>
<path d="M34.2825 20.407C37.3174 20.407 39.7778 17.9467 39.7778 14.9117C39.7778 11.8767 37.3174 9.41632 34.2825 9.41632C31.2475 9.41632 28.7871 11.8767 28.7871 14.9117C28.7871 17.9467 31.2475 20.407 34.2825 20.407Z" fill="#F4DD45"/>
<path d="M31.8008 70.4713C35.374 70.4713 38.2706 67.5746 38.2706 64.0015C38.2706 60.4283 35.374 57.5317 31.8008 57.5317C28.2277 57.5317 25.3311 60.4283 25.3311 64.0015C25.3311 67.5746 28.2277 70.4713 31.8008 70.4713Z" fill="#EF6C00" fill-opacity="0.53"/>
<path d="M20.7412 35.8462C24.571 35.8462 27.6757 32.7414 27.6757 28.9116C27.6757 25.0818 24.571 21.9771 20.7412 21.9771C16.9113 21.9771 13.8066 25.0818 13.8066 28.9116C13.8066 32.7414 16.9113 35.8462 20.7412 35.8462Z" fill="#F87C68"/>
<path d="M18.3965 55.7277C22.2263 55.7277 25.331 52.623 25.331 48.7931C25.331 44.9633 22.2263 41.8586 18.3965 41.8586C14.5666 41.8586 11.4619 44.9633 11.4619 48.7931C11.4619 52.623 14.5666 55.7277 18.3965 55.7277Z" fill="#7FB3FA"/>
<path d="M34.9677 14.9116C34.9677 13.0226 35.9211 11.3566 37.3727 10.3675C36.4922 9.76757 35.4284 9.41644 34.2825 9.41644C31.2474 9.41644 28.7871 11.8768 28.7871 14.9118C28.7871 17.9468 31.2474 20.4071 34.2825 20.4071C35.4284 20.4071 36.4922 20.056 37.3727 19.4559C35.9212 18.4667 34.9677 16.8007 34.9677 14.9116Z" fill="#FCC101"/>
<path d="M31.5116 64.0015C31.5116 61.5476 32.8779 59.413 34.8911 58.3163C33.9729 57.816 32.92 57.5317 31.8008 57.5317C28.2278 57.5317 25.3311 60.4282 25.3311 64.0015C25.3311 67.5747 28.2276 70.4713 31.8008 70.4713C32.92 70.4713 33.9729 70.1869 34.8911 69.6867C32.8779 68.59 31.5116 66.4553 31.5116 64.0015Z" fill="#EF6C00" fill-opacity="0.19"/>
<path d="M19.9872 28.9116C19.9872 26.1925 21.553 23.8403 23.8315 22.7038C22.9008 22.2395 21.852 21.9771 20.7412 21.9771C16.9114 21.9771 13.8066 25.0818 13.8066 28.9116C13.8066 32.7414 16.9114 35.8462 20.7412 35.8462C21.852 35.8462 22.9008 35.5835 23.8315 35.1194C21.553 33.9829 19.9872 31.6307 19.9872 28.9116Z" fill="#EC625E"/>
<path d="M17.6425 48.7931C17.6425 46.0739 19.2083 43.7219 21.4868 42.5853C20.5561 42.1212 19.5072 41.8586 18.3965 41.8586C14.5666 41.8586 11.4619 44.9633 11.4619 48.7931C11.4619 52.623 14.5666 55.7277 18.3965 55.7277C19.5072 55.7277 20.5561 55.4651 21.4868 55.0009C19.2085 53.8644 17.6425 51.5122 17.6425 48.7931Z" fill="#64A6F4"/>
<path d="M68.1566 45.5638L60.6414 42.4464L59.5669 42.7145C57.5786 46.7003 55.5266 51.1293 53.5121 55.8353C50.0554 63.9102 47.2654 71.5011 45.3988 77.657C44.8063 79.6114 45.7325 81.7054 47.5732 82.59C49.542 83.5363 51.9056 82.793 52.9804 80.8913C56.1448 75.2924 59.7092 68.0363 63.1634 59.9669C65.178 55.2607 66.9662 50.7187 68.4776 46.5288L68.1566 45.5638Z" fill="#407BFF"/>
<path d="M50.1576 78.2821C52.0241 72.126 54.8142 64.5352 58.2708 56.4604C60.1972 51.9603 62.1575 47.7146 64.0639 43.8666L60.6404 42.4465L59.5659 42.7147C57.5776 46.7004 55.5257 51.1294 53.5111 55.8355C50.0545 63.9103 47.2644 71.5012 45.3979 77.6572C44.8054 79.6116 45.7315 81.7055 47.5722 82.5902C48.801 83.1807 50.1837 83.113 51.3106 82.5166C50.1744 81.4635 49.6881 79.8303 50.1576 78.2821Z" fill="#00B4D8" fill-opacity="0.62"/>
<path d="M68.816 25.9724L74.2056 28.2796C74.4509 28.3846 74.6557 28.5441 74.8147 28.737C76.738 27.6404 80.1568 25.2557 81.7856 21.4507C83.5801 17.2584 82.2098 9.65058 81.4774 6.34566C81.2974 5.53349 80.3786 5.14021 79.6668 5.57061C76.7699 7.32188 70.3194 11.582 68.5248 15.7741C66.8961 19.5791 67.5306 23.6988 68.0646 25.8474C68.3141 25.8294 68.5709 25.8674 68.816 25.9724Z" fill="#00B4D8"/>
<path d="M72.7557 18.3905C74.2311 14.9439 78.852 11.4529 82.0594 9.34647C81.8634 8.1715 81.6523 7.13497 81.4774 6.34566C81.2974 5.53349 80.3786 5.14021 79.6668 5.57061C76.7699 7.32188 70.3194 11.582 68.5248 15.7741C66.8961 19.579 67.5306 23.6988 68.0646 25.8474C68.3139 25.8293 68.5707 25.8674 68.816 25.9722L72.0541 27.3583C71.6213 25.0732 71.3739 21.619 72.7557 18.3905Z" fill="#00B4D8"/>
<path d="M66.0902 30.8134C64.1064 34.0139 61.88 38.0675 59.5664 42.7144L68.4772 46.5288C70.2424 41.6472 71.6385 37.2381 72.5851 33.5936C72.3844 33.5895 72.1816 33.549 71.9861 33.4654L66.5964 31.1582C66.4009 31.0746 66.2315 30.9557 66.0902 30.8134Z" fill="#1565C0"/>
<path d="M64.3263 43.3395C66.3547 39.2652 68.3161 35.6474 70.1056 32.6605L66.5964 31.1584C66.4011 31.0748 66.2317 30.9559 66.0902 30.8136C64.1064 34.0141 61.88 38.0677 59.5664 42.7145L63.7495 44.5052C63.9424 44.1129 64.1346 43.7235 64.3263 43.3395Z" fill="#1565C0"/>
<path d="M74.2771 28.1125L68.8875 25.8054C68.0626 25.4523 67.1077 25.8347 66.7546 26.6595L65.6706 29.192C65.3175 30.0168 65.6999 30.9718 66.5247 31.3249L71.9144 33.632C72.7392 33.9851 73.6942 33.6027 74.0472 32.7779L75.1313 30.2454C75.4843 29.4206 75.1019 28.4658 74.2771 28.1125Z" fill="#CAF0F8"/>
<path d="M69.6914 30.9232L70.8555 28.2038C71.0886 27.6591 71.5665 27.2952 72.1057 27.183L68.8875 25.8054C68.0627 25.4523 67.1077 25.8347 66.7546 26.6595L65.6706 29.192C65.3175 30.0168 65.6999 30.9718 66.5247 31.3249L70.0556 32.8364C69.5714 32.347 69.4036 31.5951 69.6914 30.9232Z" fill="#B5DCFF"/>
</svg>
