<svg width="84" height="84" viewBox="0 0 84 84" fill="none" xmlns="http://www.w3.org/2000/svg">
<path d="M14.9297 29.5312C9.50316 29.5312 5.08594 25.1165 5.08594 19.6875C5.08594 14.2585 9.50316 9.84375 14.9297 9.84375C20.3562 9.84375 24.7734 14.2585 24.7734 19.6875C24.7734 25.1165 20.3562 29.5312 14.9297 29.5312Z" fill="#80BFFF"/>
<path d="M69.0703 29.5312C63.6438 29.5312 59.2266 25.1165 59.2266 19.6875C59.2266 14.2585 63.6438 9.84375 69.0703 9.84375C74.4968 9.84375 78.9141 14.2585 78.9141 19.6875C78.9141 25.1165 74.4968 29.5312 69.0703 29.5312Z" fill="#6699FF"/>
<path d="M19.8516 84H10.0078C8.74371 84 7.68633 83.0411 7.56131 81.7842L5.32153 59.0625H2.46094C1.1007 59.0625 0 57.9618 0 56.6016V44.2969C0 36.1546 6.78743 29.5312 14.9297 29.5312C23.0719 29.5312 29.6953 36.1546 29.6953 44.2969V56.6016C29.6953 57.9618 28.5946 59.0625 27.2344 59.0625H24.5378L22.2981 81.7842C22.173 83.0411 21.1157 84 19.8516 84Z" fill="#80BFFF"/>
<path d="M73.9922 84H64.1484C62.8843 84 61.827 83.0411 61.7019 81.7842L59.4622 59.0625H56.7656C55.4054 59.0625 54.3047 57.9618 54.3047 56.6016V44.2969C54.3047 36.1546 60.9281 29.5312 69.0703 29.5312C77.2126 29.5312 84 36.1546 84 44.2969V56.6016C84 57.9618 82.8993 59.0625 81.5391 59.0625H78.6785L76.4387 81.7842C76.3137 83.0411 75.2563 84 73.9922 84Z" fill="#6699FF"/>
<path d="M44.4609 24.8061L42 34.4531L39.5391 24.8061C31.2211 25.9873 24.7734 33.1733 24.7734 41.8359V56.6016C24.7734 57.9795 25.8561 59.0625 27.2344 59.0625H32.7469L34.6172 81.7358C34.7158 83.0156 35.7984 84 37.0781 84H46.9219C48.2016 84 49.2842 83.0156 49.3828 81.7358L51.2531 59.0625H56.7656C58.1439 59.0625 58.4062 57.9795 58.4062 56.6016V41.8359C58.4062 33.1734 52.7789 25.9873 44.4609 24.8061Z" fill="#99EEFF"/>
<path d="M42 24.6094C35.2132 24.6094 29.6953 19.0892 29.6953 12.3047C29.6953 5.52021 35.2132 0 42 0C48.7868 0 54.3047 5.52021 54.3047 12.3047C54.3047 19.0892 48.7868 24.6094 42 24.6094Z" fill="#99EEFF"/>
</svg>
