<svg width="86" height="82" viewBox="0 0 86 82" fill="none" xmlns="http://www.w3.org/2000/svg">
<path d="M60.625 0.40625H78.25V37.125H60.625V0.40625Z" fill="#E6AF89"/>
<path d="M81.1875 12.1562C81.1875 11.3772 80.878 10.63 80.3271 10.0791C79.7762 9.52824 79.0291 9.21875 78.25 9.21875H60.625V3.34375H57.0313C55.5706 3.34377 54.1697 3.92407 53.1368 4.95699L48.875 9.21875H0.40625V26.8438H44.4688L52.2647 30.7418C54.865 32.0419 57.7323 32.7187 60.6395 32.7188H78.25C79.0291 32.7188 79.7762 32.4093 80.3271 31.8584C80.878 31.3075 81.1875 30.5603 81.1875 29.7812C81.1875 29.0022 80.878 28.255 80.3271 27.7041C79.7762 27.1532 79.0291 26.8438 78.25 26.8438C79.0291 26.8438 79.7762 26.5343 80.3271 25.9834C80.878 25.4325 81.1875 24.6853 81.1875 23.9062C81.1875 23.1272 80.878 22.38 80.3271 21.8291C79.7762 21.2782 79.0291 20.9688 78.25 20.9688C79.0291 20.9688 79.7762 20.6593 80.3271 20.1084C80.878 19.5575 81.1875 18.8103 81.1875 18.0312C81.1875 17.2522 80.878 16.505 80.3271 15.9541C79.7762 15.4032 79.0291 15.0938 78.25 15.0938C79.0291 15.0938 79.7762 14.7843 80.3271 14.2334C80.878 13.6825 81.1875 12.9353 81.1875 12.1562Z" fill="#FDC9A6"/>
<path d="M78.25 26.8438C78.6359 26.8433 79.0181 26.919 79.3747 27.0664C79.7313 27.2139 80.0554 27.4302 80.3283 27.703C80.5095 27.8851 80.6662 28.09 80.7946 28.3125H69.4375C69.048 28.3125 68.6744 28.1578 68.3989 27.8823C68.1235 27.6069 67.9688 27.2333 67.9688 26.8438C67.9688 26.4542 68.1235 26.0806 68.3989 25.8052C68.6744 25.5297 69.048 25.375 69.4375 25.375H80.7946C80.5368 25.8217 80.1659 26.1927 79.7192 26.4505C79.2725 26.7083 78.7658 26.844 78.25 26.8438Z" fill="#FDC9A6"/>
<path d="M78.25 20.9688C78.6359 20.9683 79.0181 21.044 79.3747 21.1914C79.7313 21.3389 80.0554 21.5552 80.3283 21.828C80.5095 22.0101 80.6662 22.215 80.7946 22.4375H69.4375C69.048 22.4375 68.6744 22.2828 68.3989 22.0073C68.1235 21.7319 67.9688 21.3583 67.9688 20.9688C67.9688 20.5792 68.1235 20.2056 68.3989 19.9302C68.6744 19.6547 69.048 19.5 69.4375 19.5H80.7946C80.5368 19.9467 80.1659 20.3177 79.7192 20.5755C79.2725 20.8333 78.7658 20.969 78.25 20.9688Z" fill="#FDC9A6"/>
<path d="M80.3283 15.953C80.5095 16.1351 80.6662 16.34 80.7946 16.5625H69.4375C69.048 16.5625 68.6744 16.4078 68.3989 16.1323C68.1235 15.8569 67.9688 15.4833 67.9688 15.0938C67.9688 14.7042 68.1235 14.3306 68.3989 14.0552C68.6744 13.7797 69.048 13.625 69.4375 13.625H80.7946C80.5368 14.0717 80.1659 14.4427 79.7192 14.7005C79.2725 14.9583 78.7658 15.094 78.25 15.0938C78.6359 15.0933 79.0181 15.169 79.3747 15.3164C79.7313 15.4639 80.0554 15.6802 80.3283 15.953Z" fill="#FDC9A6"/>
<path d="M67.9688 15.0937C67.9688 14.7042 68.1235 14.3306 68.3989 14.0552C68.6744 13.7797 69.048 13.625 69.4375 13.625H80.7946C80.5368 14.0717 80.1659 14.4427 79.7192 14.7005C79.2725 14.9583 78.7658 15.094 78.25 15.0937H67.9688Z" fill="#F6BB92"/>
<path d="M25.375 6.28125C26.1541 6.28125 26.9012 6.59074 27.4521 7.14162C28.003 7.69251 28.3125 8.43968 28.3125 9.21875V26.8438H34.1875V30.4374C34.1875 31.8982 33.6072 33.2991 32.5743 34.332L28.3125 38.5938V81.1875H10.6875V43L6.78944 35.2041C5.48937 32.6037 4.81252 29.7365 4.8125 26.8292V9.21875C4.8125 8.43968 5.12199 7.69251 5.67287 7.14162C6.22376 6.59074 6.97093 6.28125 7.75 6.28125C8.52907 6.28125 9.27624 6.59074 9.82713 7.14162C10.378 7.69251 10.6875 8.43968 10.6875 9.21875C10.6875 8.43968 10.997 7.69251 11.5479 7.14162C12.0988 6.59074 12.8459 6.28125 13.625 6.28125C14.4041 6.28125 15.1512 6.59074 15.7021 7.14162C16.253 7.69251 16.5625 8.43968 16.5625 9.21875C16.5625 8.43968 16.872 7.69251 17.4229 7.14162C17.9738 6.59074 18.7209 6.28125 19.5 6.28125C20.2791 6.28125 21.0262 6.59074 21.5771 7.14162C22.128 7.69251 22.4375 8.43968 22.4375 9.21875C22.4375 8.43968 22.747 7.69251 23.2979 7.14162C23.8488 6.59074 24.5959 6.28125 25.375 6.28125Z" fill="#F6BB92"/>
<path d="M38.99 37.125C39.6764 37.1251 40.3347 37.3977 40.8201 37.8831L42.9995 40.0625L45.179 37.8831C45.6644 37.3977 46.3226 37.1251 47.009 37.125C47.5522 37.1251 48.0816 37.296 48.5223 37.6136C48.9629 37.9312 49.2925 38.3794 49.4644 38.8947C49.7222 39.6681 49.7367 40.502 49.5058 41.2838C49.2749 42.0657 48.8098 42.758 48.1732 43.2673L42.9995 47.4062L37.8258 43.2673C37.1892 42.758 36.7241 42.0657 36.4933 41.2838C36.2624 40.502 36.2768 39.6681 36.5346 38.8947C36.7065 38.3794 37.0361 37.9312 37.4767 37.6136C37.9174 37.296 38.4468 37.1251 38.99 37.125Z" fill="#E82F3E"/>
<path d="M67.9688 20.9687C67.9688 20.5792 68.1235 20.2056 68.3989 19.9302C68.6744 19.6547 69.048 19.5 69.4375 19.5H80.7946C80.5368 19.9467 80.1659 20.3177 79.7192 20.5755C79.2725 20.8333 78.7658 20.969 78.25 20.9687H67.9688Z" fill="#F6BB92"/>
<path d="M67.9688 26.8437C67.9688 26.4542 68.1235 26.0806 68.3989 25.8052C68.6744 25.5297 69.048 25.375 69.4375 25.375H80.7946C80.5368 25.8217 80.1659 26.1927 79.7192 26.4505C79.2725 26.7083 78.7658 26.844 78.25 26.8437H67.9688Z" fill="#F6BB92"/>
<path d="M22.4375 19.5C22.827 19.5 23.2006 19.3453 23.4761 19.0698C23.7515 18.7944 23.9062 18.4208 23.9062 18.0312V6.67413C23.4595 6.93192 23.0886 7.30283 22.8307 7.74953C22.5729 8.19624 22.4373 8.70297 22.4375 9.21874V19.5Z" fill="#E6AF89"/>
<path d="M16.5625 19.5C16.952 19.5 17.3256 19.3453 17.6011 19.0698C17.8765 18.7944 18.0312 18.4208 18.0312 18.0312V6.67413C17.5845 6.93192 17.2136 7.30283 16.9557 7.74953C16.6979 8.19624 16.5623 8.70297 16.5625 9.21874V19.5Z" fill="#E6AF89"/>
<path d="M10.6875 19.5C11.077 19.5 11.4506 19.3453 11.7261 19.0698C12.0015 18.7944 12.1562 18.4208 12.1562 18.0312V6.67413C11.7095 6.93192 11.3386 7.30283 11.0807 7.74953C10.8229 8.19624 10.6873 8.70297 10.6875 9.21874V19.5Z" fill="#E6AF89"/>
<path d="M7.75 69.4375C7.75 70.2166 8.05949 70.9637 8.61037 71.5146C9.16126 72.0655 9.90843 72.375 10.6875 72.375H28.3125V78.25H31.9062C33.3669 78.25 34.7678 77.6697 35.8007 76.6368L40.0625 72.375H85.5938V54.75H44.4688L36.6728 50.8519C34.0725 49.5519 31.2052 48.875 28.298 48.875H10.6875C9.90843 48.875 9.16126 49.1845 8.61037 49.7354C8.05949 50.2863 7.75 51.0334 7.75 51.8125C7.75 52.5916 8.05949 53.3387 8.61037 53.8896C9.16126 54.4405 9.90843 54.75 10.6875 54.75C9.90843 54.75 9.16126 55.0595 8.61037 55.6104C8.05949 56.1613 7.75 56.9084 7.75 57.6875C7.75 58.4666 8.05949 59.2137 8.61037 59.7646C9.16126 60.3155 9.90843 60.625 10.6875 60.625C9.90843 60.625 9.16126 60.9345 8.61037 61.4854C8.05949 62.0363 7.75 62.7834 7.75 63.5625C7.75 64.3416 8.05949 65.0887 8.61037 65.6396C9.16126 66.1905 9.90843 66.5 10.6875 66.5C9.90843 66.5 9.16126 66.8095 8.61037 67.3604C8.05949 67.9113 7.75 68.6584 7.75 69.4375Z" fill="#FDC9A6"/>
<path d="M60.625 35.6562V38.5938L56.7269 46.3897C55.4269 48.99 54.75 51.8573 54.75 54.7645V72.375C54.75 73.1541 55.0595 73.9012 55.6104 74.4521C56.1613 75.003 56.9084 75.3125 57.6875 75.3125C58.4666 75.3125 59.2137 75.003 59.7646 74.4521C60.3155 73.9012 60.625 73.1541 60.625 72.375C60.625 73.1541 60.9345 73.9012 61.4854 74.4521C62.0363 75.003 62.7834 75.3125 63.5625 75.3125C64.3416 75.3125 65.0887 75.003 65.6396 74.4521C66.1905 73.9012 66.5 73.1541 66.5 72.375C66.5 73.1541 66.8095 73.9012 67.3604 74.4521C67.9113 75.003 68.6584 75.3125 69.4375 75.3125C70.2166 75.3125 70.9637 75.003 71.5146 74.4521C72.0655 73.9012 72.375 73.1541 72.375 72.375C72.375 73.1541 72.6845 73.9012 73.2354 74.4521C73.7863 75.003 74.5334 75.3125 75.3125 75.3125C76.0916 75.3125 76.8387 75.003 77.3896 74.4521C77.9405 73.9012 78.25 73.1541 78.25 72.375V54.75H84.125V51.1563C84.125 49.6956 83.5447 48.2947 82.5118 47.2618L78.25 43V35.6562H60.625Z" fill="#E6AF89"/>
<path d="M72.375 62.0938C72.7645 62.0938 73.1381 62.2485 73.4136 62.5239C73.689 62.7994 73.8438 63.173 73.8438 63.5625V74.9196C73.397 74.6618 73.0261 74.2909 72.7682 73.8442C72.5104 73.3975 72.3748 72.8908 72.375 72.375V62.0938Z" fill="#C99978"/>
<path d="M66.5 62.0938C66.8895 62.0938 67.2631 62.2485 67.5386 62.5239C67.814 62.7994 67.9688 63.173 67.9688 63.5625V74.9196C67.522 74.6618 67.1511 74.2909 66.8932 73.8442C66.6354 73.3975 66.4998 72.8908 66.5 72.375V62.0938Z" fill="#C99978"/>
<path d="M60.625 62.0938C61.0145 62.0938 61.3881 62.2485 61.6636 62.5239C61.939 62.7994 62.0938 63.173 62.0938 63.5625V74.9196C61.647 74.6618 61.2761 74.2909 61.0182 73.8442C60.7604 73.3975 60.6248 72.8908 60.625 72.375V62.0938Z" fill="#C99978"/>
<path d="M20.9684 66.5C20.9684 66.8895 20.8137 67.2631 20.5383 67.5386C20.2628 67.814 19.8892 67.9688 19.4997 67.9688H8.14258C8.40037 67.522 8.77128 67.1511 9.21798 66.8932C9.66468 66.6354 10.1714 66.4998 10.6872 66.5H20.9684Z" fill="#E6AF89"/>
<path d="M20.9684 60.625C20.9684 61.0145 20.8137 61.3881 20.5383 61.6636C20.2628 61.939 19.8892 62.0938 19.4997 62.0938H8.14258C8.40037 61.647 8.77128 61.2761 9.21798 61.0182C9.66468 60.7604 10.1714 60.6248 10.6872 60.625H20.9684Z" fill="#E6AF89"/>
<path d="M20.9684 54.75C20.9684 55.1395 20.8137 55.5131 20.5383 55.7886C20.2628 56.064 19.8892 56.2188 19.4997 56.2188H8.14258C8.40037 55.772 8.77128 55.4011 9.21798 55.1432C9.66468 54.8854 10.1714 54.7498 10.6872 54.75H20.9684Z" fill="#E6AF89"/>
</svg>
