<svg width="94" height="94" viewBox="0 0 94 94" fill="none" xmlns="http://www.w3.org/2000/svg">
<g clip-path="url(#clip0)">
<path d="M20.0129 58.9758L20.8995 60.8068C20.8995 60.8068 34.9581 72.2227 46.9999 72.2227C59.0416 72.2227 73.1636 60.8068 73.1636 60.8068L73.9858 58.9758H73.9859C72.6345 54.9366 70.9746 49.3911 69.8103 43.5341L67.2372 42.0872H26.3845L24.1885 43.5336C23.0242 49.3908 21.3641 54.9364 20.0127 58.9758H20.0129Z" fill="#1565C0" fill-opacity="0.76"/>
<path d="M31.9533 42.7087L32.8968 42.0872H26.3845L24.1885 43.5336C23.0242 49.3908 21.3641 54.9364 20.0127 58.9758H20.0129L20.8995 60.8068C20.8995 60.8068 23.0633 62.5636 26.4196 64.6988C28.3866 58.1282 30.3925 50.5591 31.9533 42.7087Z" fill="#1565C0"/>
<path d="M93.093 29.6442L49.3488 14.8603C47.8253 14.3455 46.1747 14.3455 44.6512 14.8603L0.906854 29.6442C-0.222432 30.0259 -0.322123 31.5844 0.74933 32.1068L43.785 53.0882C45.8141 54.0774 48.1857 54.0774 50.2148 53.0882L93.2505 32.1068C94.3219 31.5844 94.2224 30.0259 93.093 29.6442Z" fill="#407BFF"/>
<path d="M13.9888 32.1061C12.9172 31.5838 13.0169 30.0253 14.1463 29.6436L53.6196 16.3031L49.3486 14.8597C47.8252 14.3447 46.1745 14.3447 44.651 14.8597L0.906853 29.6436C-0.222432 30.0253 -0.322123 31.5838 0.74933 32.1061L43.785 53.0876C45.8141 54.0768 48.1857 54.0768 50.2148 53.0876L53.6197 51.4275L13.9888 32.1061Z" fill="#1565C0"/>
<path d="M83.4002 66.8C82.6168 66.8 81.9818 66.165 81.9818 65.3816V39.1477C81.9818 38.4743 81.5268 37.8851 80.8752 37.7149L48.8609 29.2736C48.1034 29.0739 47.6512 28.2978 47.8509 27.5403C48.0507 26.7828 48.8262 26.3301 49.5842 26.5304L81.5957 34.9707C83.4922 35.4661 84.8188 37.184 84.8188 39.1475V65.3812C84.8186 66.165 84.1836 66.8 83.4002 66.8Z" fill="#CAF0F8"/>
<path d="M85.8833 68.5346H80.9167L80.3261 77.7204C80.2772 78.4815 80.8642 79.1267 81.6057 79.1267H85.1942C85.9358 79.1267 86.5227 78.4815 86.4737 77.7204L85.8833 68.5346Z" fill="#00B4D8"/>
<path d="M83.5582 77.7204L84.1489 68.5346H80.9167L80.3261 77.7204C80.2772 78.4815 80.8642 79.1265 81.6057 79.1265H84.8379C84.0964 79.1265 83.5094 78.4815 83.5582 77.7204Z" fill="#407BFF"/>
<path d="M84.5496 61.9328H82.2505C81.105 61.9328 80.168 62.87 80.168 64.0155V68.1494C80.168 68.5254 80.4729 68.8304 80.8489 68.8304H85.9513C86.3273 68.8304 86.6323 68.5254 86.6323 68.1494V64.0155C86.6321 62.8698 85.6951 61.9328 84.5496 61.9328Z" fill="#00B4D8"/>
<path d="M83.8246 68.1493V64.0153C83.8246 63.1076 84.4141 62.3326 85.2285 62.0492C85.0154 61.975 84.7876 61.9326 84.5498 61.9326H82.2507C81.1052 61.9326 80.168 62.8698 80.168 64.0153V68.1493C80.168 68.5254 80.4729 68.8302 80.8489 68.8302H84.5056C84.1294 68.8302 83.8246 68.5254 83.8246 68.1493Z" fill="#00B4D8"/>
<path d="M47.2926 23.9553C44.5651 23.7901 42.3018 25.953 42.3018 28.6447V28.6685C42.3078 29.879 43.322 30.8439 44.5326 30.8439H49.4678C50.638 30.8439 51.766 29.9384 51.6928 28.4144C51.5793 26.0442 49.6613 24.0987 47.2926 23.9553Z" fill="#CAF0F8"/>
<path d="M46.5573 28.6685C46.5573 28.6606 46.5573 28.6527 46.5573 28.6447C46.5573 26.8194 47.5988 25.2384 49.1191 24.4606C48.5627 24.1756 47.946 23.995 47.2926 23.9553C44.5651 23.7901 42.3018 25.953 42.3018 28.6447V28.6685C42.3078 29.879 43.322 30.8439 44.5326 30.8439H48.7881C47.5775 30.8439 46.5633 29.879 46.5573 28.6685Z" fill="#00B4D8"/>
<path d="M73.9856 58.976C69.0556 63.0281 61.0388 67.5634 52.3781 70.3544C48.9453 71.4609 45.1405 71.489 41.6201 70.3544C32.9791 67.5697 24.9652 63.0448 20.0126 58.976C19.5387 60.3921 19.1025 61.6238 18.7394 62.6176C18.1153 64.3248 18.6529 66.2439 20.082 67.3672C27.9998 73.5902 36.3576 76.9904 41.6201 78.6864C43.358 79.2466 45.1732 79.5267 46.999 79.5267C48.825 79.5267 50.6401 79.2466 52.3779 78.6864C57.6405 76.9904 65.9982 73.5902 73.9161 67.3672C75.3452 66.2439 75.8827 64.3248 75.2587 62.6176C74.8955 61.6236 74.4595 60.3919 73.9856 58.976Z" fill="#CAF0F8"/>
<path d="M26.7387 63.6246C24.1524 62.0879 21.8678 60.5 20.0126 58.9758C19.5387 60.3919 19.1027 61.6236 18.7394 62.6174C18.1153 64.3246 18.6529 66.2437 20.082 67.367C21.5755 68.5407 23.0845 69.6138 24.5855 70.5944C25.2854 68.4265 26.0111 66.0912 26.7387 63.6246Z" fill="#00B4D8"/>
</g>
<defs>
<clipPath id="clip0">
<rect width="94" height="94" fill="white"/>
</clipPath>
</defs>
</svg>
