<svg width="85" height="89" viewBox="0 0 85 89" fill="none" xmlns="http://www.w3.org/2000/svg">
<path d="M83.5335 75.9016H74V8.98346H83.5335C84.3435 8.98346 85.0002 9.64017 85.0002 10.4502V74.4349C85.0002 75.2449 84.3435 75.9016 83.5335 75.9016Z" fill="#1565C0"/>
<path d="M62.6328 11.1835V76.0849H62.734C63.3449 77.7474 66.6783 79.0183 70.6997 79.0183C74.721 79.0183 78.0548 77.7474 78.6653 76.0849H78.7665V11.1835H62.6328Z" fill="#407BFF"/>
<path d="M67.1341 76.0849H67.0329V11.1835H62.6328V76.0849H62.734C63.3449 77.7474 66.6783 79.0183 70.6997 79.0183C71.4627 79.0183 72.2001 78.9721 72.8997 78.8867C69.912 78.5219 67.6291 77.4321 67.1341 76.0849Z" fill="#407BFF"/>
<path d="M45.6476 15.0912H41.876V84.4536H45.6476V15.0912Z" fill="#CAF0F8"/>
<path d="M44.076 15.0908H41.876V84.4532H44.076V15.0908Z" fill="#CAF0F8"/>
<path d="M43.7721 20.6342C39.8464 20.6342 36.6641 17.4518 36.6641 13.5262V7.10793C36.6641 3.18231 39.8464 -6.10352e-05 43.7721 -6.10352e-05C47.6977 -6.10352e-05 50.88 3.18231 50.88 7.10793V13.5266C50.88 17.4518 47.6977 20.6342 43.7721 20.6342Z" fill="#00B4D8"/>
<path d="M47.9454 14.6266C47.3378 14.6266 46.8454 14.1342 46.8454 13.5266V7.10796C46.8454 5.8708 46.1072 4.75904 44.965 4.27503C44.4059 4.03816 44.1444 3.39245 44.3813 2.8329C44.6182 2.27372 45.2632 2.01338 45.8234 2.24879C47.7807 3.07821 49.0454 4.98528 49.0454 7.10759V13.5266C49.0454 14.1342 48.5526 14.6266 47.9454 14.6266Z" fill="#CAF0F8"/>
<path d="M41.0642 13.5266V7.10793C41.0642 3.95086 43.1241 1.27817 45.9721 0.351213C45.2787 0.125708 44.5406 -6.10352e-05 43.7721 -6.10352e-05C39.8464 -6.10352e-05 36.6641 3.18231 36.6641 7.10793V13.5266C36.6641 17.4522 39.8464 20.6346 43.7721 20.6346C44.5406 20.6346 45.2787 20.5088 45.9721 20.2833C43.1241 19.356 41.0642 16.6833 41.0642 13.5266Z" fill="#00B4D8"/>
<path d="M49.3111 24.7828H38.5107L53.7406 35.0989C53.7406 35.0776 53.742 35.0563 53.742 35.0351V29.7854C53.742 27.0225 51.7583 24.7828 49.3111 24.7828Z" fill="#00B4D8"/>
<path d="M45.8439 24.7831H38.5107L42.062 27.1889C42.8397 25.7482 44.2404 24.7831 45.8439 24.7831Z" fill="#CAF0F8"/>
<path d="M53.6032 70.4283V55.7745C53.6032 53.9924 53.0756 52.2372 52.0254 50.9065C50.9903 49.5945 50.4187 47.8994 50.4187 46.143V37.9138H37.126V46.0011C37.126 47.7835 36.5983 49.5388 35.5482 50.8698C34.5131 52.1818 33.9414 53.8777 33.9414 55.634V70.4286C33.9414 71.1194 34.4375 71.6794 35.0491 71.6794H52.4955C53.1075 71.679 53.6032 71.1191 53.6032 70.4283Z" fill="#407BFF"/>
<path d="M52.1444 88.0019H35.3808C34.9756 88.0019 34.6475 87.6737 34.6475 87.2686V85.6222C34.6475 83.4089 36.4416 81.6144 38.6552 81.6144H48.8704C51.0837 81.6144 52.8782 83.4086 52.8782 85.6222V87.2686C52.8778 87.6737 52.5496 88.0019 52.1444 88.0019Z" fill="#CAF0F8"/>
<path d="M45.9887 81.6147H38.6552C36.442 81.6147 34.6475 83.4089 34.6475 85.6225V87.2685C34.6475 87.6737 34.9756 88.0019 35.3808 88.0019H41.981V85.6221C41.9813 83.4089 43.7755 81.6147 45.9887 81.6147Z" fill="#00B4D8" fill-opacity="0.46"/>
<path d="M41.2749 70.4283V55.6337C41.2749 53.8773 41.8465 52.1814 42.8817 50.8695C43.9318 49.5388 44.4595 47.7832 44.4595 46.0011V37.9138H37.126V46.0011C37.126 47.7832 36.5983 49.5388 35.5482 50.8695C34.5131 52.1814 33.9414 53.8773 33.9414 55.6337V70.4283C33.9414 71.1191 34.4375 71.6786 35.0491 71.6786H42.3826C41.7706 71.6786 41.2749 71.1191 41.2749 70.4283Z" fill="#1565C0" fill-opacity="0.63"/>
<path d="M34.0791 29.785V35.3669C34.0791 38.6182 35.1384 41.7558 37.0554 44.1821L37.1254 44.2709H50.4181V44.2705C52.5357 41.8134 53.7252 38.5254 53.7398 35.0989L38.51 24.7828C36.0632 24.7832 34.0791 27.0225 34.0791 29.785Z" fill="#407BFF"/>
<path d="M53.7404 35.0537C53.7404 35.0687 53.7393 35.0841 53.7393 35.0992C53.7393 35.0841 53.74 35.0687 53.7404 35.0537Z" fill="#407BFF"/>
<path d="M41.4126 35.3669V29.785C41.4126 28.8328 41.6524 27.9461 42.0616 27.1886L38.51 24.7828C36.0628 24.7828 34.0791 27.0221 34.0791 29.785V35.3669C34.0791 38.6182 35.1384 41.7558 37.0554 44.1821L37.1254 44.2709H44.4589L44.3889 44.1821C42.4723 41.7558 41.4126 38.6182 41.4126 35.3669Z" fill="#407BFF"/>
<path d="M45.5833 70.7682C47.4059 70.7682 48.8833 69.2907 48.8833 67.4681C48.8833 65.6455 47.4059 64.168 45.5833 64.168C43.7607 64.168 42.2832 65.6455 42.2832 67.4681C42.2832 69.2907 43.7607 70.7682 45.5833 70.7682Z" fill="#1565C0"/>
<path d="M45.5833 39.6008C47.4059 39.6008 48.8833 38.1233 48.8833 36.3007C48.8833 34.4782 47.4059 33.0007 45.5833 33.0007C43.7607 33.0007 42.2832 34.4782 42.2832 36.3007C42.2832 38.1233 43.7607 39.6008 45.5833 39.6008Z" fill="#1565C0"/>
<path d="M70.6997 15.2169C75.1548 15.2169 78.7665 13.6574 78.7665 11.7335C78.7665 9.8097 75.1548 8.25012 70.6997 8.25012C66.2445 8.25012 62.6328 9.8097 62.6328 11.7335C62.6328 13.6574 66.2445 15.2169 70.6997 15.2169Z" fill="#1565C0"/>
<path d="M70.6998 13.7503C74.3449 13.7503 77.2999 12.8474 77.2999 11.7336C77.2999 10.6198 74.3449 9.71686 70.6998 9.71686C67.0546 9.71686 64.0996 10.6198 64.0996 11.7336C64.0996 12.8474 67.0546 13.7503 70.6998 13.7503Z" fill="#407BFF"/>
<path d="M70.6993 12.2836C72.8734 12.2836 74.6359 12.0373 74.6359 11.7335C74.6359 11.4298 72.8734 11.1835 70.6993 11.1835C68.5252 11.1835 66.7627 11.4298 66.7627 11.7335C66.7627 12.0373 68.5252 12.2836 70.6993 12.2836Z" fill="#1565C0"/>
<path d="M15.3171 48.0926C15.8526 48.0926 16.2866 47.5584 16.2866 46.8995C16.2866 46.2405 15.8526 45.7063 15.3171 45.7063C14.7817 45.7063 14.3477 46.2405 14.3477 46.8995C14.3477 47.5584 14.7817 48.0926 15.3171 48.0926Z" fill="#DB9C2E"/>
<path d="M6.72902 22.0844L6.42028 22.304C3.83119 24.1443 2.9442 28.2196 4.43913 31.4071L14.1531 52.1202L19.4845 48.3306L7.2574 22.2585C7.15033 22.0308 6.91419 21.9531 6.72902 22.0844Z" fill="#CAF0F8"/>
<path d="M8.74084 32.8258C7.67821 30.5601 7.82049 27.846 8.92088 25.8047L7.25801 22.2586C7.1513 22.0309 6.9148 21.9528 6.72999 22.0844L6.42126 22.304C3.83217 24.1444 2.94518 28.2196 4.44011 31.4071L14.1541 52.1202L16.881 50.182L8.74084 32.8258Z" fill="#00B4D8"/>
<path d="M28.1393 57.0487C26.7496 54.0852 24.1517 52.5166 21.5538 52.7406L19.4857 48.3306L14.1543 52.1202L16.2223 56.5302C14.7659 59.1879 14.5705 62.742 15.9602 65.7055C17.9021 69.8456 22.2024 71.2643 25.5656 68.8739C28.9287 66.4832 30.0812 61.1892 28.1393 57.0487ZM24.2514 66.0711C22.1489 67.5656 19.4509 66.6754 18.2369 64.087C17.0228 61.4986 17.7459 58.1769 19.8484 56.6827C21.9509 55.1882 24.6493 56.0785 25.863 58.6668C27.077 61.2552 26.3539 64.5769 24.2514 66.0711Z" fill="#1565C0"/>
<path d="M14.9283 52.1L9.59684 48.3104L7.5288 52.7204C4.93091 52.4967 2.33302 54.0654 0.943322 57.0285C-0.998587 61.169 0.153871 66.463 3.51701 68.8534C6.88015 71.2437 11.1805 69.8251 13.1224 65.6849C14.5121 62.7218 14.3167 59.1677 12.8602 56.5096L14.9283 52.1ZM10.8457 64.0672C9.63168 66.6555 6.93368 67.5454 4.83117 66.0512C2.72866 64.5567 2.00558 61.2353 3.21964 58.647C4.4337 56.0586 7.13169 55.1687 9.2342 56.6629C11.3367 58.1571 12.0598 61.4784 10.8457 64.0672Z" fill="#1565C0"/>
<path d="M22.3522 22.0642L22.6609 22.2839C25.25 24.1242 26.137 28.1994 24.6421 31.3869L14.9281 52.1L9.59668 48.3104L21.8238 22.2384C21.9309 22.0107 22.1674 21.933 22.3522 22.0642Z" fill="#00B4D8"/>
<path d="M22.6606 22.2839L22.3518 22.0642C22.167 21.933 21.9305 22.0107 21.8238 22.2384L9.59668 48.3104L12.3236 50.2487L24.462 24.3655C24.0143 23.5353 23.4093 22.8159 22.6606 22.2839Z" fill="#00B4D8" fill-opacity="0.65"/>
<path d="M2.74993 62.5979C2.50169 61.3006 2.63663 59.8893 3.21964 58.6466C3.80265 57.4036 4.72814 56.5536 5.76546 56.1701C7.07815 55.0569 8.66659 54.5219 10.2558 54.6587L12.3238 50.2487L9.59684 48.3104L7.5288 52.7204C4.93091 52.4967 2.33302 54.0654 0.943322 57.0285C-0.998587 61.169 0.153871 66.463 3.51701 68.8534C3.98599 69.1867 4.47367 69.4433 4.97014 69.6315C3.37951 67.8127 2.58052 65.2017 2.74993 62.5979Z" fill="#1565C0" fill-opacity="0.23"/>
<path d="M13.9434 48.3735C14.5507 48.3735 15.0431 47.8812 15.0431 47.2738C15.0431 46.6665 14.5507 46.1742 13.9434 46.1742C13.3361 46.1742 12.8438 46.6665 12.8438 47.2738C12.8438 47.8812 13.3361 48.3735 13.9434 48.3735Z" fill="#F57C00" fill-opacity="0.58"/>
</svg>
