<svg width="99" height="76" viewBox="0 0 99 76" fill="none" xmlns="http://www.w3.org/2000/svg">
<path d="M69.8027 49.6934V67.0957H39.8709L34.998 64.1953H29.1973V56.9443V49.6934H69.8027Z" fill="#FFDF40"/>
<path d="M49.5 49.6934H69.8027V67.0957H49.5V49.6934Z" fill="#FFBE40"/>
<path d="M29.1973 63.4219H69.8027V75.0234H29.1973V63.4219Z" fill="#FFBE40"/>
<path d="M49.5 63.4219H69.8027V75.0234H49.5V63.4219Z" fill="#FF9F40"/>
<path d="M0 0V52.5938H99V0H0Z" fill="#1565C0"/>
<path d="M49.5 0H99V52.5938H49.5V0Z" fill="#00B4D8"/>
<path d="M93.1992 20.4961V32.0977C85.1941 32.0977 78.5039 38.7879 78.5039 46.793H20.4961C20.4961 38.7879 13.8059 32.0977 5.80078 32.0977V20.4961C13.8059 20.4961 20.4961 13.8059 20.4961 5.80078H78.5039C78.5039 13.8059 85.1941 20.4961 93.1992 20.4961Z" fill="#CAF0F8"/>
<path d="M93.1992 20.4961V32.0977C85.1941 32.0977 78.5039 38.7879 78.5039 46.793H49.5V5.80078H78.5039C78.5039 13.8059 85.1941 20.4961 93.1992 20.4961Z" fill="#1565C0"/>
<path d="M49.5 11.7949C41.4949 11.7949 34.998 18.2918 34.998 26.2969C34.998 34.302 41.4949 40.7988 49.5 40.7988C57.5051 40.7988 64.002 34.302 64.002 26.2969C64.002 18.2918 57.5051 11.7949 49.5 11.7949Z" fill="#1565C0"/>
<path d="M17.5957 23.3965H29.1973V29.1973H17.5957V23.3965Z" fill="#1565C0"/>
<path d="M69.8027 23.3965H81.4043V29.1973H69.8027V23.3965Z" fill="#00B4D8"/>
<path d="M49.5 40.7988V11.7949C57.5051 11.7949 64.002 18.2918 64.002 26.2969C64.002 34.302 57.5051 40.7988 49.5 40.7988Z" fill="#00B4D8"/>
</svg>
