<svg width="94" height="94" viewBox="0 0 94 94" fill="none" xmlns="http://www.w3.org/2000/svg">
<g clip-path="url(#clip0)">
<path d="M46.7101 93.1874C72.4362 93.1874 93.2914 72.3323 93.2914 46.6062C93.2914 20.8801 72.4362 0.0249329 46.7101 0.0249329C20.984 0.0249329 0.128906 20.8801 0.128906 46.6062C0.128906 72.3323 20.984 93.1874 46.7101 93.1874Z" fill="#1565C0" fill-opacity="0.5"/>
<path d="M46.711 80.1834C65.2552 80.1834 80.2883 65.1503 80.2883 46.6061C80.2883 28.0619 65.2552 13.0289 46.711 13.0289C28.1668 13.0289 13.1338 28.0619 13.1338 46.6061C13.1338 65.1503 28.1668 80.1834 46.711 80.1834Z" fill="#00B4D8" fill-opacity="0.67"/>
<path d="M48.0689 0.0249319C47.0985 0.0249319 46.5162 0.995314 46.5162 1.77173V19.4338C46.5162 20.4042 45.7398 21.1806 44.7694 21.1806C43.7991 21.1806 43.0226 20.4042 43.0226 19.4338V1.77173C43.0226 0.801346 42.4404 0.0249319 41.47 0.0249319C40.4996 -0.169217 39.5291 0.801346 39.5291 1.77173V19.4338C39.5291 20.4042 38.7526 21.1806 37.7823 21.1806C36.8119 21.1806 36.0355 20.4042 36.0355 19.4338V1.77173C36.0355 0.801346 35.4532 0.0249319 34.4828 0.0249319C33.5124 -0.169217 32.5419 0.801346 32.5419 1.77173V19.4338C32.5419 20.4042 31.7655 21.1806 30.7951 21.1806C29.8247 21.1806 29.0483 20.4042 29.0483 19.4338V1.77173C29.0483 0.801346 28.466 0.0249319 27.4956 0.0249319C26.5252 -0.169217 25.5547 0.801346 25.5547 1.77173V21.3746C25.5547 24.674 26.9134 27.5854 29.0483 29.9144C32.5419 33.408 34.4828 38.2603 34.0945 43.1124L30.2128 85.0355C30.2128 85.4236 30.2128 86.0059 30.2128 86.3942C30.6009 90.6642 34.6768 93.7695 38.9468 92.9932C42.8285 92.2168 45.3517 88.5293 44.9636 84.6474L41.2759 42.9184C40.8877 37.8722 42.8285 33.2141 46.3221 29.7205C48.457 27.5856 49.8157 24.4801 49.8157 21.1806V1.77173C49.8157 0.801346 49.0393 0.0249319 48.0689 0.0249319Z" fill="#E0E0E0"/>
<path d="M41.4703 43.6948H34.095L30.4072 85.0357C30.4072 85.4238 30.4072 86.006 30.4072 86.3943C30.7953 90.6643 34.8712 93.7696 39.1412 92.9934C43.0229 92.217 45.5461 88.5294 45.158 84.6475L41.4703 43.6948Z" fill="#407BFF"/>
<path d="M64.7604 0.0249329C64.7604 0.0249329 56.4145 3.32438 52.9209 28.3618C51.5622 38.6484 53.6973 48.7411 57.579 58.2515C57.9671 59.2219 58.1613 60.3864 58.1613 61.5509L55.8322 86.5883C55.8322 86.9764 55.8322 87.3647 55.8322 87.7529C56.2203 91.0523 59.1317 93.5755 62.6253 93.1874C65.7307 92.7993 67.8656 89.4996 67.6715 86.3944L64.7604 0.0249329Z" fill="#E0E0E0"/>
<path d="M58.1621 61.3569C58.1621 61.5511 58.1621 61.5511 58.1621 61.745L55.833 86.7825C55.833 87.1706 55.833 87.5589 55.833 87.947C56.2211 91.2464 59.1325 93.7696 62.626 93.3815C65.7315 92.9934 67.8664 89.6938 67.6723 86.5885L66.8959 61.5511H58.1619V61.3569H58.1621Z" fill="#1565C0"/>
</g>
<defs>
<clipPath id="clip0">
<rect width="93.421" height="93.421" fill="white"/>
</clipPath>
</defs>
</svg>
