<svg width="78" height="82" viewBox="0 0 78 82" fill="none" xmlns="http://www.w3.org/2000/svg">
<path d="M76.2075 57.8811L54.1551 47.5707V32.0474C54.1551 31.6365 53.9977 31.241 53.7155 30.9427L40.6074 17.0832V8.22899H42.8792C43.7671 8.22899 44.487 7.50893 44.487 6.62118C44.487 5.73343 43.7669 5.01337 42.8792 5.01337H40.6074V1.60781C40.6074 0.720062 39.8875 0 38.9996 0C38.1115 0 37.3917 0.720062 37.3917 1.60781V5.01321H35.1199C34.2319 5.01321 33.5121 5.73327 33.5121 6.62102C33.5121 7.50877 34.232 8.22883 35.1199 8.22883H37.3917V17.0834L24.2838 30.9427C24.0014 31.241 23.844 31.6365 23.844 32.0474V47.5707L1.79158 57.881C0.987113 58.257 0.639894 59.2139 1.01594 60.0184C1.39215 60.823 2.34892 61.1699 3.15339 60.7939L6.23639 59.3525V80.3922C6.23639 81.2801 6.9563 82 7.8442 82H25.4518H33.2708H44.7299H52.5473H70.1547C71.0427 82 71.7626 81.2799 71.7626 80.3922V59.3526L74.8456 60.794C75.6505 61.1702 76.6071 60.8229 76.983 60.0186C77.3592 59.2141 77.012 58.2572 76.2075 57.8811ZM23.8441 78.7844H18.2262V68.61C18.2262 67.7221 17.5063 67.0022 16.6184 67.0022C15.7303 67.0022 15.0106 67.7222 15.0106 68.61V78.7844H9.45217V57.8491L23.8441 51.1204V78.7844ZM43.1221 78.7844H34.8787V64.9956C34.8787 62.7223 36.7274 60.8728 38.9997 60.8728C40.1019 60.8728 41.1367 61.3014 41.9146 62.0806C42.6934 62.8592 43.1221 63.8943 43.1221 64.9954V78.7844ZM50.9394 48.594V78.7842H46.3378V64.9954C46.3378 63.0356 45.5743 61.1928 44.1893 59.8075C42.8045 58.4208 40.9616 57.6572 38.9996 57.6572C34.954 57.6572 31.663 60.9492 31.663 64.9956V78.7842H27.0597V48.5938V32.6874H27.0599L38.9996 20.0631L50.9394 32.6874V48.594ZM68.5469 78.7844H62.9887V71.9784C62.9887 71.0905 62.2687 70.3706 61.3809 70.3706C60.493 70.3706 59.7731 71.0906 59.7731 71.9784V78.7844H54.1553V51.1206L68.5469 57.8492V78.7844Z" fill="#1565C0"/>
</svg>
