<svg width="87" height="66" viewBox="0 0 87 66" fill="none" xmlns="http://www.w3.org/2000/svg">
<path d="M83.3365 18.2026L48.975 1.41681C46.0128 -0.0642905 40.9771 -0.0642905 38.0149 1.41681L2.86346 18.2026C0.39496 19.3875 0 21.0661 0 21.9547C0 22.8434 0.39496 24.4232 2.86346 25.7068L5.72692 27.0892V42.8876C3.9496 43.5788 2.66598 45.3561 2.66598 47.3309C2.66598 49.3057 3.9496 51.083 5.62818 51.7742L1.18488 65.894H13.6261L9.18282 51.7742C10.9601 51.083 12.145 49.3057 12.145 47.3309C12.145 45.2574 10.8614 43.5788 9.08408 42.8876V28.7678L14.3173 31.335V51.8729C14.3173 52.1692 14.416 52.4654 14.6135 52.7616C15.1072 53.354 24.29 65.894 43.0506 65.894C61.8112 65.894 70.9941 53.2553 71.389 52.7616C71.5865 52.4654 71.6852 52.1692 71.6852 51.8729V31.4338L83.3365 25.7068C85.8051 24.522 86.2 22.8434 86.2 21.9547C86.1013 21.0661 85.8051 19.3875 83.3365 18.2026ZM68.5256 51.3792C66.9457 53.354 58.4541 62.8331 43.0506 62.8331C27.6472 62.8331 19.1556 53.354 17.5757 51.3792V32.7174L38.0149 42.4926C39.496 43.1838 41.4708 43.5788 43.4456 43.5788C45.5191 43.5788 47.4939 43.1838 48.975 42.3939L68.5256 32.8161V51.3792ZM81.9542 22.9421L70.1054 28.7678C69.6117 28.7678 69.2167 28.9653 69.0193 29.3602L47.5927 39.7279C45.5191 40.8141 41.4708 40.8141 39.2985 39.7279L12.9349 27.0892L43.2481 23.5346C44.1368 23.4358 44.7292 22.6459 44.6305 21.856C44.5317 20.9673 43.7418 20.3749 42.9519 20.4736L7.80046 24.6207L4.24582 22.9421C3.35716 22.5472 3.15968 22.0535 3.15968 22.0535C3.15968 21.9547 3.35716 21.5598 4.24582 21.1648L39.3973 4.28027C40.4834 3.78657 41.9645 3.49035 43.4456 3.49035C45.0254 3.49035 46.6053 3.78657 47.5927 4.28027L81.9542 21.0661C82.8428 21.461 83.0403 21.856 83.0403 22.0535C83.0403 22.0535 82.7441 22.5472 81.9542 22.9421Z" fill="#1565C0"/>
</svg>
