<svg width="87" height="87" viewBox="0 0 87 87" fill="none" xmlns="http://www.w3.org/2000/svg">
<g clip-path="url(#clip0)">
<path d="M54.5829 31.0733C54.7277 30.8195 54.9195 30.5022 55.1419 30.1347C56.8605 27.2936 59.7373 22.5384 58.4853 18.8976C58.1276 17.8574 57.2588 16.4487 55.1516 15.6452C49.593 13.5256 48.246 11.6522 47.8256 10.0225C48.8299 8.95724 49.4472 7.52345 49.4472 5.94743C49.4472 2.66812 46.7793 0.000183105 43.5 0.000183105C40.2206 0.000183105 37.5527 2.66812 37.5527 5.94743C37.5527 7.52345 38.1702 8.95724 39.1743 10.0226C38.7537 11.6524 37.4066 13.5257 31.8485 15.6452C29.7411 16.4487 28.8721 17.8575 28.5146 18.8978C27.2625 22.5385 30.1392 27.2938 31.8578 30.1349C32.0802 30.5024 32.2721 30.8196 32.4168 31.0733C35.2785 36.0908 33.9451 37.9917 31.9268 40.8688C29.6653 44.0925 26.8509 48.1045 29.9482 56.6531C30.1921 57.3257 30.8306 57.7734 31.5458 57.7734H41.8006V76.8049H36.7029C33.8921 76.8049 31.6053 79.0917 31.6053 81.9026V85.301C31.6053 86.2395 32.3662 87.0002 33.3045 87.0002H53.6951C54.6334 87.0002 55.3943 86.2395 55.3943 85.301V81.9026C55.3943 79.0917 53.1075 76.8049 50.2966 76.8049H45.199V57.7732H55.4539C56.1691 57.7732 56.8078 57.3253 57.0515 56.6529C60.1488 48.1044 57.3344 44.0925 55.0729 40.8686C53.0548 37.9915 51.7213 36.0906 54.5829 31.0733ZM51.996 81.9024V83.6016H35.0039V81.9024C35.0039 80.9655 35.7662 80.2032 36.7031 80.2032H50.2968C51.2336 80.2032 51.996 80.9655 51.996 81.9024ZM43.5 3.39844C44.9054 3.39844 46.0488 4.54184 46.0488 5.94726C46.0488 7.35268 44.9054 8.49608 43.5 8.49608C42.0945 8.49608 40.9511 7.35268 40.9511 5.94726C40.9511 4.54184 42.0944 3.39844 43.5 3.39844ZM54.2347 54.3748H32.7653C32.3689 53.1026 32.1389 51.9818 32.0383 50.9762H39.1918C40.1301 50.9762 40.891 50.2155 40.891 49.277C40.891 48.3385 40.1301 47.5778 39.1918 47.5778H32.236C32.6916 45.6995 33.6858 44.2793 34.7091 42.8203C36.8601 39.7541 39.2981 36.2785 35.3691 29.3894C35.2027 29.0978 35.0002 28.7631 34.7657 28.3755C33.5414 26.3514 30.9936 22.1397 31.7283 20.0026C31.843 19.6692 32.1059 19.184 33.0595 18.8203C38.2412 16.8443 41.0448 14.7072 42.1788 11.7446C42.6041 11.8415 43.0459 11.8943 43.5001 11.8943C43.9543 11.8943 44.3961 11.8415 44.8214 11.7446C45.9555 14.7072 48.7588 16.8441 53.9409 18.8203C54.8945 19.184 55.1572 19.6692 55.2719 20.0026C56.0068 22.1396 53.459 26.3514 52.2346 28.3755C52.0001 28.7629 51.7977 29.0977 51.6312 29.3894C47.7023 36.2784 50.1403 39.7539 52.2912 42.8202C54.2621 45.6303 56.1302 48.2928 54.2347 54.3748Z" fill="#1565C0"/>
<path d="M46.8369 47.5778C45.8986 47.5778 45.1377 48.3386 45.1377 49.277C45.1377 50.2155 45.8986 50.9763 46.8369 50.9763H46.8381C47.7764 50.9763 48.5368 50.2155 48.5368 49.277C48.5368 48.3386 47.7754 47.5778 46.8369 47.5778Z" fill="#1565C0"/>
</g>
<defs>
<clipPath id="clip0">
<rect width="87" height="87" fill="white"/>
</clipPath>
</defs>
</svg>
