<svg width="81" height="81" viewBox="0 0 81 81" fill="none" xmlns="http://www.w3.org/2000/svg">
<path d="M0.187149 55.4848C0.462422 55.9992 0.998572 56.3203 1.58203 56.3203H9.49218V79.418C9.49218 80.2916 10.2005 81 11.0742 81H69.9258C70.7995 81 71.5078 80.2916 71.5078 79.418V56.3203H79.418C80.0014 56.3203 80.5376 55.9992 80.8128 55.4848C81.0881 54.9704 81.0579 54.3463 80.7342 53.8607L71.242 39.6224C70.9487 39.1823 70.4547 38.918 69.9258 38.918H63.9141C63.0403 38.918 62.332 39.6262 62.332 40.5C62.332 41.3738 63.0403 42.082 63.9141 42.082H69.0791L76.4619 53.1562H50.8389L43.456 42.082H49.6758C50.5495 42.082 51.2578 41.3738 51.2578 40.5C51.2578 39.6262 50.5495 38.918 49.6758 38.918C47.8691 38.918 12.8227 38.918 11.0742 38.918C10.5452 38.918 10.0513 39.1823 9.75796 39.6224L0.265776 53.8607C-0.057908 54.3463 -0.0881248 54.9704 0.187149 55.4848ZM12.6562 56.3203H31.0078C31.5368 56.3203 32.0308 56.056 32.3241 55.6158L38.918 45.725V77.8359H12.6562V56.3203ZM48.6759 55.6158C48.9692 56.056 49.4633 56.3203 49.9922 56.3203H68.3437V77.8359H42.082V45.725L48.6759 55.6158ZM11.9209 42.082H37.544L30.1611 53.1562H4.53805L11.9209 42.082Z" fill="#1565C0"/>
<path d="M31.0078 3.95982C29.7156 2.06075 27.4848 0 23.8887 0C18.8191 0 15.1875 4.0856 15.1875 9.01283C15.1875 14.4833 19.6148 18.0763 26.3166 23.5147C27.491 24.4675 28.7052 25.453 29.9952 26.5278C30.2885 26.7722 30.6481 26.8944 31.0078 26.8944C31.3676 26.8944 31.7272 26.7722 32.0205 26.5278C33.3105 25.453 34.5247 24.4675 35.699 23.5147C42.4008 18.0763 46.8281 14.4833 46.8281 9.01283C46.8281 4.08164 43.1928 0 38.127 0C34.5308 0 32.3002 2.06075 31.0078 3.95982ZM43.6641 9.01283C43.6641 12.9761 39.7023 16.1913 33.7053 21.0578C32.8338 21.765 31.9404 22.49 31.0078 23.2582C30.0752 22.4902 29.1818 21.7651 28.3103 21.0578C22.3134 16.1913 18.3516 12.9763 18.3516 9.01283C18.3516 5.67854 20.732 3.16406 23.8887 3.16406C28.0189 3.16406 29.4312 7.76271 29.4876 7.95255C29.6827 8.63014 30.3027 9.09668 31.0078 9.09668C31.7129 9.09668 32.3329 8.62998 32.528 7.95255C32.5419 7.90462 33.9553 3.16406 38.127 3.16406C41.2836 3.16406 43.6641 5.67854 43.6641 9.01283Z" fill="#1565C0"/>
<path d="M59.4844 31.6406C59.8563 31.6406 60.2281 31.5101 60.5263 31.2491C61.3857 30.497 62.1957 29.8067 62.9788 29.1393C67.3792 25.3891 70.5586 22.6797 70.5586 18.649C70.5586 14.845 67.779 11.8652 64.2305 11.8652C61.9723 11.8652 60.4583 13.0136 59.4844 14.2437C58.5105 13.0136 56.9966 11.8652 54.7383 11.8652C51.1898 11.8652 48.4102 14.845 48.4102 18.649C48.4102 22.6797 51.5896 25.3891 55.99 29.1393C56.7732 29.8067 57.5831 30.497 58.4424 31.2491C58.7407 31.5101 59.1126 31.6406 59.4844 31.6406ZM51.5742 18.649C51.5742 16.8942 52.6831 15.0293 54.7383 15.0293C57.0702 15.0293 57.9215 17.8893 57.9607 18.0257C58.1515 18.7091 58.7733 19.1861 59.4833 19.1861C60.1958 19.1861 60.8193 18.7138 61.0079 18.0266C61.0428 17.9043 61.8924 15.0293 64.2305 15.0293C66.2857 15.0293 67.3945 16.8942 67.3945 18.649C67.3945 21.2188 64.9599 23.2937 60.9266 26.7309C60.4575 27.1307 59.9788 27.5386 59.4844 27.9641C58.99 27.5386 58.5114 27.1307 58.0422 26.7309C54.0088 23.2937 51.5742 21.2188 51.5742 18.649Z" fill="#1565C0"/>
<path d="M56.7949 42.082C57.6687 42.082 58.377 41.3737 58.377 40.5C58.377 39.6263 57.6687 38.918 56.7949 38.918C55.9212 38.918 55.2129 39.6263 55.2129 40.5C55.2129 41.3737 55.9212 42.082 56.7949 42.082Z" fill="#1565C0"/>
</svg>
