<svg width="79" height="79" viewBox="0 0 79 79" fill="none" xmlns="http://www.w3.org/2000/svg">
<path d="M73.6124 67.9681C76.5831 67.9681 79 65.5512 79 62.5803V7.71484C79 3.46088 75.5391 0 71.2852 0H7.71484C3.46088 0 0 3.46088 0 7.71484V62.5803C0 65.5512 2.41691 67.9681 5.38758 67.9681H7.09766V75.9141H1.54297C0.690787 75.9141 0 76.605 0 77.457C0 78.3091 0.690787 79 1.54297 79H77.457C78.3092 79 79 78.3091 79 77.457C79 76.605 78.3092 75.9141 77.457 75.9141H71.9023V67.9681H73.6124ZM3.08594 7.71484C3.08594 5.16247 5.16247 3.08594 7.71484 3.08594H71.2852C73.8375 3.08594 75.9141 5.16247 75.9141 7.71484V11.1094H3.24085C3.18854 11.1094 3.13686 11.1122 3.08594 11.1172V7.71484ZM16.9727 75.9141H10.1836V62.0273H16.9727V75.9141ZM34.2539 75.9141H27.4648V44.967H34.2539V75.9141ZM51.5352 75.9141H44.7461V58.0156H51.5352V75.9141ZM70.3594 39.5771H60.4844C59.6322 39.5771 58.9414 40.2681 58.9414 41.1201V48.912C58.9414 49.764 59.6322 50.4549 60.4844 50.4549C61.3366 50.4549 62.0273 49.764 62.0273 48.912V42.6631H68.8164V75.9141H62.0273V59.2886C62.0273 58.4365 61.3366 57.7456 60.4844 57.7456C59.6322 57.7456 58.9414 58.4365 58.9414 59.2886V75.9141H54.6211V56.4727C54.6211 55.6206 53.9303 54.9297 53.0781 54.9297H43.2031C42.3509 54.9297 41.6602 55.6206 41.6602 56.4727V75.9141H37.3398V43.4241C37.3398 42.5721 36.6491 41.8811 35.7969 41.8811H25.9219C25.0697 41.8811 24.3789 42.5721 24.3789 43.4241V75.9141H20.0586V60.4844C20.0586 59.6323 19.3678 58.9414 18.5156 58.9414H8.64062C7.78844 58.9414 7.09766 59.6323 7.09766 60.4844V64.8821H5.38758C4.11834 64.8821 3.08594 63.8496 3.08594 62.5803V14.1874C3.13686 14.1925 3.18854 14.1953 3.24085 14.1953H75.9141V62.5803C75.9141 63.8496 74.8815 64.8821 73.6124 64.8821H71.9023V41.1201C71.9023 40.2681 71.2116 39.5771 70.3594 39.5771Z" fill="#1565C0"/>
</svg>
