<svg width="89" height="89" viewBox="0 0 89 89" fill="none" xmlns="http://www.w3.org/2000/svg">
<path d="M87.4772 43.1464H79.9477C83.0779 36.0399 82.7395 30.2871 81.5551 26.3954C79.5247 19.4582 72.6721 11.9287 62.52 11.9287C59.8127 11.9287 57.1055 12.4363 54.3137 13.4515C49.4914 15.2281 46.2766 17.174 44.8384 18.1892C43.4002 17.174 40.27 15.2281 35.3631 13.4515C32.5713 12.4363 29.7795 11.9287 27.1568 11.9287C17.0048 11.9287 10.1521 19.4582 8.12167 26.3954C6.93726 30.5409 6.51426 36.8013 10.4905 44.6692H1.35361C0.592205 44.6692 0 45.2614 0 46.0228C0 46.7842 0.592205 47.3764 1.35361 47.3764H12.0979C12.5209 48.1378 13.0285 48.8992 13.6207 49.6606C22.4192 62.3508 41.539 76.1407 45.0076 76.9867V77.0713C45.0076 77.0713 45.0922 77.0713 45.1768 76.9867C45.2614 76.9867 45.346 76.9867 45.4306 76.9867V76.9021C48.3916 75.4639 66.75 63.6198 76.3945 49.576C77.3251 48.307 78.0865 47.038 78.7633 45.769H87.6464C88.4078 45.769 89 45.1768 89 44.4154C89 43.654 88.2386 43.1464 87.4772 43.1464ZM73.9411 48.1378C64.9734 61.251 48.4762 71.826 44.923 74.1103C41.2852 71.826 24.8726 61.1664 15.8203 48.1378C15.6511 47.884 15.4819 47.6302 15.3127 47.3764H27.7491C28.2567 47.3764 28.7643 47.1226 29.0181 46.615L34.6863 35.4477L43.5694 58.2053C43.7386 58.7129 44.3308 59.0513 44.8384 59.0513C44.8384 59.0513 44.8384 59.0513 44.923 59.0513C45.5152 59.0513 46.0228 58.6283 46.192 58.0361L53.9753 31.3869L58.1207 44.8384C58.2899 45.346 58.7129 45.6844 59.2205 45.769C59.7281 45.8536 60.2357 45.5998 60.5741 45.1768L63.8736 40.3546L66.6654 45.0922C66.9192 45.5152 67.3422 45.769 67.8498 45.769H75.4639C74.9563 46.615 74.4487 47.3764 73.9411 48.1378ZM76.9867 43.1464H68.6958L65.2272 37.2243C64.9734 36.8013 64.5504 36.5475 64.0428 36.5475C63.5352 36.5475 63.1122 36.7167 62.8584 37.1397L59.9819 41.3698L55.3289 26.2262C55.1597 25.634 54.5675 25.2956 53.9753 25.211C53.3831 25.211 52.7909 25.634 52.6217 26.2262L44.7538 53.3831L36.2091 31.5561C36.0399 31.0485 35.5323 30.7101 35.0247 30.7101C34.4325 30.7101 34.0095 30.9639 33.7557 31.4715L27.0722 44.5846H13.6207C10.2367 38.4087 9.30608 32.4867 10.8289 27.1568C12.6055 21.1502 18.443 14.7205 27.2414 14.7205C29.6103 14.7205 32.0637 15.2281 34.5171 16.0741C40.693 18.3584 43.9924 20.981 44.077 20.981C44.5846 21.404 45.2614 21.404 45.769 20.981C45.769 20.981 49.0684 18.3584 55.3289 16.0741C57.7823 15.1435 60.2357 14.7205 62.6046 14.7205C71.3184 14.7205 77.2405 21.1502 79.0171 27.1568C80.4553 32.0637 79.6939 37.4781 76.9867 43.1464Z" fill="#1565C0"/>
</svg>
