<svg width="61" height="84" viewBox="0 0 61 84" fill="none" xmlns="http://www.w3.org/2000/svg">
<path d="M60.3675 36.4531C59.7812 34.8078 58.2222 33.7105 56.4756 33.7136C54.7307 33.7189 53.1779 34.8218 52.5982 36.4677H44.0822V30.9595H49.5904C50.3507 30.9597 50.9673 30.3435 50.9674 29.5832C50.9674 29.583 50.9674 29.5826 50.9674 29.5825V23.8205C53.1185 23.0601 54.246 20.6998 53.4855 18.5485C52.7251 16.3974 50.3648 15.2699 48.2135 16.0304C46.0622 16.7909 44.9349 19.1511 45.6954 21.3024C46.1113 22.479 47.0368 23.4045 48.2133 23.8205V28.2056H44.0822V25.4515C44.0824 24.6912 43.4661 24.0746 42.7058 24.0744C42.7056 24.0744 42.7053 24.0744 42.7051 24.0744H39.951V16.9351C42.1022 16.1747 43.2296 13.8144 42.4691 11.6631C41.7087 9.51197 39.3484 8.38451 37.1971 9.14499C35.046 9.90546 33.9185 12.2657 34.679 14.417C35.0949 15.5935 36.0204 16.5191 37.1969 16.9351V24.0743H31.6887V2.08985C31.6889 1.32955 31.0727 0.712971 30.3124 0.712799C30.3122 0.712799 30.3119 0.712799 30.3117 0.712799C13.3239 0.712799 0.0166016 13.0121 0.0166016 28.7123C0.0166016 36.1704 2.97709 46.0451 7.74374 54.4809C8.59975 55.9951 9.71654 57.5873 10.8986 59.2737C13.3981 62.8367 16.1797 66.8434 16.4822 70.3311C15.4235 71.0793 14.804 72.3034 14.828 73.5995C14.8319 74.5306 15.1535 75.4325 15.7394 76.1562C14.9244 76.9604 14.4686 78.0596 14.4756 79.2046C14.478 81.4852 16.3262 83.3333 18.6068 83.3358H42.0166C44.3127 83.3215 46.1626 81.4487 46.1483 79.1526C46.1481 79.1376 46.1479 79.1227 46.1478 79.1077C46.1469 77.9876 45.6892 76.9165 44.8804 76.1415C45.4739 75.39 45.7963 74.4602 45.7954 73.5026C45.7913 71.3215 44.0199 69.5568 41.8388 69.561C41.7806 69.5611 41.7224 69.5625 41.6643 69.5651H31.6887V43.3528H34.4428V47.4839C34.4427 48.2442 35.0589 48.8608 35.8192 48.861C35.8194 48.861 35.8197 48.861 35.8199 48.861H39.951V50.4918C37.7999 51.2522 36.6726 53.6127 37.4333 55.7636C38.1939 57.9146 40.5542 59.042 42.7051 58.2814C44.8563 57.5209 45.9835 55.1605 45.2229 53.0095C44.807 51.833 43.8815 50.9076 42.7051 50.4918V47.4839C42.7053 46.7236 42.0891 46.1071 41.3288 46.1069C41.3286 46.1069 41.3283 46.1069 41.3281 46.1069H37.1969V43.3528H42.7051C43.4654 43.353 44.082 42.7367 44.0822 41.9764C44.0822 41.9762 44.0822 41.9759 44.0822 41.9757V39.2216H52.5984C53.363 41.3671 55.7219 42.4864 57.8673 41.7218C60.0126 40.9574 61.1319 38.5985 60.3675 36.4531ZM49.5904 18.5659C50.3509 18.5659 50.9674 19.1825 50.9674 19.9429C50.9674 20.7034 50.3509 21.32 49.5904 21.32C48.8299 21.32 48.2133 20.7034 48.2133 19.9429C48.214 19.1828 48.8302 18.5668 49.5904 18.5659ZM13.1537 57.6922C12.0105 56.0623 10.9314 54.5239 10.1414 53.1254C5.66405 45.2006 2.7707 35.6177 2.7707 28.7123C2.7707 14.9795 14.1549 4.13253 28.9346 3.4965V13.1166C28.569 13.1439 28.196 13.1772 27.797 13.226C27.2125 13.2971 26.7379 13.7323 26.6164 14.3086L26.1967 16.3043C25.8511 16.3864 25.5065 16.4792 25.1626 16.5826L23.7902 15.0522C23.397 14.6124 22.7673 14.4723 22.2248 14.704C20.6835 15.3686 19.2288 16.218 17.8926 17.2334C17.4222 17.588 17.2295 18.2027 17.4132 18.7625L18.0453 20.6883C17.785 20.933 17.5316 21.1871 17.2862 21.4467L15.3624 20.8146C14.8028 20.6334 14.1897 20.8253 13.8334 21.2933C12.8166 22.6299 11.9665 24.0853 11.3019 25.6276C11.0705 26.1701 11.2106 26.7996 11.6501 27.1929L13.1812 28.5647C13.0783 28.905 12.9862 29.2459 12.9049 29.588L10.7634 30.0155C10.1197 30.144 9.65612 30.7092 9.65612 31.3657V36.0615C9.65612 36.718 10.1197 37.2833 10.7636 37.4117L12.9051 37.8392C12.9865 38.1808 13.0786 38.5219 13.1814 38.8626L11.6497 40.2343C11.2108 40.6279 11.0709 41.2571 11.3015 41.7996C11.9663 43.3418 12.8163 44.7973 13.8331 46.1339C14.189 46.6024 14.8025 46.7944 15.3621 46.6126L17.2858 45.9805C17.532 46.2401 17.7847 46.4942 18.0449 46.7389L17.4129 48.662C17.2294 49.2216 17.4216 49.8359 17.8916 50.191C19.2278 51.208 20.6832 52.0583 22.2251 52.7233C22.7677 52.9536 23.3967 52.8136 23.7905 52.375L25.1629 50.8446C25.5065 50.9482 25.8512 51.041 26.1971 51.123L26.616 53.1173C26.737 53.6941 27.2118 54.1299 27.7967 54.2012C28.1962 54.2501 28.5694 54.2833 28.935 54.3107V69.5653H19.1769C18.6138 65.5069 15.7392 61.3787 13.1537 57.6922ZM17.9182 33.7134C17.927 40.021 22.6668 45.3183 28.9346 46.0256V50.7611L28.7067 49.6772C28.5918 49.1283 28.1554 48.7038 27.6034 48.6042C26.7871 48.4556 25.9847 48.2392 25.2044 47.9573C25.0548 47.9041 24.8971 47.8769 24.7384 47.8766C24.347 47.8766 23.974 48.0434 23.713 48.3351L22.4181 49.7795C21.7005 49.4209 21.008 49.0142 20.3451 48.5625L20.9429 46.7431C21.118 46.2098 20.9522 45.6239 20.524 45.2612C19.889 44.7236 19.2994 44.1344 18.7617 43.4996C18.398 43.0743 17.8139 42.9097 17.2817 43.0827L15.463 43.6812C15.0109 43.0182 14.6042 42.3253 14.2453 41.6075L15.6909 40.3126C16.1078 39.9382 16.2568 39.3488 16.068 38.8213C15.7864 38.0408 15.57 37.2383 15.4211 36.4223C15.3206 35.8658 14.8899 35.4273 14.3352 35.3168L12.41 34.932V32.4953L14.3352 32.1107C14.8898 32.0004 15.3206 31.5618 15.4211 31.0053C15.57 30.1887 15.7864 29.3857 16.0678 28.6048C16.257 28.077 16.1076 27.4875 15.69 27.1134L14.2457 25.8197C14.6049 25.1022 15.0115 24.4094 15.4626 23.746L17.282 24.3445C17.8143 24.5173 18.3981 24.3529 18.762 23.9276C19.3011 23.2923 19.891 22.7019 20.5257 22.1619C20.9522 21.7999 21.1171 21.2155 20.9426 20.684L20.3455 18.8645C21.0083 18.413 21.7007 18.0065 22.4178 17.6476L23.7127 19.0919C24.0873 19.5085 24.6763 19.6577 25.204 19.4698C25.9843 19.1876 26.7868 18.9713 27.603 18.8229C28.1549 18.7237 28.5912 18.2998 28.7064 17.751L28.9346 16.6671V21.4012C22.6668 22.1087 17.927 27.4059 17.9182 33.7134ZM28.9346 24.1841V43.2428C23.6717 42.4894 20.016 37.612 20.7694 32.3491C21.3755 28.1161 24.7014 24.7902 28.9346 24.1841ZM43.3937 79.2046C43.393 79.9647 42.7767 80.581 42.0166 80.5816H18.6068C17.8323 80.5686 17.2151 79.9301 17.2282 79.1557C17.2285 79.1397 17.229 79.1237 17.2297 79.1077C17.2304 78.3476 17.8466 77.7313 18.6068 77.7306H42.0166C42.791 77.7437 43.4083 78.3822 43.3952 79.1566C43.395 79.1726 43.3945 79.1886 43.3937 79.2046ZM41.6643 72.3194C42.3579 72.2553 42.9723 72.766 43.0361 73.4597C43.0404 73.5062 43.0422 73.5528 43.0413 73.5995C43.0406 74.3596 42.4244 74.9759 41.6643 74.9765H18.9591C18.1847 74.9635 17.5674 74.3252 17.5805 73.5506C17.5809 73.5346 17.5814 73.5186 17.5821 73.5026C17.6115 72.8161 18.1919 72.2836 18.8784 72.3132C18.9054 72.3144 18.9323 72.3164 18.9591 72.3192H41.6643V72.3194ZM41.3281 52.9921C42.0886 52.9921 42.7051 53.6087 42.7051 54.3692C42.7051 55.1297 42.0886 55.7462 41.3281 55.7462C40.5676 55.7462 39.951 55.1297 39.951 54.3692C39.9517 53.6091 40.568 52.993 41.3281 52.9921ZM38.574 11.6807C39.3345 11.6807 39.951 12.2972 39.951 13.0577C39.951 13.8182 39.3345 14.4348 38.574 14.4348C37.8135 14.4348 37.1969 13.8182 37.1969 13.0577C37.1976 12.2976 37.8139 11.6815 38.574 11.6807ZM41.3281 40.5987H31.6887V26.8282H41.3281V40.5987ZM56.4756 39.2216C55.7151 39.2216 55.0986 38.6051 55.0986 37.8446C55.0986 37.0841 55.7151 36.4675 56.4756 36.4675C57.2361 36.4675 57.8527 37.0841 57.8527 37.8446C57.852 38.6049 57.2358 39.2209 56.4756 39.2216Z" fill="#1565C0"/>
</svg>
