<svg width="84" height="84" viewBox="0 0 84 84" fill="none" xmlns="http://www.w3.org/2000/svg">
<g clip-path="url(#clip0)">
<path d="M71.3675 36.4531C70.7812 34.8078 69.2222 33.7105 67.4756 33.7136C65.7307 33.7189 64.1779 34.8218 63.5982 36.4677H55.0822V30.9595H60.5904C61.3507 30.9597 61.9673 30.3435 61.9674 29.5832C61.9674 29.583 61.9674 29.5826 61.9674 29.5825V23.8205C64.1185 23.0601 65.246 20.6998 64.4855 18.5485C63.7251 16.3974 61.3648 15.2699 59.2135 16.0304C57.0622 16.7909 55.9349 19.1511 56.6954 21.3024C57.1113 22.479 58.0368 23.4045 59.2133 23.8205V28.2056H55.0822V25.4515C55.0824 24.6912 54.4661 24.0746 53.7058 24.0744C53.7056 24.0744 53.7053 24.0744 53.7051 24.0744H50.951V16.9351C53.1022 16.1747 54.2296 13.8144 53.4691 11.6631C52.7087 9.51197 50.3484 8.38451 48.1971 9.14499C46.046 9.90546 44.9185 12.2657 45.679 14.417C46.0949 15.5935 47.0204 16.5191 48.1969 16.9351V24.0743H42.6887V2.08985C42.6889 1.32955 42.0727 0.712971 41.3124 0.712799C41.3122 0.712799 41.3119 0.712799 41.3117 0.712799C24.3239 0.712799 11.0166 13.0121 11.0166 28.7123C11.0166 36.1704 13.9771 46.0451 18.7437 54.4809C19.5997 55.9951 20.7165 57.5873 21.8986 59.2737C24.3981 62.8367 27.1797 66.8434 27.4822 70.3311C26.4235 71.0793 25.804 72.3034 25.828 73.5995C25.8319 74.5306 26.1535 75.4325 26.7394 76.1562C25.9244 76.9604 25.4686 78.0596 25.4756 79.2046C25.478 81.4852 27.3262 83.3333 29.6068 83.3358H53.0166C55.3127 83.3215 57.1626 81.4487 57.1483 79.1526C57.1481 79.1376 57.1479 79.1227 57.1478 79.1077C57.1469 77.9876 56.6892 76.9165 55.8804 76.1415C56.4739 75.39 56.7963 74.4602 56.7954 73.5026C56.7913 71.3215 55.0199 69.5568 52.8388 69.561C52.7806 69.5611 52.7224 69.5625 52.6643 69.5651H42.6887V43.3528H45.4428V47.4839C45.4427 48.2442 46.0589 48.8608 46.8192 48.861C46.8194 48.861 46.8197 48.861 46.8199 48.861H50.951V50.4918C48.7999 51.2522 47.6726 53.6127 48.4333 55.7636C49.1939 57.9146 51.5542 59.042 53.7051 58.2814C55.8563 57.5209 56.9835 55.1605 56.2229 53.0095C55.807 51.833 54.8815 50.9076 53.7051 50.4918V47.4839C53.7053 46.7236 53.0891 46.1071 52.3288 46.1069C52.3286 46.1069 52.3283 46.1069 52.3281 46.1069H48.1969V43.3528H53.7051C54.4654 43.353 55.082 42.7367 55.0822 41.9764C55.0822 41.9762 55.0822 41.9759 55.0822 41.9757V39.2216H63.5984C64.363 41.3671 66.7219 42.4864 68.8673 41.7218C71.0126 40.9574 72.1319 38.5985 71.3675 36.4531ZM60.5904 18.5659C61.3509 18.5659 61.9674 19.1825 61.9674 19.9429C61.9674 20.7034 61.3509 21.32 60.5904 21.32C59.8299 21.32 59.2133 20.7034 59.2133 19.9429C59.214 19.1828 59.8302 18.5668 60.5904 18.5659ZM24.1537 57.6922C23.0105 56.0623 21.9314 54.5239 21.1414 53.1254C16.6641 45.2006 13.7707 35.6177 13.7707 28.7123C13.7707 14.9795 25.1549 4.13253 39.9346 3.4965V13.1166C39.569 13.1439 39.196 13.1772 38.797 13.226C38.2125 13.2971 37.7379 13.7323 37.6164 14.3086L37.1967 16.3043C36.8511 16.3864 36.5065 16.4792 36.1626 16.5826L34.7902 15.0522C34.397 14.6124 33.7673 14.4723 33.2248 14.704C31.6835 15.3686 30.2288 16.218 28.8926 17.2334C28.4222 17.588 28.2295 18.2027 28.4132 18.7625L29.0453 20.6883C28.785 20.933 28.5316 21.1871 28.2862 21.4467L26.3624 20.8146C25.8028 20.6334 25.1897 20.8253 24.8334 21.2933C23.8166 22.6299 22.9665 24.0853 22.3019 25.6276C22.0705 26.1701 22.2106 26.7996 22.6501 27.1929L24.1812 28.5647C24.0783 28.905 23.9862 29.2459 23.9049 29.588L21.7634 30.0155C21.1197 30.144 20.6561 30.7092 20.6561 31.3657V36.0615C20.6561 36.718 21.1197 37.2833 21.7636 37.4117L23.9051 37.8392C23.9865 38.1808 24.0786 38.5219 24.1814 38.8626L22.6497 40.2343C22.2108 40.6279 22.0709 41.2571 22.3015 41.7996C22.9663 43.3418 23.8163 44.7973 24.8331 46.1339C25.189 46.6024 25.8025 46.7944 26.3621 46.6126L28.2858 45.9805C28.532 46.2401 28.7847 46.4942 29.0449 46.7389L28.4129 48.662C28.2294 49.2216 28.4216 49.8359 28.8916 50.191C30.2278 51.208 31.6832 52.0583 33.2251 52.7233C33.7677 52.9536 34.3967 52.8136 34.7905 52.375L36.1629 50.8446C36.5065 50.9482 36.8512 51.041 37.1971 51.123L37.616 53.1173C37.737 53.6941 38.2118 54.1299 38.7967 54.2012C39.1962 54.2501 39.5694 54.2833 39.935 54.3107V69.5653H30.1769C29.6138 65.5069 26.7392 61.3787 24.1537 57.6922ZM28.9182 33.7134C28.927 40.021 33.6668 45.3183 39.9346 46.0256V50.7611L39.7067 49.6772C39.5918 49.1283 39.1554 48.7038 38.6034 48.6042C37.7871 48.4556 36.9847 48.2392 36.2044 47.9573C36.0548 47.9041 35.8971 47.8769 35.7384 47.8766C35.347 47.8766 34.974 48.0434 34.713 48.3351L33.4181 49.7795C32.7005 49.4209 32.008 49.0142 31.3451 48.5625L31.9429 46.7431C32.118 46.2098 31.9522 45.6239 31.524 45.2612C30.889 44.7236 30.2994 44.1344 29.7617 43.4996C29.398 43.0743 28.8139 42.9097 28.2817 43.0827L26.463 43.6812C26.0109 43.0182 25.6042 42.3253 25.2453 41.6075L26.6909 40.3126C27.1078 39.9382 27.2568 39.3488 27.068 38.8213C26.7864 38.0408 26.57 37.2383 26.4211 36.4223C26.3206 35.8658 25.8899 35.4273 25.3352 35.3168L23.41 34.932V32.4953L25.3352 32.1107C25.8898 32.0004 26.3206 31.5618 26.4211 31.0053C26.57 30.1887 26.7864 29.3857 27.0678 28.6048C27.257 28.077 27.1076 27.4875 26.69 27.1134L25.2457 25.8197C25.6049 25.1022 26.0115 24.4094 26.4626 23.746L28.282 24.3445C28.8143 24.5173 29.3981 24.3529 29.762 23.9276C30.3011 23.2923 30.891 22.7019 31.5257 22.1619C31.9522 21.7999 32.1171 21.2155 31.9426 20.684L31.3455 18.8645C32.0083 18.413 32.7007 18.0065 33.4178 17.6476L34.7127 19.0919C35.0873 19.5085 35.6763 19.6577 36.204 19.4698C36.9843 19.1876 37.7868 18.9713 38.603 18.8229C39.1549 18.7237 39.5912 18.2998 39.7064 17.751L39.9346 16.6671V21.4012C33.6668 22.1087 28.927 27.4059 28.9182 33.7134ZM39.9346 24.1841V43.2428C34.6717 42.4894 31.016 37.612 31.7694 32.3491C32.3755 28.1161 35.7014 24.7902 39.9346 24.1841ZM54.3937 79.2046C54.393 79.9647 53.7767 80.581 53.0166 80.5816H29.6068C28.8323 80.5686 28.2151 79.9301 28.2282 79.1557C28.2285 79.1397 28.229 79.1237 28.2297 79.1077C28.2304 78.3476 28.8466 77.7313 29.6068 77.7306H53.0166C53.791 77.7437 54.4083 78.3822 54.3952 79.1566C54.395 79.1726 54.3945 79.1886 54.3937 79.2046ZM52.6643 72.3194C53.3579 72.2553 53.9723 72.766 54.0361 73.4597C54.0404 73.5062 54.0422 73.5528 54.0413 73.5995C54.0406 74.3596 53.4244 74.9759 52.6643 74.9765H29.9591C29.1847 74.9635 28.5674 74.3252 28.5805 73.5506C28.5809 73.5346 28.5814 73.5186 28.5821 73.5026C28.6115 72.8161 29.1919 72.2836 29.8784 72.3132C29.9054 72.3144 29.9323 72.3164 29.9591 72.3192H52.6643V72.3194ZM52.3281 52.9921C53.0886 52.9921 53.7051 53.6087 53.7051 54.3692C53.7051 55.1297 53.0886 55.7462 52.3281 55.7462C51.5676 55.7462 50.951 55.1297 50.951 54.3692C50.9517 53.6091 51.568 52.993 52.3281 52.9921ZM49.574 11.6807C50.3345 11.6807 50.951 12.2972 50.951 13.0577C50.951 13.8182 50.3345 14.4348 49.574 14.4348C48.8135 14.4348 48.1969 13.8182 48.1969 13.0577C48.1976 12.2976 48.8139 11.6815 49.574 11.6807ZM52.3281 40.5987H42.6887V26.8282H52.3281V40.5987ZM67.4756 39.2216C66.7151 39.2216 66.0986 38.6051 66.0986 37.8446C66.0986 37.0841 66.7151 36.4675 67.4756 36.4675C68.2361 36.4675 68.8527 37.0841 68.8527 37.8446C68.852 38.6049 68.2358 39.2209 67.4756 39.2216Z" fill="#1565C0"/>
<path d="M54.5918 63.6589C54.1062 64.5272 53.6766 65.4255 53.3057 66.3485L55.8661 67.3625C56.1942 66.5483 56.5739 65.756 57.003 64.9904L54.5918 63.6589Z" fill="#1565C0"/>
<path d="M57.6893 58.8083C57.1482 59.5856 56.6082 60.3762 56.0918 61.1751L58.4035 62.6705C58.9037 61.8987 59.4261 61.1348 59.9499 60.3817L57.6893 58.8083Z" fill="#1565C0"/>
<path d="M60.8218 54.2267C60.3572 54.9635 59.8394 55.7261 59.2969 56.5088L61.5588 58.0795C62.1271 57.2618 62.6675 56.4644 63.1524 55.6925L60.8218 54.2267Z" fill="#1565C0"/>
<path d="M63.4058 49.4271C63.0111 50.2528 62.5985 51.0691 62.168 51.876L64.5966 53.1751C65.047 52.332 65.4786 51.4781 65.891 50.6133L63.4058 49.4271Z" fill="#1565C0"/>
<path d="M65.5576 44.3735C65.2376 45.2247 64.8966 46.0773 64.5361 46.9231L67.0711 48.0017C67.4464 47.1181 67.8011 46.2315 68.1356 45.3418L65.5576 44.3735Z" fill="#1565C0"/>
<path d="M71.6057 28.438L68.8516 28.4595L68.853 28.7123C68.853 29.4802 68.8174 30.2965 68.7461 31.1356L71.4907 31.3669C71.568 30.4512 71.6071 29.5582 71.6071 28.7123L71.6057 28.438Z" fill="#1565C0"/>
<path d="M70.9041 22.576L68.2227 23.2028C68.4239 24.0636 68.5769 24.9351 68.6812 25.813L71.4165 25.4875C71.2997 24.5084 71.1286 23.5364 70.9041 22.576Z" fill="#1565C0"/>
<path d="M68.924 17.0114L66.4482 18.2163C66.8354 19.0117 67.1784 19.828 67.4757 20.6611L70.0697 19.7386C69.7389 18.8089 69.3564 17.8984 68.924 17.0114Z" fill="#1565C0"/>
<path d="M65.7742 12.0249L63.6172 13.7381C64.1684 14.4322 64.6823 15.1548 65.1569 15.9032L67.4846 14.432C66.9576 13.5999 66.3866 12.7964 65.7742 12.0249Z" fill="#1565C0"/>
<path d="M61.6474 7.82249L59.8926 9.94453C60.5771 10.5108 61.2323 11.1119 61.8552 11.7452L63.8185 9.81405C63.1292 9.11365 62.4045 8.44905 61.6474 7.82249Z" fill="#1565C0"/>
<path d="M56.7756 4.53996L55.4658 6.96322C56.2525 7.38822 57.0224 7.85349 57.754 8.34561L59.2911 6.05954C58.486 5.51904 57.6402 5.00799 56.7756 4.53996Z" fill="#1565C0"/>
<path d="M51.3777 2.25526L50.5439 4.88026C51.4018 5.15189 52.2458 5.46396 53.0533 5.80685L54.1305 3.27325C53.2437 2.89525 52.3171 2.55374 51.3777 2.25526Z" fill="#1565C0"/>
<path d="M45.6639 0.991135L45.3115 3.72372C46.1997 3.83801 47.0886 3.99276 47.9534 4.18503L48.5491 1.49548C47.6045 1.28703 46.6335 1.11748 45.6639 0.991135Z" fill="#1565C0"/>
<path d="M5.50801 75.0249H2.75391V77.779H5.50801V75.0249Z" fill="#1565C0"/>
<path d="M5.50801 80.5331H2.75391V83.2872H5.50801V80.5331Z" fill="#1565C0"/>
<path d="M8.26191 77.779H5.50781V80.5331H8.26191V77.779Z" fill="#1565C0"/>
<path d="M2.7541 77.779H0V80.5331H2.7541V77.779Z" fill="#1565C0"/>
<path d="M81.2463 0.664246H78.4922V3.41834H81.2463V0.664246Z" fill="#1565C0"/>
<path d="M81.2463 6.17245H78.4922V8.92655H81.2463V6.17245Z" fill="#1565C0"/>
<path d="M84.0002 3.41835H81.2461V6.17245H84.0002V3.41835Z" fill="#1565C0"/>
<path d="M78.4914 3.41835H75.7373V6.17245H78.4914V3.41835Z" fill="#1565C0"/>
</g>
<defs>
<clipPath id="clip0">
<rect width="84" height="84" fill="white"/>
</clipPath>
</defs>
</svg>
