<svg width="80" height="80" viewBox="0 0 80 80" fill="none" xmlns="http://www.w3.org/2000/svg">
<g clip-path="url(#clip0)">
<path d="M25.1182 44.7355V44.2355H24.6182H19.8262C12.6847 44.2355 6.83709 38.4484 6.7873 31.3124C6.74894 24.126 12.5342 18.2649 19.7201 18.2086L20.1503 18.2052L20.2112 17.7794C20.8692 13.1787 23.1007 8.94829 26.5255 5.80692L26.5269 5.80563C31.995 0.751784 39.8195 -0.840652 46.8279 1.67326L46.828 1.67327C53.8364 4.18656 58.8654 10.3901 59.8743 17.7668L59.9331 18.1964L60.3667 18.1991C67.5101 18.2425 73.2968 24.0085 73.366 31.1513C73.3914 34.6066 72.0388 37.9296 69.6073 40.3856C67.1755 42.8413 63.8655 44.2269 60.4098 44.2355H55.5351H55.0351V44.7355V76.583C55.0351 78.1941 53.729 79.5002 52.118 79.5002C50.507 79.5002 49.2009 78.1941 49.2009 76.583V71.4217V70.9217H48.7009H31.4525H30.9525V71.4217V76.583C30.9525 78.1941 29.6464 79.5002 28.0353 79.5002C26.4243 79.5002 25.1182 78.1941 25.1182 76.583V44.7355ZM31.4525 29.5906H30.9525V30.0906V31.5551V32.0551H31.4525H48.7009H49.2009V31.5551V30.0906V29.5906H48.7009H31.4525ZM31.4525 33.3332H30.9525V33.8332V40.3421V40.8421H31.4525H48.7009H49.2009V40.3421V33.8332V33.3332H48.7009H31.4525ZM31.4525 42.1201H30.9525V42.6201V44.0846V44.5846H31.4525H48.7009H49.2009V44.0846V42.6201V42.1201H48.7009H31.4525ZM31.4525 45.8627H30.9525V46.3627V52.8716V53.3716H31.4525H48.7009H49.2009V52.8716V46.3627V45.8627H48.7009H31.4525ZM31.4525 54.6496H30.9525V55.1496V56.6141V57.1141H31.4525H48.7009H49.2009V56.6141V55.1496V54.6496H48.7009H31.4525ZM31.4525 58.3922H30.9525V58.8922V65.4011V65.9011H31.4525H48.7009H49.2009V65.4011V58.8922V58.3922H48.7009H31.4525ZM30.9525 69.1436V69.6436H31.4525H48.7009H49.2009V69.1436V67.6791V67.1791H48.7009H31.4525H30.9525V67.6791V69.1436ZM19.7505 19.502L19.7489 19.502C13.2722 19.5239 8.03904 24.7922 8.06095 31.2695C8.08286 37.7458 13.3512 42.9787 19.8274 42.9574C19.8277 42.9574 19.8281 42.9574 19.8285 42.9574L24.6182 42.9574H25.1182V42.4574V22.6773C25.1182 21.0663 26.4243 19.7602 28.0353 19.7602C29.6464 19.7602 30.9525 21.0663 30.9525 22.6773V27.8126V28.3126H31.4525H48.7009H49.2009V27.8126V22.6773C49.2009 21.0663 50.507 19.7602 52.118 19.7602C53.729 19.7602 55.0351 21.0663 55.0351 22.6773V42.4574V42.9574H55.5351H60.4028H60.4036C63.5164 42.9521 66.499 41.7071 68.6916 39.498C70.8841 37.2888 72.1058 34.2969 72.0879 31.1842L72.0879 31.1824C72.0275 24.7265 66.7857 19.5192 60.3291 19.502H60.3278H59.3508C59.0165 19.4992 58.7398 19.242 58.7126 18.9093L58.7125 18.9071C57.8792 9.23138 49.7897 1.7963 40.0774 1.78128L40.0746 1.78129C30.357 1.82046 22.2587 9.23582 21.3661 18.9123L21.366 18.9136C21.3363 19.2444 21.06 19.4992 20.7275 19.502L19.7505 19.502ZM40.0767 2.28128C49.5297 2.2959 57.4032 9.53253 58.2143 18.95C58.2626 19.5418 58.7552 19.9981 59.3489 20.002L40.0767 2.28128ZM28.0353 78.2221C28.9409 78.2221 29.6744 77.4876 29.6744 76.583V22.6773C29.6744 21.7719 28.9407 21.0383 28.0353 21.0383C27.1307 21.0383 26.3963 21.7717 26.3963 22.6773V76.583C26.3963 77.4878 27.1305 78.2221 28.0353 78.2221ZM52.118 78.2221C53.0236 78.2221 53.757 77.4876 53.757 76.583V22.6773C53.757 21.7719 53.0234 21.0383 52.118 21.0383C51.2134 21.0383 50.4789 21.7717 50.4789 22.6773V76.583C50.4789 77.4878 51.2132 78.2221 52.118 78.2221Z" fill="#1565C0" stroke="#1565C0"/>
</g>
<defs>
<clipPath id="clip0">
<rect width="80" height="80" fill="white"/>
</clipPath>
</defs>
</svg>
