<svg width="70" height="70" viewBox="0 0 70 70" fill="none" xmlns="http://www.w3.org/2000/svg">
<path d="M69.264 0.476669C68.7977 0.0870202 68.1827 -0.0758118 67.5844 0.0323327L22.1938 8.23546C21.2178 8.41196 20.5078 9.26167 20.5078 10.2536V48.5321C18.3292 46.5797 15.4535 45.3903 12.3047 45.3903C5.51988 45.3903 0 50.9102 0 57.695C0 64.4798 5.51988 69.9997 12.3047 69.9997C19.0895 69.9997 24.6094 64.4798 24.6094 57.695V27.006L65.8984 19.5442V42.3799C63.7198 40.4274 60.8441 39.2379 57.6953 39.2379C50.9105 39.2379 45.3906 44.7578 45.3906 51.5426C45.3906 58.3274 50.9105 63.8473 57.6953 63.8473C64.4801 63.8473 70 58.3274 70 51.5426V2.05044C70 1.44272 69.7305 0.866317 69.264 0.476669ZM12.3047 65.8981C7.78148 65.8981 4.10156 62.2182 4.10156 57.695C4.10156 53.1718 7.78148 49.4919 12.3047 49.4919C16.8279 49.4919 20.5078 53.1718 20.5078 57.695C20.5078 62.2182 16.8279 65.8981 12.3047 65.8981ZM24.6094 22.8381V11.9671L65.8984 4.50509V15.3761L24.6094 22.8381ZM57.6953 59.7458C53.1721 59.7458 49.4922 56.0658 49.4922 51.5426C49.4922 47.0194 53.1721 43.3395 57.6953 43.3395C62.2185 43.3395 65.8984 47.0194 65.8984 51.5426C65.8984 56.0658 62.2185 59.7458 57.6953 59.7458Z" fill="#1565C0"/>
</svg>
