<svg width="82" height="74" viewBox="0 0 82 74" fill="none" xmlns="http://www.w3.org/2000/svg">
<path d="M77.1738 36.7883C77.158 36.8042 77.2252 36.7883 76.9725 36.7883C74.3084 36.7883 72.4669 39.2588 73.3954 41.5608C72.9483 42.0321 74.8778 40.1034 42.2471 72.5633C41.3178 73.4863 39.8231 73.488 38.892 72.5633C6.2713 40.1116 8.19538 42.0368 7.74381 41.5608C8.7091 39.1674 6.69116 36.6604 3.96859 36.7932C3.967 36.7915 3.967 36.7899 3.96542 36.7885C1.26505 32.5691 -0.0904508 27.9916 0.00468295 23.2936C0.373326 4.8543 22.8745 -8.74174 40.5697 6.73556C58.2549 -8.73318 80.7659 4.84462 81.1347 23.2936C81.2298 27.9916 79.8742 32.5691 77.1738 36.7883Z" fill="#1565C0"/>
<path d="M77.1736 36.7883C77.1578 36.8042 77.225 36.7883 76.9723 36.7883C74.3082 36.7883 72.4667 39.2588 73.3952 41.5608C72.9481 42.0321 74.8776 40.1034 42.2469 72.5633C41.7823 73.0247 41.1766 73.2562 40.5693 73.2562V6.73556C51.5849 -2.89926 65.3288 -1.66871 74.0834 7.0828C81.868 14.8674 83.6622 26.6497 77.1736 36.7883Z" fill="#407BFF"/>
<path d="M77.1742 36.7883C76.123 38.4325 74.8672 40.0228 73.4117 41.545H55.7915C54.9163 41.545 54.1124 41.0646 53.697 40.294L47.0487 27.9456L37.6463 47.7953C36.8502 49.4758 34.4969 49.6401 33.4906 48.0537L26.6774 37.348L24.8508 40.3905C24.4212 41.1074 23.6474 41.5448 22.8118 41.5448H7.72836C6.27281 40.0227 5.01705 38.4324 3.96582 36.7881H21.4657L24.5781 31.6002C25.4781 30.0968 27.6666 30.043 28.6229 31.5479L35.1903 41.8667L44.7623 21.6587C45.6003 19.8967 48.0819 19.8367 49.0069 21.5493L57.2122 36.7881H77.1742V36.7883Z" fill="#E1F3FF"/>
<path d="M49.0061 21.5495C48.0828 19.8404 45.601 19.8938 44.7616 21.6589L40.5693 30.5092V41.6228L47.0479 27.9456L53.6962 40.294C54.1116 41.0644 54.9155 41.545 55.7907 41.545H73.4111C74.8666 40.0228 76.1224 38.4325 77.1736 36.7883H57.2114L49.0061 21.5495Z" fill="#B1D5F1"/>
</svg>
