<svg width="69" height="69" viewBox="0 0 69 69" fill="none" xmlns="http://www.w3.org/2000/svg">
<path d="M65.2969 15.1094H63.0156V13.9688H64.1562C65.0638 13.9688 65.9342 13.6082 66.5759 12.9665C67.2176 12.3248 67.5781 11.4544 67.5781 10.5469C67.5781 9.63934 67.2176 8.76897 66.5759 8.12725C65.9342 7.48552 65.0638 7.125 64.1562 7.125H63.0156V1.42188C63.0173 1.2433 62.9756 1.06698 62.8941 0.908049C62.8127 0.749117 62.6939 0.612316 62.548 0.509377C62.4067 0.402402 62.2422 0.330147 62.0679 0.298445C61.8935 0.266743 61.7141 0.276483 61.5442 0.326877L46.8758 4.84375H39.0625C38.76 4.84375 38.4699 4.96392 38.256 5.17783C38.042 5.39174 37.9219 5.68186 37.9219 5.98438V7.125H35.6406C35.3381 7.125 35.048 7.24517 34.8341 7.45908C34.6202 7.67299 34.5 7.96311 34.5 8.26563V12.8281C34.5 13.1306 34.6202 13.4208 34.8341 13.6347C35.048 13.8486 35.3381 13.9688 35.6406 13.9688H37.9219V15.1094H31.0781V4.84375C31.0781 4.54124 30.958 4.25112 30.744 4.03721C30.5301 3.8233 30.24 3.70313 29.9375 3.70313H7.125C6.82249 3.70313 6.53237 3.8233 6.31846 4.03721C6.10455 4.25112 5.98438 4.54124 5.98438 4.84375V15.1094H3.70312C2.79642 15.1121 1.92763 15.4735 1.28649 16.1146C0.645346 16.7558 0.283958 17.6245 0.28125 18.5313V55.0313C0.283958 55.938 0.645346 56.8068 1.28649 57.4479C1.92763 58.089 2.79642 58.4504 3.70312 58.4531H29.9375V61.875H23.0938C22.7912 61.875 22.5011 61.9952 22.2872 62.2091C22.0733 62.423 21.9531 62.7131 21.9531 63.0156V67.5781C21.9531 67.8806 22.0733 68.1708 22.2872 68.3847C22.5011 68.5986 22.7912 68.7188 23.0938 68.7188H45.9062C46.2088 68.7188 46.4989 68.5986 46.7128 68.3847C46.9267 68.1708 47.0469 67.8806 47.0469 67.5781V63.0156C47.0469 62.7131 46.9267 62.423 46.7128 62.2091C46.4989 61.9952 46.2088 61.875 45.9062 61.875H39.0625V58.4531H65.2969C66.2036 58.4504 67.0724 58.089 67.7135 57.4479C68.3547 56.8068 68.716 55.938 68.7188 55.0313V18.5313C68.716 17.6245 68.3547 16.7558 67.7135 16.1146C67.0724 15.4735 66.2036 15.1121 65.2969 15.1094ZM63.0156 9.40625H64.1562C64.4588 9.40625 64.7489 9.52643 64.9628 9.74033C65.1767 9.95424 65.2969 10.2444 65.2969 10.5469C65.2969 10.8494 65.1767 11.1395 64.9628 11.3534C64.7489 11.5673 64.4588 11.6875 64.1562 11.6875H63.0156V9.40625ZM48.1875 6.82844L60.7344 2.96172V18.132L48.1875 14.2653V6.82844ZM40.2031 7.125H45.9062V13.9688H40.2031V7.125ZM43.4539 16.25L42.6327 21.9531H41.3438V16.25H43.4539ZM36.7812 11.6875V9.40625H37.9219V11.6875H36.7812ZM8.26562 5.98438H28.7969V21.9531H8.26562V5.98438ZM44.7656 64.1563V66.4375H24.2344V64.1563H44.7656ZM32.2188 61.875V58.4531H36.7812V61.875H32.2188ZM66.4375 55.0313C66.4375 55.3338 66.3173 55.6239 66.1034 55.8378C65.8895 56.0517 65.5994 56.1719 65.2969 56.1719H3.70312C3.40061 56.1719 3.11049 56.0517 2.89658 55.8378C2.68267 55.6239 2.5625 55.3338 2.5625 55.0313V53.8906H66.4375V55.0313ZM66.4375 51.6094H2.5625V18.5313C2.5625 18.2287 2.68267 17.9386 2.89658 17.7247C3.11049 17.5108 3.40061 17.3906 3.70312 17.3906H5.98438V23.0938C5.98438 23.3963 6.10455 23.6864 6.31846 23.9003C6.53237 24.1142 6.82249 24.2344 7.125 24.2344H29.9375C30.24 24.2344 30.5301 24.1142 30.744 23.9003C30.958 23.6864 31.0781 23.3963 31.0781 23.0938V17.3906H39.0625V23.0938C39.0625 23.3963 39.1827 23.6864 39.3966 23.9003C39.6105 24.1142 39.9006 24.2344 40.2031 24.2344H43.625C43.8998 24.2343 44.1654 24.1351 44.3729 23.9548C44.5803 23.7746 44.7157 23.5256 44.7542 23.2534L45.758 16.25H46.8758L61.5442 20.7669C61.6514 20.7995 61.763 20.8149 61.875 20.8125C62.1761 20.8081 62.4637 20.6865 62.6767 20.4735C62.8896 20.2606 63.0112 19.973 63.0156 19.6719V17.3906H65.2969C65.5994 17.3906 65.8895 17.5108 66.1034 17.7247C66.3173 17.9386 66.4375 18.2287 66.4375 18.5313V51.6094Z" fill="#1565C0"/>
<path d="M5.98438 49.3281H35.6406C35.9431 49.3281 36.2333 49.208 36.4472 48.994C36.6611 48.7801 36.7812 48.49 36.7812 48.1875V29.9375C36.7812 29.635 36.6611 29.3449 36.4472 29.131C36.2333 28.917 35.9431 28.7969 35.6406 28.7969H5.98438C5.68186 28.7969 5.39174 28.917 5.17783 29.131C4.96392 29.3449 4.84375 29.635 4.84375 29.9375V48.1875C4.84375 48.49 4.96392 48.7801 5.17783 48.994C5.39174 49.208 5.68186 49.3281 5.98438 49.3281ZM7.125 47.0469V31.9781L20.2148 40.0343C20.3946 40.1449 20.6015 40.2034 20.8125 40.2034C21.0235 40.2034 21.2304 40.1449 21.4102 40.0343L34.5 31.9781V47.0469H7.125ZM10.0142 31.0781H31.6108L20.8125 37.7234L10.0142 31.0781Z" fill="#1565C0"/>
<path d="M40.2031 42.4844H42.4844V45.9062C42.4844 46.2088 42.6045 46.4989 42.8185 46.7128C43.0324 46.9267 43.3225 47.0469 43.625 47.0469H63.0156C63.3181 47.0469 63.6083 46.9267 63.8222 46.7128C64.0361 46.4989 64.1562 46.2088 64.1562 45.9062V32.2188C64.1562 31.9162 64.0361 31.6261 63.8222 31.4122C63.6083 31.1983 63.3181 31.0781 63.0156 31.0781H61.875V27.6562C61.875 27.3537 61.7548 27.0636 61.5409 26.8497C61.327 26.6358 61.0369 26.5156 60.7344 26.5156H40.2031C39.9006 26.5156 39.6105 26.6358 39.3966 26.8497C39.1827 27.0636 39.0625 27.3537 39.0625 27.6562V41.3438C39.0625 41.6463 39.1827 41.9364 39.3966 42.1503C39.6105 42.3642 39.9006 42.4844 40.2031 42.4844ZM61.875 44.7656H44.7656V33.3594H61.875V44.7656ZM41.3438 28.7969H59.5938V31.0781H43.625C43.3225 31.0781 43.0324 31.1983 42.8185 31.4122C42.6045 31.6261 42.4844 31.9162 42.4844 32.2188V40.2031H41.3438V28.7969Z" fill="#1565C0"/>
<path d="M47.0469 35.6406H49.3281V37.9219H47.0469V35.6406Z" fill="#1565C0"/>
<path d="M51.6094 35.6406H59.5938V37.9219H51.6094V35.6406Z" fill="#1565C0"/>
<path d="M47.0469 40.2031H51.6094V42.4844H47.0469V40.2031Z" fill="#1565C0"/>
<path d="M53.8906 40.2031H59.5938V42.4844H53.8906V40.2031Z" fill="#1565C0"/>
<path d="M15.65 18.3613C15.8154 18.4636 16.0042 18.5219 16.1984 18.5307C16.3927 18.5394 16.5859 18.4984 16.7599 18.4115L23.6036 14.9896C23.7934 14.895 23.9531 14.7494 24.0647 14.569C24.1763 14.3887 24.2354 14.1808 24.2354 13.9688C24.2354 13.7567 24.1763 13.5488 24.0647 13.3685C23.9531 13.1881 23.7934 13.0425 23.6036 12.9479L16.7599 9.52603C16.5859 9.43911 16.3926 9.3981 16.1984 9.4069C16.0041 9.4157 15.8154 9.47401 15.65 9.57629C15.4846 9.67858 15.3481 9.82145 15.2535 9.99132C15.1589 10.1612 15.1093 10.3524 15.1094 10.5469V17.3906C15.1093 17.5851 15.1589 17.7764 15.2535 17.9462C15.3482 18.1161 15.4846 18.259 15.65 18.3613ZM17.3906 12.3924L20.5433 13.9688L17.3906 15.5451V12.3924Z" fill="#1565C0"/>
</svg>
