<svg width="88" height="88" viewBox="0 0 88 88" fill="none" xmlns="http://www.w3.org/2000/svg">
<path d="M40.6952 46.302C42.1163 47.3289 43.8637 47.9345 45.7532 47.9345H61.9154V55.7713L72.1606 47.9345H76.5804C81.345 47.9345 85.2074 44.0839 85.2074 39.3339V8.60063C85.2076 3.85058 81.3452 0 76.5804 0H45.753C40.9884 0 37.126 3.85058 37.126 8.60063V46.302H40.6952Z" fill="#CAF0F8"/>
<path d="M76.581 0H69.1917C73.9564 0 77.8189 3.85075 77.8189 8.60063V39.3339C77.8189 44.0839 73.9564 47.9345 69.1919 47.9345H64.772L61.916 50.1191V55.7713L72.1612 47.9345H76.581C81.3456 47.9345 85.208 44.0839 85.208 39.3339V8.60063C85.2082 3.85075 81.3456 0 76.581 0V0Z" fill="#407BFF" fill-opacity="0.5"/>
<path d="M54.5195 35.328L55.4087 36.0478C56.8185 37.1889 58.5774 37.8117 60.3911 37.8117H73.0142C74.2108 37.8117 75.1744 36.8134 75.1174 35.6042C75.0641 34.4717 75.1199 24.158 75.1199 22.9953C75.1199 21.8325 74.1772 20.8896 73.0142 20.8896L64.4545 20.8638L65.5025 18.3817C66.5915 15.8026 66.4155 12.863 65.0264 10.4323C64.2734 9.26833 62.4447 9.69664 62.4091 11.1275C62.4091 13.3533 61.5964 15.5025 60.1237 17.1715L54.6656 23.3476H52.6758V35.3278H54.5195V35.328Z" fill="#FFD36C"/>
<path d="M53.6679 37.2274H47.9047C47.5238 37.2274 47.2148 36.9186 47.2148 36.5375V21.846C47.2148 21.4651 47.5236 21.1561 47.9047 21.1561H53.6679C54.0487 21.1561 54.3577 21.4649 54.3577 21.846V36.5375C54.3575 36.9184 54.0487 37.2274 53.6679 37.2274Z" fill="#00B4D8" fill-opacity="0.86"/>
<path d="M40.7085 61.7039V30.6858C40.7085 26.94 37.6627 23.9034 33.9052 23.9034H9.59526C5.838 23.9034 2.79199 26.94 2.79199 30.6858V54.9216C2.79199 58.6673 5.83782 61.7039 9.59526 61.7039H22.9502V67.9418L31.0294 61.7039H40.7085Z" fill="#00B4D8"/>
<path d="M33.9053 23.9034H24.2715C28.0287 23.9034 31.0748 26.94 31.0748 30.6858V61.7039H40.7085V30.6858C40.7084 26.94 37.6625 23.9034 33.9053 23.9034Z" fill="#85B6FC"/>
<path d="M30.6648 44.7964H25.7756L26.3112 41.5569H30.6648C32.3779 41.5569 32.3779 38.901 30.6648 38.901H26.7503L27.4816 34.4781C27.761 32.7882 25.1408 32.3548 24.8612 34.045L24.0584 38.901H20.8548L21.5861 34.4781C21.8655 32.7882 19.2457 32.3546 18.9658 34.045L18.163 38.901H12.8346C11.1215 38.901 11.1215 41.5569 12.8346 41.5569H17.7238L17.1882 44.7964H12.8346C11.1215 44.7964 11.1215 47.4524 12.8346 47.4524H16.7491L16.0178 51.8752C15.7413 53.5472 18.3583 54.0008 18.6382 52.3083L19.441 47.4524H22.6446L21.9133 51.8752C21.6367 53.5472 24.2537 54.0008 24.5337 52.3083L25.3365 47.4524H30.6648C32.3779 47.4524 32.3779 44.7964 30.6648 44.7964ZM23.0837 44.7964H19.8803L20.4159 41.5569H23.6195L23.0837 44.7964Z" fill="#F7F3F1"/>
<path d="M53.8686 56.7481H36.617C33.9506 56.7481 31.7891 58.903 31.7891 61.5612V78.76C31.7891 81.4182 33.9506 83.5731 36.617 83.5731H46.0943V88L51.8277 83.5733H53.8686C56.5349 83.5733 58.6965 81.4184 58.6965 78.7602V61.5614C58.6965 58.9032 56.5349 56.7481 53.8686 56.7481Z" fill="#00B4D8"/>
<path d="M53.868 56.7481H46.4314C49.0978 56.7481 51.2594 58.903 51.2594 61.5612V78.7602C51.2594 81.4184 49.0978 83.5733 46.4314 83.5733H46.0938V88L51.8272 83.5733H53.868C56.5344 83.5733 58.696 81.4184 58.696 78.7602V61.5612C58.696 58.9032 56.5344 56.7481 53.868 56.7481Z" fill="#407BFF"/>
<path d="M45.2426 76.0046C49.394 73.8039 51.5448 71.9312 51.5448 69.0303C51.5448 65.0288 46.643 64.0284 45.2426 67.0296C43.642 63.9286 38.9404 65.029 38.9404 69.0303C38.9404 71.9312 41.0912 73.8037 45.2426 76.0046Z" fill="#F7F3F1"/>
</svg>
