<svg width="79" height="79" viewBox="0 0 79 79" fill="none" xmlns="http://www.w3.org/2000/svg">
<path d="M39.5 79C61.3153 79 79 61.3153 79 39.5C79 17.6848 61.3153 0 39.5 0C17.6848 0 0 17.6848 0 39.5C0 61.3153 17.6848 79 39.5 79Z" fill="#1565C0"/>
<path d="M78.9997 39.5C78.9997 34.7924 78.1746 30.278 76.6637 26.0913L61.307 10.7346L31.0134 26.0496L26.3845 57.4915L13.1162 63.2204L26.8147 76.9188C30.796 78.2682 35.0625 79 39.4997 79C61.315 79 78.9997 61.3153 78.9997 39.5Z" fill="#407BFF" fill-opacity="0.61"/>
<path d="M32.4579 26.0496H25.4419V48.3528C23.3543 48.1696 21.0105 48.527 18.7149 49.4924C13.0549 51.8729 9.83137 57.0477 11.5149 61.0507C13.1984 65.0536 19.1515 66.369 24.8114 63.9885C29.4272 62.0471 32.4215 58.2475 32.4564 54.7405H32.4578V26.0496H32.4579Z" fill="#CAF0F8"/>
<path d="M61.3075 17.0856H54.2915V40.6699C52.2039 40.4867 49.8601 40.8439 47.5645 41.8095C41.9046 44.19 38.681 49.3648 40.3645 53.3677C42.048 57.3707 48.0011 58.686 53.661 56.3055C58.2768 54.3642 61.2711 50.5646 61.3061 47.0576H61.3075V17.0856Z" fill="#00B4D8"/>
<path d="M61.3068 22.4246L25.4414 31.423V19.733L61.3068 10.7346V22.4246Z" fill="#00B4D8"/>
<path d="M61.3066 10.7344V22.424L39.918 27.7904V16.1009L61.3066 10.7344Z" fill="#CAF0F8"/>
</svg>
