<svg width="72" height="72" viewBox="0 0 72 72" fill="none" xmlns="http://www.w3.org/2000/svg">
<g clip-path="url(#clip0)">
<path d="M47.5205 34.5938C48.2972 34.5938 48.9268 33.9642 48.9268 33.1875C48.9268 32.4108 48.2972 31.7812 47.5205 31.7812C46.7439 31.7812 46.1143 32.4108 46.1143 33.1875C46.1143 33.9642 46.7439 34.5938 47.5205 34.5938Z" fill="#1565C0"/>
<path d="M47.7613 39.213C46.9936 39.0989 46.278 39.6298 46.1642 40.398C45.7799 42.9933 43.5861 45.1457 40.2961 46.1559C36.7795 47.2358 31.8982 46.8738 28.9205 43.6311C28.3951 43.0591 27.5055 43.0214 26.9336 43.5465C26.3615 44.0719 26.3237 44.9615 26.849 45.5334C28.5727 47.4106 30.914 48.69 33.6196 49.2332C34.575 49.425 35.5662 49.5202 36.5638 49.5202C38.1047 49.5202 39.6609 49.2931 41.1217 48.8445C45.474 47.5082 48.3992 44.5047 48.9463 40.8101C49.0601 40.0418 48.5295 39.3268 47.7613 39.213Z" fill="#1565C0"/>
<path d="M67.3064 26.7765C64.7505 23.8134 61.2227 21.8922 56.9764 21.1206C61.0419 18.377 64.5485 15.6466 67.0488 13.2642C70.861 9.63169 72.1393 7.07906 71.072 5.23139C69.8843 3.17348 66.4557 3.18769 60.2814 5.27653C55.0646 7.04138 48.5658 10.1066 41.9823 13.9077C40.845 14.5641 39.7185 15.2363 38.6163 15.9137C37.7988 13.605 38.338 10.9679 40.1416 8.6812C41.4926 6.96839 41.7943 4.79292 40.929 3.00347C40.022 1.12795 38.0313 0.0050625 35.6006 0H35.5345C26.9555 0 18.5643 3.38498 11.9067 9.53142C5.24077 15.6855 1.15984 23.8321 0.415648 32.4706C-0.479711 42.874 2.84579 52.7647 9.7793 60.3207C16.5903 67.7431 26.2463 72 36.2714 72C41.6686 72 46.7353 71.0125 51.3305 69.0647C55.5323 67.2837 59.2637 64.7407 62.421 61.5059C65.3484 58.5065 67.6565 55.0537 69.2811 51.2432C70.8271 47.6173 71.6717 43.7749 71.724 40.1314C71.8001 34.833 70.2725 30.215 67.3064 26.7765ZM38.7807 19.1233C40.2691 18.1846 41.8192 17.2493 43.3884 16.3434C49.4755 12.8289 55.537 9.93417 60.4565 8.19225C65.8719 6.27483 68.0892 6.39998 68.6061 6.64748C68.5614 6.97472 68.155 8.43061 64.6012 11.7032C61.6338 14.436 57.3004 17.6497 52.3995 20.7523C50.8502 21.7335 49.2378 22.7085 47.6073 23.6502C45.3594 24.9476 43.1132 26.1607 40.9086 27.2715C40.4687 25.9878 39.905 24.742 39.2189 23.5534C38.5538 22.4016 37.7825 21.3202 36.9203 20.3196C37.5305 19.9197 38.1514 19.5197 38.7807 19.1233ZM38.3608 28.519C34.3899 30.4021 30.7463 31.8378 27.8367 32.6706C27.6852 31.9431 27.4189 31.24 27.041 30.585C26.6828 29.9641 26.2336 29.409 25.7142 28.9304C27.8925 26.8282 30.9584 24.3925 34.5685 21.9008C35.4067 22.8375 36.1497 23.8621 36.7832 24.9594C37.4384 26.0942 37.9658 27.2879 38.3608 28.519ZM68.9118 40.0911C68.7113 54.0844 56.175 69.1875 36.2714 69.1875C27.032 69.1875 18.1314 65.2627 11.8517 58.4193C5.45705 51.4507 2.39101 42.321 3.21788 32.7119C4.63805 16.2253 19.1352 2.8125 35.5345 2.8125H35.5976C36.943 2.81531 37.9634 3.33113 38.3969 4.22789C38.7956 5.05223 38.6223 6.06586 37.9333 6.93942C35.3988 10.1527 34.7632 14.1047 36.1951 17.4368C35.4413 17.9225 34.7003 18.4103 33.9844 18.8942C33.981 18.8965 33.9776 18.8987 33.9744 18.901C29.5027 21.9184 25.7266 24.9197 23.2142 27.4455C21.3087 26.7943 19.2151 26.9841 17.4356 28.0112C14.514 29.6989 10.6778 37.5633 9.93849 39.1227C9.74049 39.5401 9.76032 40.0282 9.99123 40.4283C10.2223 40.8284 10.635 41.0895 11.0954 41.1269C11.8726 41.1899 14.0798 41.3491 16.5363 41.3491C19.5173 41.3491 22.8653 41.1145 24.467 40.1894C26.2021 39.1878 27.4047 37.5144 27.8212 35.5906C31.2698 34.6854 35.7755 32.9145 40.6555 30.537C43.3897 29.2063 46.2016 27.7087 49.0135 26.0859C50.4399 25.2622 51.8501 24.4129 53.2206 23.5564C53.2289 23.5568 53.2369 23.5581 53.2452 23.5583C64.9662 23.8944 69.0233 32.319 68.9118 40.0911ZM25.1634 34.3645C25.0734 35.7788 24.2876 37.0455 23.0608 37.7537C21.7309 38.522 17.1623 38.6255 13.4111 38.4539C15.1373 35.1205 17.5109 31.2159 18.8422 30.447C20.0991 29.7214 21.6187 29.6896 22.9079 30.3622C23.6165 30.7312 24.2032 31.2941 24.6048 31.9904C25.0226 32.7146 25.2157 33.5355 25.1634 34.3645Z" fill="#1565C0" stroke="#1565C0"/>
<path d="M25.0205 8.69623C21.9189 8.69623 19.3955 11.2196 19.3955 14.3212C19.3955 17.4229 21.9189 19.9462 25.0205 19.9462C28.1221 19.9462 30.6455 17.4229 30.6455 14.3212C30.6455 11.2196 28.1221 8.69623 25.0205 8.69623ZM25.0205 17.1337C23.4697 17.1337 22.208 15.872 22.208 14.3212C22.208 12.7704 23.4697 11.5087 25.0205 11.5087C26.5713 11.5087 27.833 12.7704 27.833 14.3212C27.833 15.872 26.5713 17.1337 25.0205 17.1337Z" fill="#1565C0"/>
<path d="M17.9893 46.4836C14.8876 46.4836 12.3643 49.007 12.3643 52.1086C12.3643 55.2102 14.8876 57.7336 17.9893 57.7336C21.0909 57.7336 23.6143 55.2102 23.6143 52.1086C23.6143 49.007 21.0909 46.4836 17.9893 46.4836ZM17.9893 54.9211C16.4384 54.9211 15.1768 53.6594 15.1768 52.1086C15.1768 50.5578 16.4384 49.2961 17.9893 49.2961C19.5401 49.2961 20.8018 50.5578 20.8018 52.1086C20.8018 53.6594 19.5401 54.9211 17.9893 54.9211Z" fill="#1565C0"/>
<path d="M32.0518 54.9211C28.9501 54.9211 26.4268 57.4445 26.4268 60.5461C26.4268 63.6477 28.9501 66.1711 32.0518 66.1711C35.1534 66.1711 37.6768 63.6477 37.6768 60.5461C37.6768 57.4445 35.1534 54.9211 32.0518 54.9211ZM32.0518 63.3586C30.5009 63.3586 29.2393 62.0969 29.2393 60.5461C29.2393 58.9953 30.5009 57.7336 32.0518 57.7336C33.6026 57.7336 34.8643 58.9953 34.8643 60.5461C34.8643 62.0969 33.6026 63.3586 32.0518 63.3586Z" fill="#1565C0"/>
<path d="M48.9268 52.1086C45.8251 52.1086 43.3018 54.632 43.3018 57.7336C43.3018 60.8352 45.8251 63.3586 48.9268 63.3586C52.0284 63.3586 54.5518 60.8352 54.5518 57.7336C54.5518 54.632 52.0284 52.1086 48.9268 52.1086ZM48.9268 60.5461C47.3759 60.5461 46.1143 59.2844 46.1143 57.7336C46.1143 56.1828 47.3759 54.9211 48.9268 54.9211C50.4776 54.9211 51.7393 56.1828 51.7393 57.7336C51.7393 59.2844 50.4776 60.5461 48.9268 60.5461Z" fill="#1565C0"/>
<path d="M60.1768 38.0461C57.0751 38.0461 54.5518 40.5695 54.5518 43.6711C54.5518 46.7727 57.0751 49.2961 60.1768 49.2961C63.2784 49.2961 65.8018 46.7727 65.8018 43.6711C65.8018 40.5695 63.2784 38.0461 60.1768 38.0461ZM60.1768 46.4836C58.6259 46.4836 57.3643 45.2219 57.3643 43.6711C57.3643 42.1203 58.6259 40.8586 60.1768 40.8586C61.7276 40.8586 62.9893 42.1203 62.9893 43.6711C62.9893 45.2219 61.7276 46.4836 60.1768 46.4836Z" fill="#1565C0"/>
</g>
<defs>
<clipPath id="clip0">
<rect width="72" height="72" fill="white"/>
</clipPath>
</defs>
</svg>
