<?xml version="1.0" standalone="no"?><svg xmlns:xlink="http://www.w3.org/1999/xlink" xmlns="http://www.w3.org/2000/svg" viewBox="0 0 1000 500" preserveAspectRatio="xMaxYMax slice"><g transform="scale(0.8605851979345955)"><rect x="0" y="0" width="1162" height="581" fill="#ffffff"/><rect x="0" y="0" width="72.625" height="72.625" fill="#ffffff"/><rect x="0" y="0" width="36.31" height="36.31" fill="#889cf0"/><path d="M 0 36.31 A 36.31 36.31 0 0 1  36.31 0 L 36.31 36.31" fill="#9fb0f3"/><rect x="36.31" y="0" width="36.31" height="36.31" fill="#f1fcff"/><path d="M 36.31 0 A 36.31 36.31 0 0 1 72.62 36.31 L 36.31 36.31" fill="#d6ddfa"/><rect x="0" y="36.31" width="36.31" height="36.31" fill="#b5c2f5"/><path d="M 0 36.31 A 36.31 36.31 0 0 0 36.31 72.62 L 36.31 36.31" fill="#d2f5ff"/><rect x="36.31" y="36.31" width="36.31" height="36.31" fill="#6bdfff"/><path d="M 36.31 72.62 A 36.31 36.31 0 0 0 72.62 36.31 L 36.31 36.31" fill="#97e9ff"/><rect x="72.625" y="0" width="72.625" height="72.625" fill="#ffffff"/><rect x="72.63" y="0" width="36.31" height="36.31" fill="#2247e2"/><polygon points="108.94,0 108.94,36.31 72.63,36.31" fill="#e1f9ff"/><rect x="108.94" y="0" width="36.31" height="36.31" fill="#b7c3f6"/><polygon points="108.94,0 145.25,36.31 108.94,36.31" fill="#b9c5f6"/><rect x="72.63" y="36.31" width="36.31" height="36.31" fill="#8ea1f0"/><polygon points="72.63,36.31 108.94,36.31 72.63,72.62" fill="#3d5ee6"/><rect x="108.94" y="36.31" width="36.31" height="36.31" fill="#3cd5ff"/><polygon points="108.94,36.31 145.25,36.31 145.25,72.62" fill="#5ddcff"/><rect x="145.25" y="0" width="72.63" height="72.63" fill="#d1d9f9"/><path d="M 145.25 0 A 72.63 72.63 0 0 0 217.88 72.63 L 217.88 0" fill="#f6fdff"/><rect x="217.875" y="0" width="72.625" height="72.625" fill="#ffffff"/><rect x="217.88" y="0" width="36.31" height="36.31" fill="#a2b1f3"/><path d="M 217.88 0 A 36.31 36.31 0 0 1 254.19 36.31 L 217.88 36.31" fill="#43d6ff"/><rect x="254.19" y="0" width="36.31" height="36.31" fill="#c4f2ff"/><path d="M 254.19 36.31 A 36.31 36.31 0 0 1  290.5 0 L 290.5 36.31" fill="#83e4ff"/><rect x="217.88" y="36.31" width="36.31" height="36.31" fill="#5a76ea"/><path d="M 217.88 72.62 A 36.31 36.31 0 0 0 254.19 36.31 L 217.88 36.31" fill="#e9faff"/><rect x="254.19" y="36.31" width="36.31" height="36.31" fill="#768ded"/><path d="M 254.19 36.31 A 36.31 36.31 0 0 0 290.5 72.62 L 290.5 36.31" fill="#b4efff"/><rect x="290.5" y="0" width="72.63" height="72.63" fill="#b5c2f5"/><rect x="290.5" y="0" width="72.63" height="72.63" fill="#b4efff"/><rect x="363.13" y="0" width="72.63" height="72.63" fill="#526fe9"/><polygon points="363.13,0 435.76,0 435.76,72.63" fill="#8ae6ff"/><rect x="435.75" y="0" width="72.63" height="72.63" fill="#9eeaff"/><path d="M 435.75 0 A 72.63 72.63 0 0 1 508.38 72.63 L 435.75 72.63" fill="#4f6de8"/><rect x="508.38" y="0" width="72.63" height="72.63" fill="#8599ef"/><polygon points="508.38,0 581.01,0 508.38,72.63" fill="#dce2fb"/><rect x="581" y="0" width="72.625" height="72.625" fill="#ffffff"/><rect x="581" y="0" width="36.31" height="36.31" fill="#94a6f1"/><circle cx="599.155" cy="18.155" r="18.155" fill="#5673e9"/><rect x="617.31" y="0" width="36.31" height="36.31" fill="#d6f6ff"/><rect x="617.31" y="0" width="36.31" height="36.31" fill="#65deff"/><rect x="581" y="36.31" width="36.31" height="36.31" fill="#b6c2f5"/><circle cx="599.155" cy="54.465" r="18.155" fill="#cdf4ff"/><rect x="617.31" y="36.31" width="36.31" height="36.31" fill="#bec9f7"/><rect x="617.31" y="36.31" width="36.31" height="36.31" fill="#cff5ff"/><rect x="653.625" y="0" width="72.625" height="72.625" fill="#ffffff"/><rect x="653.63" y="0" width="36.31" height="36.31" fill="#92e7ff"/><polygon points="689.94,0 689.94,36.31 653.63,36.31" fill="#aab8f4"/><rect x="689.94" y="0" width="36.31" height="36.31" fill="#3456e5"/><polygon points="689.94,0 726.25,36.31 689.94,36.31" fill="#f3fdff"/><rect x="653.63" y="36.31" width="36.31" height="36.31" fill="#95e8ff"/><polygon points="653.63,36.31 689.94,36.31 689.94,72.62" fill="#a7ecff"/><rect x="689.94" y="36.31" width="36.31" height="36.31" fill="#c6f3ff"/><polygon points="689.94,36.31 726.25,36.31 689.94,72.62" fill="#c2ccf7"/><rect x="726.25" y="0" width="72.625" height="72.625" fill="#ffffff"/><rect x="726.25" y="0" width="36.31" height="36.31" fill="#264be3"/><path d="M 726.25 36.31 A 36.31 36.31 0 0 1 762.56 0 L 762.56 9.0775 A 27.2325 27.2325 0 0 0 735.3275 36.31" fill="#90e7ff"/><rect x="762.56" y="0" width="36.31" height="36.31" fill="#3ad4ff"/><path d="M 762.56 0 A 36.31 36.31 0 0 1 798.8699999999999 36.31 L 789.7924999999999 36.31 A 27.2325 27.2325 0 0 0 762.56 9.0775" fill="#b1eeff"/><rect x="726.25" y="36.31" width="36.31" height="36.31" fill="#6b84ec"/><path d="M 726.25 36.31 A 36.31 36.31 0 0 0 762.56 72.62 L 762.56 63.542500000000004 A 27.2325 27.2325 0 0 1 735.3275 36.31" fill="#e7ebfc"/><rect x="762.56" y="36.31" width="36.31" height="36.31" fill="#2d51e4"/><path d="M 762.56 72.62 A 36.31 36.31 0 0 0 798.8699999999999 36.31 L 789.7924999999999 36.31 A 27.2325 27.2325 0 0 1 762.56 63.542500000000004" fill="#e7ebfc"/><rect x="798.88" y="0" width="72.63" height="72.63" fill="#778eed"/><rect x="798.88" y="0" width="72.63" height="72.63" fill="#c3f2ff"/><rect x="871.5" y="0" width="72.63" height="72.63" fill="#5cdcff"/><path d="M 871.5 0 A 72.63 72.63 0 0 1  944.13 72.63 L 871.5 0 A 72.63 72.63 0 0 0 944.13 72.63" fill="#647eeb"/><rect x="944.13" y="0" width="72.63" height="72.63" fill="#90a3f1"/><path d="M 944.13 0 A 72.63 72.63 0 0 0 1016.76 72.63 L 1016.76 0" fill="#7088ec"/><rect x="1016.75" y="0" width="72.625" height="72.625" fill="#ffffff"/><rect x="1016.75" y="0" width="36.31" height="36.31" fill="#b3bff5"/><path d="M 1016.75 0 A 36.31 36.31 0 0 1 1053.06 36.31 L 1016.75 36.31" fill="#90a3f1"/><rect x="1053.06" y="0" width="36.31" height="36.31" fill="#5c77ea"/><path d="M 1053.06 36.31 A 36.31 36.31 0 0 1  1089.37 0 L 1089.37 36.31" fill="#8be6ff"/><rect x="1016.75" y="36.31" width="36.31" height="36.31" fill="#a5ecff"/><path d="M 1016.75 72.62 A 36.31 36.31 0 0 0 1053.06 36.31 L 1016.75 36.31" fill="#58dbff"/><rect x="1053.06" y="36.31" width="36.31" height="36.31" fill="#e5e9fc"/><path d="M 1053.06 36.31 A 36.31 36.31 0 0 0 1089.37 72.62 L 1089.37 36.31" fill="#5f7aea"/><rect x="1089.38" y="0" width="72.63" height="72.63" fill="#4c6ae8"/><rect x="1089.38" y="0" width="72.63" height="72.63" fill="#bbf0ff"/><rect x="0" y="72.625" width="72.625" height="72.625" fill="#ffffff"/><rect x="0" y="72.63" width="36.31" height="36.31" fill="#8ea1f0"/><circle cx="18.155" cy="90.785" r="18.155" fill="#8be6ff"/><rect x="36.31" y="72.63" width="36.31" height="36.31" fill="#1b42e1"/><rect x="36.31" y="72.63" width="36.31" height="36.31" fill="#61ddff"/><rect x="0" y="108.94" width="36.31" height="36.31" fill="#7088ec"/><circle cx="18.155" cy="127.095" r="18.155" fill="#a3b2f3"/><rect x="36.31" y="108.94" width="36.31" height="36.31" fill="#4dd9ff"/><rect x="36.31" y="108.94" width="36.31" height="36.31" fill="#6ee0ff"/><rect x="72.63" y="72.63" width="72.63" height="72.63" fill="#46d7ff"/><rect x="72.63" y="72.63" width="72.63" height="72.63" fill="#2046e2"/><rect x="145.25" y="72.63" width="72.63" height="72.63" fill="#6e86ec"/><path d="M 145.25 145.26 A 72.63 72.63 0 0 0 217.88 72.63 L 145.25 72.63" fill="#e9faff"/><rect x="217.875" y="72.625" width="72.625" height="72.625" fill="#ffffff"/><rect x="217.88" y="72.63" width="36.31" height="36.31" fill="#3456e5"/><path d="M 217.88 72.63 A 36.31 36.31 0 0 1 254.19 108.94 L 217.88 108.94" fill="#38d4ff"/><rect x="254.19" y="72.63" width="36.31" height="36.31" fill="#feffff"/><path d="M 254.19 108.94 A 36.31 36.31 0 0 1  290.5 72.63 L 290.5 108.94" fill="#83e4ff"/><rect x="217.88" y="108.94" width="36.31" height="36.31" fill="#b8f0ff"/><path d="M 217.88 145.25 A 36.31 36.31 0 0 0 254.19 108.94 L 217.88 108.94" fill="#657feb"/><rect x="254.19" y="108.94" width="36.31" height="36.31" fill="#b1eeff"/><path d="M 254.19 108.94 A 36.31 36.31 0 0 0 290.5 145.25 L 290.5 108.94" fill="#768ded"/><rect x="290.5" y="72.63" width="72.63" height="72.63" fill="#88e5ff"/><polygon points="290.5,72.63 363.13,72.63 290.5,145.26" fill="#e8ecfc"/><rect x="363.13" y="72.63" width="72.63" height="72.63" fill="#6680eb"/><polygon points="363.13,72.63 435.76,72.63 363.13,145.26" fill="#49d8ff"/><rect x="435.75" y="72.625" width="72.625" height="72.625" fill="#ffffff"/><rect x="435.75" y="72.63" width="36.31" height="36.31" fill="#b6c2f5"/><path d="M 435.75 72.63 A 36.31 36.31 0 0 1 472.06 108.94 L 435.75 108.94" fill="#95a7f1"/><rect x="472.06" y="72.63" width="36.31" height="36.31" fill="#7d93ee"/><path d="M 472.06 108.94 A 36.31 36.31 0 0 1  508.37 72.63 L 508.37 108.94" fill="#b8f0ff"/><rect x="435.75" y="108.94" width="36.31" height="36.31" fill="#3b5ce6"/><path d="M 435.75 145.25 A 36.31 36.31 0 0 0 472.06 108.94 L 435.75 108.94" fill="#5c77ea"/><rect x="472.06" y="108.94" width="36.31" height="36.31" fill="#41d6ff"/><path d="M 472.06 108.94 A 36.31 36.31 0 0 0 508.37 145.25 L 508.37 108.94" fill="#c9f3ff"/><rect x="508.38" y="72.63" width="72.63" height="72.63" fill="#fefeff"/><polygon points="508.38,72.63 581.01,145.26 508.38,145.26" fill="#60ddff"/><rect x="581" y="72.625" width="72.625" height="72.625" fill="#ffffff"/><rect x="581" y="72.63" width="36.31" height="36.31" fill="#42d6ff"/><circle cx="599.155" cy="90.785" r="18.155" fill="#baf0ff"/><rect x="617.31" y="72.63" width="36.31" height="36.31" fill="#f5f7fe"/><rect x="617.31" y="72.63" width="36.31" height="36.31" fill="#b7efff"/><rect x="581" y="108.94" width="36.31" height="36.31" fill="#cbf4ff"/><circle cx="599.155" cy="127.095" r="18.155" fill="#6bdfff"/><rect x="617.31" y="108.94" width="36.31" height="36.31" fill="#c5f3ff"/><rect x="617.31" y="108.94" width="36.31" height="36.31" fill="#dfe5fb"/><rect x="653.625" y="72.625" width="72.625" height="72.625" fill="#ffffff"/><rect x="653.63" y="72.63" width="36.31" height="36.31" fill="#637eeb"/><path d="M 653.63 72.63 A 36.31 36.31 0 0 1 689.94 108.94 L 653.63 108.94" fill="#ebfbff"/><rect x="689.94" y="72.63" width="36.31" height="36.31" fill="#6de0ff"/><path d="M 689.94 108.94 A 36.31 36.31 0 0 1  726.25 72.63 L 726.25 108.94" fill="#c5f2ff"/><rect x="653.63" y="108.94" width="36.31" height="36.31" fill="#69dfff"/><path d="M 653.63 145.25 A 36.31 36.31 0 0 0 689.94 108.94 L 653.63 108.94" fill="#e0e5fb"/><rect x="689.94" y="108.94" width="36.31" height="36.31" fill="#8fa2f0"/><path d="M 689.94 108.94 A 36.31 36.31 0 0 0 726.25 145.25 L 726.25 108.94" fill="#62ddff"/><rect x="726.25" y="72.625" width="72.625" height="72.625" fill="#ffffff"/><rect x="726.25" y="72.63" width="36.31" height="36.31" fill="#3053e4"/><polygon points="762.56,72.63 762.56,108.94 726.25,108.94" fill="#3cd5ff"/><rect x="762.56" y="72.63" width="36.31" height="36.31" fill="#cad3f8"/><polygon points="762.56,72.63 798.8699999999999,72.63 762.56,108.94" fill="#e8faff"/><rect x="726.25" y="108.94" width="36.31" height="36.31" fill="#e7ebfc"/><polygon points="726.25,108.94 762.56,108.94 762.56,145.25" fill="#3759e5"/><rect x="762.56" y="108.94" width="36.31" height="36.31" fill="#607bea"/><polygon points="762.56,108.94 798.8699999999999,145.25 762.56,145.25" fill="#47d7ff"/><rect x="798.88" y="72.63" width="72.63" height="72.63" fill="#5471e9"/><rect x="798.88" y="72.63" width="72.63" height="72.63" fill="#4363e7"/><rect x="871.5" y="72.625" width="72.625" height="72.625" fill="#ffffff"/><rect x="871.5" y="72.63" width="36.31" height="36.31" fill="#4e6ce8"/><path d="M 871.5 72.63 A 36.31 36.31 0 0 1 907.81 108.94 L 871.5 108.94" fill="#d4dcf9"/><rect x="907.81" y="72.63" width="36.31" height="36.31" fill="#2b4fe3"/><path d="M 907.81 108.94 A 36.31 36.31 0 0 1  944.1199999999999 72.63 L 944.1199999999999 108.94" fill="#395ae5"/><rect x="871.5" y="108.94" width="36.31" height="36.31" fill="#5b77ea"/><path d="M 871.5 145.25 A 36.31 36.31 0 0 0 907.81 108.94 L 871.5 108.94" fill="#acedff"/><rect x="907.81" y="108.94" width="36.31" height="36.31" fill="#264be3"/><path d="M 907.81 108.94 A 36.31 36.31 0 0 0 944.1199999999999 145.25 L 944.1199999999999 108.94" fill="#a6b5f3"/><rect x="944.125" y="72.625" width="72.625" height="72.625" fill="#ffffff"/><rect x="944.13" y="72.63" width="36.31" height="36.31" fill="#8ca0f0"/><polygon points="980.44,72.63 980.44,108.94 944.13,108.94" fill="#39d4ff"/><rect x="980.44" y="72.63" width="36.31" height="36.31" fill="#7e94ee"/><polygon points="980.44,72.63 1016.75,72.63 980.44,108.94" fill="#83e4ff"/><rect x="944.13" y="108.94" width="36.31" height="36.31" fill="#4c6ae8"/><polygon points="944.13,108.94 980.44,108.94 980.44,145.25" fill="#5a76ea"/><rect x="980.44" y="108.94" width="36.31" height="36.31" fill="#d7defa"/><polygon points="980.44,108.94 1016.75,145.25 980.44,145.25" fill="#62ddff"/><rect x="1016.75" y="72.625" width="72.625" height="72.625" fill="#ffffff"/><rect x="1016.75" y="72.63" width="36.31" height="36.31" fill="#7b91ee"/><path d="M 1016.75 72.63 A 36.31 36.31 0 0 0 1053.06 108.94 L 1053.06 72.63" fill="#dae0fa"/><rect x="1053.06" y="72.63" width="36.31" height="36.31" fill="#7189ed"/><path d="M 1053.06 108.94 A 36.31 36.31 0 0 0 1089.37 72.63 L 1053.06 72.63" fill="#e8ecfc"/><rect x="1016.75" y="108.94" width="36.31" height="36.31" fill="#b1eeff"/><path d="M 1016.75 145.25 A 36.31 36.31 0 0 1  1053.06 108.94 L 1053.06 145.25" fill="#f5fdff"/><rect x="1053.06" y="108.94" width="36.31" height="36.31" fill="#d3dbf9"/><path d="M 1053.06 108.94 A 36.31 36.31 0 0 1 1089.37 145.25 L 1053.06 145.25" fill="#b7efff"/><rect x="1089.375" y="72.625" width="72.625" height="72.625" fill="#ffffff"/><rect x="1089.38" y="72.63" width="36.31" height="36.31" fill="#617ceb"/><path d="M 1089.38 108.94 A 36.31 36.31 0 0 1 1125.69 72.63 L 1125.69 81.7075 A 27.2325 27.2325 0 0 0 1098.4575000000002 108.94" fill="#c9d2f8"/><rect x="1125.69" y="72.63" width="36.31" height="36.31" fill="#274ce3"/><path d="M 1125.69 72.63 A 36.31 36.31 0 0 1 1162 108.94 L 1152.9225000000001 108.94 A 27.2325 27.2325 0 0 0 1125.69 81.7075" fill="#e5f9ff"/><rect x="1089.38" y="108.94" width="36.31" height="36.31" fill="#65deff"/><path d="M 1089.38 108.94 A 36.31 36.31 0 0 0 1125.69 145.25 L 1125.69 136.1725 A 27.2325 27.2325 0 0 1 1098.4575000000002 108.94" fill="#93a5f1"/><rect x="1125.69" y="108.94" width="36.31" height="36.31" fill="#48d8ff"/><path d="M 1125.69 145.25 A 36.31 36.31 0 0 0 1162 108.94 L 1152.9225000000001 108.94 A 27.2325 27.2325 0 0 1 1125.69 136.1725" fill="#a9b7f4"/><rect x="0" y="145.25" width="72.625" height="72.625" fill="#ffffff"/><rect x="0" y="145.25" width="36.31" height="36.31" fill="#43d6ff"/><path d="M 0 145.25 A 36.31 36.31 0 0 1 36.31 181.56 L 0 181.56" fill="#c5f3ff"/><rect x="36.31" y="145.25" width="36.31" height="36.31" fill="#a9ecff"/><path d="M 36.31 181.56 A 36.31 36.31 0 0 1  72.62 145.25 L 72.62 181.56" fill="#3cd5ff"/><rect x="0" y="181.56" width="36.31" height="36.31" fill="#4ad8ff"/><path d="M 0 217.87 A 36.31 36.31 0 0 0 36.31 181.56 L 0 181.56" fill="#99e9ff"/><rect x="36.31" y="181.56" width="36.31" height="36.31" fill="#38d4ff"/><path d="M 36.31 181.56 A 36.31 36.31 0 0 0 72.62 217.87 L 72.62 181.56" fill="#33d3ff"/><rect x="72.625" y="145.25" width="72.625" height="72.625" fill="#ffffff"/><rect x="72.63" y="145.25" width="36.31" height="36.31" fill="#67deff"/><polygon points="108.94,145.25 108.94,181.56 72.63,181.56" fill="#5cdcff"/><rect x="108.94" y="145.25" width="36.31" height="36.31" fill="#e2e7fb"/><polygon points="108.94,145.25 145.25,181.56 108.94,181.56" fill="#39d4ff"/><rect x="72.63" y="181.56" width="36.31" height="36.31" fill="#5572e9"/><polygon points="72.63,181.56 108.94,181.56 72.63,217.87" fill="#c9d2f8"/><rect x="108.94" y="181.56" width="36.31" height="36.31" fill="#a6ecff"/><polygon points="108.94,181.56 145.25,181.56 145.25,217.87" fill="#899df0"/><rect x="145.25" y="145.25" width="72.625" height="72.625" fill="#ffffff"/><rect x="145.25" y="145.25" width="36.31" height="36.31" fill="#aebcf5"/><path d="M 145.25 181.56 A 36.31 36.31 0 0 0 181.56 145.25 L 145.25 145.25" fill="#c6d0f8"/><rect x="181.56" y="145.25" width="36.31" height="36.31" fill="#e0f8ff"/><path d="M 181.56 145.25 A 36.31 36.31 0 0 0 217.87 181.56 L 217.87 145.25" fill="#effcff"/><rect x="145.25" y="181.56" width="36.31" height="36.31" fill="#284de3"/><path d="M 145.25 181.56 A 36.31 36.31 0 0 1 181.56 217.87 L 145.25 217.87" fill="#5c77ea"/><rect x="181.56" y="181.56" width="36.31" height="36.31" fill="#f4fdff"/><path d="M 181.56 217.87 A 36.31 36.31 0 0 1  217.87 181.56 L 217.87 217.87" fill="#1e44e2"/><rect x="217.88" y="145.25" width="72.63" height="72.63" fill="#5471e9"/><path d="M 217.88 217.88 A 72.63 72.63 0 0 0 290.51 145.25 L 217.88 145.25" fill="#d7defa"/><rect x="290.5" y="145.25" width="72.625" height="72.625" fill="#ffffff"/><rect x="290.5" y="145.25" width="36.31" height="36.31" fill="#5370e9"/><path d="M 290.5 181.56 A 36.31 36.31 0 0 1  326.81 145.25 L 326.81 181.56" fill="#f0fcff"/><rect x="326.81" y="145.25" width="36.31" height="36.31" fill="#a3b2f3"/><path d="M 326.81 145.25 A 36.31 36.31 0 0 1 363.12 181.56 L 326.81 181.56" fill="#c5cff7"/><rect x="290.5" y="181.56" width="36.31" height="36.31" fill="#bec9f7"/><path d="M 290.5 181.56 A 36.31 36.31 0 0 0 326.81 217.87 L 326.81 181.56" fill="#b6c2f6"/><rect x="326.81" y="181.56" width="36.31" height="36.31" fill="#99e9ff"/><path d="M 326.81 217.87 A 36.31 36.31 0 0 0 363.12 181.56 L 326.81 181.56" fill="#c0f1ff"/><rect x="363.13" y="145.25" width="72.63" height="72.63" fill="#cff5ff"/><polygon points="363.13,145.25 435.76,145.25 435.76,217.88" fill="#adedff"/><rect x="435.75" y="145.25" width="72.625" height="72.625" fill="#ffffff"/><rect x="435.75" y="145.25" width="36.31" height="36.31" fill="#e5f9ff"/><polygon points="472.06,145.25 472.06,181.56 435.75,181.56" fill="#d4f6ff"/><rect x="472.06" y="145.25" width="36.31" height="36.31" fill="#4665e7"/><polygon points="472.06,145.25 508.37,181.56 472.06,181.56" fill="#9eeaff"/><rect x="435.75" y="181.56" width="36.31" height="36.31" fill="#e1f8ff"/><polygon points="435.75,181.56 472.06,181.56 472.06,217.87" fill="#85e5ff"/><rect x="472.06" y="181.56" width="36.31" height="36.31" fill="#9dadf2"/><polygon points="472.06,181.56 508.37,181.56 472.06,217.87" fill="#b8c4f6"/><rect x="508.375" y="145.25" width="72.625" height="72.625" fill="#ffffff"/><rect x="508.38" y="145.25" width="36.31" height="36.31" fill="#e2f9ff"/><polygon points="544.69,145.25 544.69,181.56 508.38,181.56" fill="#a0ebff"/><rect x="544.69" y="145.25" width="36.31" height="36.31" fill="#9be9ff"/><polygon points="544.69,145.25 581,145.25 544.69,181.56" fill="#fdfdff"/><rect x="508.38" y="181.56" width="36.31" height="36.31" fill="#aaedff"/><polygon points="508.38,181.56 544.69,181.56 544.69,217.87" fill="#8095ee"/><rect x="544.69" y="181.56" width="36.31" height="36.31" fill="#5d79ea"/><polygon points="544.69,181.56 581,217.87 544.69,217.87" fill="#c8f3ff"/><rect x="581" y="145.25" width="72.63" height="72.63" fill="#6e86ec"/><polygon points="581,145.25 653.63,145.25 653.63,217.88" fill="#38d4ff"/><rect x="653.63" y="145.25" width="72.63" height="72.63" fill="#526fe9"/><path d="M 653.63 217.88 A 72.63 72.63 0 0 0 726.26 145.25 L 653.63 145.25" fill="#c1cbf7"/><rect x="726.25" y="145.25" width="72.625" height="72.625" fill="#ffffff"/><rect x="726.25" y="145.25" width="36.31" height="36.31" fill="#afbcf5"/><polygon points="762.56,145.25 762.56,181.56 726.25,181.56" fill="#c8f3ff"/><rect x="762.56" y="145.25" width="36.31" height="36.31" fill="#7ce3ff"/><polygon points="762.56,145.25 798.8699999999999,181.56 762.56,181.56" fill="#acbaf4"/><rect x="726.25" y="181.56" width="36.31" height="36.31" fill="#e7faff"/><polygon points="726.25,181.56 762.56,181.56 726.25,217.87" fill="#5571e9"/><rect x="762.56" y="181.56" width="36.31" height="36.31" fill="#5672e9"/><polygon points="762.56,181.56 798.8699999999999,181.56 798.8699999999999,217.87" fill="#3bd5ff"/><rect x="798.88" y="145.25" width="72.63" height="72.63" fill="#b3c0f5"/><polygon points="798.88,145.25 871.51,145.25 871.51,217.88" fill="#abb9f4"/><rect x="871.5" y="145.25" width="72.63" height="72.63" fill="#84e5ff"/><polygon points="871.5,145.25 944.13,145.25 944.13,217.88" fill="#3557e5"/><rect x="944.13" y="145.25" width="72.63" height="72.63" fill="#b0eeff"/><polygon points="944.13,145.25 1016.76,145.25 1016.76,217.88" fill="#889cf0"/><rect x="1016.75" y="145.25" width="72.63" height="72.63" fill="#7c92ee"/><path d="M 1016.75 217.88 A 72.63 72.63 0 0 1  1089.38 145.25 L 1016.75 217.88 A 72.63 72.63 0 0 0 1089.38 145.25" fill="#98a9f2"/><rect x="1089.375" y="145.25" width="72.625" height="72.625" fill="#ffffff"/><rect x="1089.38" y="145.25" width="36.31" height="36.31" fill="#54daff"/><polygon points="1125.69,145.25 1125.69,181.56 1089.38,181.56" fill="#fafeff"/><rect x="1125.69" y="145.25" width="36.31" height="36.31" fill="#bdc8f6"/><polygon points="1125.69,145.25 1162,181.56 1125.69,181.56" fill="#cfd7f9"/><rect x="1089.38" y="181.56" width="36.31" height="36.31" fill="#ecfbff"/><polygon points="1089.38,181.56 1125.69,181.56 1125.69,217.87" fill="#e9edfc"/><rect x="1125.69" y="181.56" width="36.31" height="36.31" fill="#5672e9"/><polygon points="1125.69,181.56 1162,181.56 1125.69,217.87" fill="#9daef2"/><rect x="0" y="217.88" width="72.63" height="72.63" fill="#d9dffa"/><rect x="0" y="217.88" width="72.63" height="72.63" fill="#a8b7f4"/><rect x="72.63" y="217.88" width="72.63" height="72.63" fill="#9eaff2"/><polygon points="72.63,217.88 145.26,217.88 145.26,290.51" fill="#d4dbf9"/><rect x="145.25" y="217.875" width="72.625" height="72.625" fill="#ffffff"/><rect x="145.25" y="217.88" width="36.31" height="36.31" fill="#5edcff"/><path d="M 145.25 217.88 A 36.31 36.31 0 0 1 181.56 254.19 L 145.25 254.19" fill="#a9b7f4"/><rect x="181.56" y="217.88" width="36.31" height="36.31" fill="#e8faff"/><path d="M 181.56 254.19 A 36.31 36.31 0 0 1  217.87 217.88 L 217.87 254.19" fill="#5bdcff"/><rect x="145.25" y="254.19" width="36.31" height="36.31" fill="#f1fcff"/><path d="M 145.25 290.5 A 36.31 36.31 0 0 0 181.56 254.19 L 145.25 254.19" fill="#4ad8ff"/><rect x="181.56" y="254.19" width="36.31" height="36.31" fill="#bbc7f6"/><path d="M 181.56 254.19 A 36.31 36.31 0 0 0 217.87 290.5 L 217.87 254.19" fill="#738bed"/><rect x="217.875" y="217.875" width="72.625" height="72.625" fill="#ffffff"/><rect x="217.88" y="217.88" width="36.31" height="36.31" fill="#8095ee"/><path d="M 217.88 254.19 A 36.31 36.31 0 0 1 254.19 217.88 L 254.19 226.95749999999998 A 27.2325 27.2325 0 0 0 226.95749999999998 254.19" fill="#f1fcff"/><rect x="254.19" y="217.88" width="36.31" height="36.31" fill="#c9f3ff"/><path d="M 254.19 217.88 A 36.31 36.31 0 0 1 290.5 254.19 L 281.4225 254.19 A 27.2325 27.2325 0 0 0 254.19 226.95749999999998" fill="#fbfeff"/><rect x="217.88" y="254.19" width="36.31" height="36.31" fill="#88e5ff"/><path d="M 217.88 254.19 A 36.31 36.31 0 0 0 254.19 290.5 L 254.19 281.4225 A 27.2325 27.2325 0 0 1 226.95749999999998 254.19" fill="#e0f8ff"/><rect x="254.19" y="254.19" width="36.31" height="36.31" fill="#52daff"/><path d="M 254.19 290.5 A 36.31 36.31 0 0 0 290.5 254.19 L 281.4225 254.19 A 27.2325 27.2325 0 0 1 254.19 281.4225" fill="#7fe3ff"/><rect x="290.5" y="217.875" width="72.625" height="72.625" fill="#ffffff"/><rect x="290.5" y="217.88" width="36.31" height="36.31" fill="#dee4fb"/><path d="M 290.5 217.88 A 36.31 36.31 0 0 1 326.81 254.19 L 290.5 254.19" fill="#2a4ee3"/><rect x="326.81" y="217.88" width="36.31" height="36.31" fill="#fcfdff"/><path d="M 326.81 254.19 A 36.31 36.31 0 0 1  363.12 217.88 L 363.12 254.19" fill="#284ce3"/><rect x="290.5" y="254.19" width="36.31" height="36.31" fill="#b3efff"/><path d="M 290.5 290.5 A 36.31 36.31 0 0 0 326.81 254.19 L 290.5 254.19" fill="#9faff3"/><rect x="326.81" y="254.19" width="36.31" height="36.31" fill="#5b77ea"/><path d="M 326.81 254.19 A 36.31 36.31 0 0 0 363.12 290.5 L 363.12 254.19" fill="#3e5fe6"/><rect x="363.13" y="217.88" width="72.63" height="72.63" fill="#9eaff2"/><polygon points="363.13,217.88 435.76,217.88 435.76,290.51" fill="#bdc8f6"/><rect x="435.75" y="217.875" width="72.625" height="72.625" fill="#ffffff"/><rect x="435.75" y="217.88" width="36.31" height="36.31" fill="#eefbff"/><path d="M 435.75 254.19 A 36.31 36.31 0 0 1  472.06 217.88 L 472.06 254.19" fill="#5a76ea"/><rect x="472.06" y="217.88" width="36.31" height="36.31" fill="#7ce3ff"/><path d="M 472.06 217.88 A 36.31 36.31 0 0 1 508.37 254.19 L 472.06 254.19" fill="#6ee0ff"/><rect x="435.75" y="254.19" width="36.31" height="36.31" fill="#f3fcff"/><path d="M 435.75 254.19 A 36.31 36.31 0 0 0 472.06 290.5 L 472.06 254.19" fill="#fbfcfe"/><rect x="472.06" y="254.19" width="36.31" height="36.31" fill="#ccf4ff"/><path d="M 472.06 290.5 A 36.31 36.31 0 0 0 508.37 254.19 L 472.06 254.19" fill="#3ad4ff"/><rect x="508.38" y="217.88" width="72.63" height="72.63" fill="#4e6ce8"/><path d="M 508.38 290.51 A 72.63 72.63 0 0 1  581.01 217.88 L 581.01 290.51" fill="#d4f6ff"/><rect x="581" y="217.875" width="72.625" height="72.625" fill="#ffffff"/><rect x="581" y="217.88" width="36.31" height="36.31" fill="#3ed5ff"/><polygon points="617.31,217.88 617.31,254.19 581,254.19" fill="#93a5f1"/><rect x="617.31" y="217.88" width="36.31" height="36.31" fill="#6cdfff"/><polygon points="617.31,217.88 653.6199999999999,217.88 617.31,254.19" fill="#4867e7"/><rect x="581" y="254.19" width="36.31" height="36.31" fill="#97e9ff"/><polygon points="581,254.19 617.31,254.19 617.31,290.5" fill="#d1d9f9"/><rect x="617.31" y="254.19" width="36.31" height="36.31" fill="#f2fcff"/><polygon points="617.31,254.19 653.6199999999999,290.5 617.31,290.5" fill="#c5cff8"/><rect x="653.63" y="217.88" width="72.63" height="72.63" fill="#36d4ff"/><path d="M 653.63 290.51 A 72.63 72.63 0 0 1  726.26 217.88 L 726.26 290.51" fill="#ccf4ff"/><rect x="726.25" y="217.875" width="72.625" height="72.625" fill="#ffffff"/><rect x="726.25" y="217.88" width="36.31" height="36.31" fill="#3ad4ff"/><path d="M 726.25 254.19 A 36.31 36.31 0 0 1  762.56 217.88 L 762.56 254.19" fill="#8599ef"/><rect x="762.56" y="217.88" width="36.31" height="36.31" fill="#8da1f0"/><path d="M 762.56 217.88 A 36.31 36.31 0 0 1 798.8699999999999 254.19 L 762.56 254.19" fill="#eafaff"/><rect x="726.25" y="254.19" width="36.31" height="36.31" fill="#34d3ff"/><path d="M 726.25 254.19 A 36.31 36.31 0 0 0 762.56 290.5 L 762.56 254.19" fill="#43d6ff"/><rect x="762.56" y="254.19" width="36.31" height="36.31" fill="#e2e7fb"/><path d="M 762.56 290.5 A 36.31 36.31 0 0 0 798.8699999999999 254.19 L 762.56 254.19" fill="#9deaff"/><rect x="798.875" y="217.875" width="72.625" height="72.625" fill="#ffffff"/><rect x="798.88" y="217.88" width="36.31" height="36.31" fill="#adedff"/><polygon points="835.19,217.88 835.19,254.19 798.88,254.19" fill="#e8faff"/><rect x="835.19" y="217.88" width="36.31" height="36.31" fill="#39d4ff"/><polygon points="835.19,217.88 871.5,254.19 835.19,254.19" fill="#b9f0ff"/><rect x="798.88" y="254.19" width="36.31" height="36.31" fill="#84e4ff"/><polygon points="798.88,254.19 835.19,254.19 798.88,290.5" fill="#dde3fb"/><rect x="835.19" y="254.19" width="36.31" height="36.31" fill="#e1e6fb"/><polygon points="835.19,254.19 871.5,254.19 871.5,290.5" fill="#e4f9ff"/><rect x="871.5" y="217.875" width="72.625" height="72.625" fill="#ffffff"/><rect x="871.5" y="217.88" width="36.31" height="36.31" fill="#d9f7ff"/><path d="M 871.5 254.19 A 36.31 36.31 0 0 1  907.81 217.88 L 907.81 254.19" fill="#647eeb"/><rect x="907.81" y="217.88" width="36.31" height="36.31" fill="#3e5fe6"/><path d="M 907.81 217.88 A 36.31 36.31 0 0 1 944.1199999999999 254.19 L 907.81 254.19" fill="#758ced"/><rect x="871.5" y="254.19" width="36.31" height="36.31" fill="#4463e7"/><path d="M 871.5 254.19 A 36.31 36.31 0 0 0 907.81 290.5 L 907.81 254.19" fill="#84e5ff"/><rect x="907.81" y="254.19" width="36.31" height="36.31" fill="#7b91ee"/><path d="M 907.81 290.5 A 36.31 36.31 0 0 0 944.1199999999999 254.19 L 907.81 254.19" fill="#c1f2ff"/><rect x="944.13" y="217.88" width="72.63" height="72.63" fill="#97a9f2"/><rect x="944.13" y="217.88" width="72.63" height="72.63" fill="#60ddff"/><rect x="1016.75" y="217.875" width="72.625" height="72.625" fill="#ffffff"/><rect x="1016.75" y="217.88" width="36.31" height="36.31" fill="#4666e7"/><circle cx="1034.905" cy="236.035" r="18.155" fill="#e9faff"/><rect x="1053.06" y="217.88" width="36.31" height="36.31" fill="#e2e7fb"/><rect x="1053.06" y="217.88" width="36.31" height="36.31" fill="#b6c2f5"/><rect x="1016.75" y="254.19" width="36.31" height="36.31" fill="#e7faff"/><circle cx="1034.905" cy="272.345" r="18.155" fill="#91a4f1"/><rect x="1053.06" y="254.19" width="36.31" height="36.31" fill="#93e8ff"/><rect x="1053.06" y="254.19" width="36.31" height="36.31" fill="#7be3ff"/><rect x="1089.38" y="217.88" width="72.63" height="72.63" fill="#c4f2ff"/><rect x="1089.38" y="217.88" width="72.63" height="72.63" fill="#64deff"/><rect x="0" y="290.5" width="72.63" height="72.63" fill="#4766e7"/><rect x="0" y="290.5" width="72.63" height="72.63" fill="#57dbff"/><rect x="72.625" y="290.5" width="72.625" height="72.625" fill="#ffffff"/><rect x="72.63" y="290.5" width="36.31" height="36.31" fill="#66deff"/><circle cx="90.785" cy="308.655" r="18.155" fill="#a5b4f3"/><rect x="108.94" y="290.5" width="36.31" height="36.31" fill="#9eaef2"/><rect x="108.94" y="290.5" width="36.31" height="36.31" fill="#74e1ff"/><rect x="72.63" y="326.81" width="36.31" height="36.31" fill="#a0eaff"/><circle cx="90.785" cy="344.96500000000003" r="18.155" fill="#67deff"/><rect x="108.94" y="326.81" width="36.31" height="36.31" fill="#fdffff"/><rect x="108.94" y="326.81" width="36.31" height="36.31" fill="#c9d2f8"/><rect x="145.25" y="290.5" width="72.63" height="72.63" fill="#60ddff"/><rect x="145.25" y="290.5" width="72.63" height="72.63" fill="#f8feff"/><rect x="217.88" y="290.5" width="72.63" height="72.63" fill="#acedff"/><path d="M 217.88 363.13 A 72.63 72.63 0 0 1  290.51 290.5 L 290.51 363.13" fill="#80e4ff"/><rect x="290.5" y="290.5" width="72.625" height="72.625" fill="#ffffff"/><rect x="290.5" y="290.5" width="36.31" height="36.31" fill="#74e1ff"/><path d="M 290.5 290.5 A 36.31 36.31 0 0 0 326.81 326.81 L 326.81 290.5" fill="#ffffff"/><rect x="326.81" y="290.5" width="36.31" height="36.31" fill="#9cacf2"/><path d="M 326.81 326.81 A 36.31 36.31 0 0 0 363.12 290.5 L 326.81 290.5" fill="#76e1ff"/><rect x="290.5" y="326.81" width="36.31" height="36.31" fill="#58dbff"/><path d="M 290.5 363.12 A 36.31 36.31 0 0 1  326.81 326.81 L 326.81 363.12" fill="#f7fdff"/><rect x="326.81" y="326.81" width="36.31" height="36.31" fill="#c3cdf7"/><path d="M 326.81 326.81 A 36.31 36.31 0 0 1 363.12 363.12 L 326.81 363.12" fill="#4a69e8"/><rect x="363.125" y="290.5" width="72.625" height="72.625" fill="#ffffff"/><rect x="363.13" y="290.5" width="36.31" height="36.31" fill="#f3fcff"/><path d="M 363.13 290.5 A 36.31 36.31 0 0 0 399.44 326.81 L 399.44 290.5" fill="#48d7ff"/><rect x="399.44" y="290.5" width="36.31" height="36.31" fill="#41d6ff"/><path d="M 399.44 326.81 A 36.31 36.31 0 0 0 435.75 290.5 L 399.44 290.5" fill="#d9dffa"/><rect x="363.13" y="326.81" width="36.31" height="36.31" fill="#bdc8f6"/><path d="M 363.13 363.12 A 36.31 36.31 0 0 1  399.44 326.81 L 399.44 363.12" fill="#5572e9"/><rect x="399.44" y="326.81" width="36.31" height="36.31" fill="#e5eafc"/><path d="M 399.44 326.81 A 36.31 36.31 0 0 1 435.75 363.12 L 399.44 363.12" fill="#ecfbff"/><rect x="435.75" y="290.5" width="72.63" height="72.63" fill="#3154e4"/><rect x="435.75" y="290.5" width="72.63" height="72.63" fill="#d0f5ff"/><rect x="508.38" y="290.5" width="72.63" height="72.63" fill="#56daff"/><rect x="508.38" y="290.5" width="72.63" height="72.63" fill="#ffffff"/><rect x="581" y="290.5" width="72.63" height="72.63" fill="#70e0ff"/><rect x="581" y="290.5" width="72.63" height="72.63" fill="#f6fdff"/><rect x="653.63" y="290.5" width="72.63" height="72.63" fill="#5ddcff"/><polygon points="653.63,290.5 726.26,363.13 653.63,363.13" fill="#5270e9"/><rect x="726.25" y="290.5" width="72.63" height="72.63" fill="#f3f5fd"/><path d="M 726.25 363.13 A 72.63 72.63 0 0 1  798.88 290.5 L 726.25 363.13 A 72.63 72.63 0 0 0 798.88 290.5" fill="#f5fdff"/><rect x="798.875" y="290.5" width="72.625" height="72.625" fill="#ffffff"/><rect x="798.88" y="290.5" width="36.31" height="36.31" fill="#d4f6ff"/><path d="M 798.88 326.81 A 36.31 36.31 0 0 1  835.19 290.5 L 835.19 326.81" fill="#4867e7"/><rect x="835.19" y="290.5" width="36.31" height="36.31" fill="#92e7ff"/><path d="M 835.19 290.5 A 36.31 36.31 0 0 1 871.5 326.81 L 835.19 326.81" fill="#8ee7ff"/><rect x="798.88" y="326.81" width="36.31" height="36.31" fill="#c4f2ff"/><path d="M 798.88 326.81 A 36.31 36.31 0 0 0 835.19 363.12 L 835.19 326.81" fill="#a0b0f3"/><rect x="835.19" y="326.81" width="36.31" height="36.31" fill="#fefeff"/><path d="M 835.19 363.12 A 36.31 36.31 0 0 0 871.5 326.81 L 835.19 326.81" fill="#e2f9ff"/><rect x="871.5" y="290.5" width="72.625" height="72.625" fill="#ffffff"/><rect x="871.5" y="290.5" width="36.31" height="36.31" fill="#6cdfff"/><path d="M 871.5 290.5 A 36.31 36.31 0 0 1 907.81 326.81 L 871.5 326.81" fill="#cdd6f9"/><rect x="907.81" y="290.5" width="36.31" height="36.31" fill="#506ee8"/><path d="M 907.81 326.81 A 36.31 36.31 0 0 1  944.1199999999999 290.5 L 944.1199999999999 326.81" fill="#aab8f4"/><rect x="871.5" y="326.81" width="36.31" height="36.31" fill="#6bdfff"/><path d="M 871.5 363.12 A 36.31 36.31 0 0 0 907.81 326.81 L 871.5 326.81" fill="#6d85ec"/><rect x="907.81" y="326.81" width="36.31" height="36.31" fill="#f6fdff"/><path d="M 907.81 326.81 A 36.31 36.31 0 0 0 944.1199999999999 363.12 L 944.1199999999999 326.81" fill="#8ce6ff"/><rect x="944.13" y="290.5" width="72.63" height="72.63" fill="#f0f3fd"/><rect x="944.13" y="290.5" width="72.63" height="72.63" fill="#b3efff"/><rect x="1016.75" y="290.5" width="72.63" height="72.63" fill="#72e1ff"/><rect x="1016.75" y="290.5" width="72.63" height="72.63" fill="#395ae5"/><rect x="1089.375" y="290.5" width="72.625" height="72.625" fill="#ffffff"/><rect x="1089.38" y="290.5" width="36.31" height="36.31" fill="#99aaf2"/><path d="M 1089.38 290.5 A 36.31 36.31 0 0 0 1125.69 326.81 L 1125.69 290.5" fill="#77e2ff"/><rect x="1125.69" y="290.5" width="36.31" height="36.31" fill="#b0eeff"/><path d="M 1125.69 326.81 A 36.31 36.31 0 0 0 1162 290.5 L 1125.69 290.5" fill="#dcf7ff"/><rect x="1089.38" y="326.81" width="36.31" height="36.31" fill="#78e2ff"/><path d="M 1089.38 363.12 A 36.31 36.31 0 0 1  1125.69 326.81 L 1125.69 363.12" fill="#d0d8f9"/><rect x="1125.69" y="326.81" width="36.31" height="36.31" fill="#ced6f9"/><path d="M 1125.69 326.81 A 36.31 36.31 0 0 1 1162 363.12 L 1125.69 363.12" fill="#506ee8"/><rect x="0" y="363.13" width="72.63" height="72.63" fill="#4161e6"/><polygon points="0,363.13 72.63,363.13 0,435.76" fill="#fcfeff"/><rect x="72.63" y="363.13" width="72.63" height="72.63" fill="#58dbff"/><path d="M 72.63 435.76 A 72.63 72.63 0 0 1  145.26 363.13 L 145.26 435.76" fill="#fbfcff"/><rect x="145.25" y="363.125" width="72.625" height="72.625" fill="#ffffff"/><rect x="145.25" y="363.13" width="36.31" height="36.31" fill="#fafbfe"/><polygon points="181.56,363.13 181.56,399.44 145.25,399.44" fill="#acedff"/><rect x="181.56" y="363.13" width="36.31" height="36.31" fill="#6881eb"/><polygon points="181.56,363.13 217.87,399.44 181.56,399.44" fill="#dae0fa"/><rect x="145.25" y="399.44" width="36.31" height="36.31" fill="#d8dffa"/><polygon points="145.25,399.44 181.56,399.44 145.25,435.75" fill="#8be6ff"/><rect x="181.56" y="399.44" width="36.31" height="36.31" fill="#c0f1ff"/><polygon points="181.56,399.44 217.87,399.44 217.87,435.75" fill="#9eeaff"/><rect x="217.875" y="363.125" width="72.625" height="72.625" fill="#ffffff"/><rect x="217.88" y="363.13" width="36.31" height="36.31" fill="#84e5ff"/><polygon points="254.19,363.13 254.19,399.44 217.88,399.44" fill="#8be6ff"/><rect x="254.19" y="363.13" width="36.31" height="36.31" fill="#bec9f7"/><polygon points="254.19,363.13 290.5,399.44 254.19,399.44" fill="#e0e5fb"/><rect x="217.88" y="399.44" width="36.31" height="36.31" fill="#95e8ff"/><polygon points="217.88,399.44 254.19,399.44 254.19,435.75" fill="#cbd4f8"/><rect x="254.19" y="399.44" width="36.31" height="36.31" fill="#d1d9f9"/><polygon points="254.19,399.44 290.5,399.44 254.19,435.75" fill="#647eeb"/><rect x="290.5" y="363.125" width="72.625" height="72.625" fill="#ffffff"/><rect x="290.5" y="363.13" width="36.31" height="36.31" fill="#7e94ee"/><path d="M 290.5 399.44 A 36.31 36.31 0 0 1 326.81 363.13 L 326.81 372.2075 A 27.2325 27.2325 0 0 0 299.5775 399.44" fill="#879cef"/><rect x="326.81" y="363.13" width="36.31" height="36.31" fill="#284ce3"/><path d="M 326.81 363.13 A 36.31 36.31 0 0 1 363.12 399.44 L 354.0425 399.44 A 27.2325 27.2325 0 0 0 326.81 372.2075" fill="#dfe5fb"/><rect x="290.5" y="399.44" width="36.31" height="36.31" fill="#63ddff"/><path d="M 290.5 399.44 A 36.31 36.31 0 0 0 326.81 435.75 L 326.81 426.6725 A 27.2325 27.2325 0 0 1 299.5775 399.44" fill="#607bea"/><rect x="326.81" y="399.44" width="36.31" height="36.31" fill="#bec9f7"/><path d="M 326.81 435.75 A 36.31 36.31 0 0 0 363.12 399.44 L 354.0425 399.44 A 27.2325 27.2325 0 0 1 326.81 426.6725" fill="#869bef"/><rect x="363.13" y="363.13" width="72.63" height="72.63" fill="#72e1ff"/><rect x="363.13" y="363.13" width="72.63" height="72.63" fill="#eff1fd"/><rect x="435.75" y="363.125" width="72.625" height="72.625" fill="#ffffff"/><rect x="435.75" y="363.13" width="36.31" height="36.31" fill="#a6b5f3"/><path d="M 435.75 399.44 A 36.31 36.31 0 0 0 472.06 363.13 L 435.75 363.13" fill="#b2eeff"/><rect x="472.06" y="363.13" width="36.31" height="36.31" fill="#6680eb"/><path d="M 472.06 363.13 A 36.31 36.31 0 0 0 508.37 399.44 L 508.37 363.13" fill="#44d7ff"/><rect x="435.75" y="399.44" width="36.31" height="36.31" fill="#e5e9fc"/><path d="M 435.75 399.44 A 36.31 36.31 0 0 1 472.06 435.75 L 435.75 435.75" fill="#4cd8ff"/><rect x="472.06" y="399.44" width="36.31" height="36.31" fill="#46d7ff"/><path d="M 472.06 435.75 A 36.31 36.31 0 0 1  508.37 399.44 L 508.37 435.75" fill="#60ddff"/><rect x="508.375" y="363.125" width="72.625" height="72.625" fill="#ffffff"/><rect x="508.38" y="363.13" width="36.31" height="36.31" fill="#94e8ff"/><path d="M 508.38 363.13 A 36.31 36.31 0 0 1 544.69 399.44 L 508.38 399.44" fill="#f1f4fd"/><rect x="544.69" y="363.13" width="36.31" height="36.31" fill="#d2d9f9"/><path d="M 544.69 399.44 A 36.31 36.31 0 0 1  581 363.13 L 581 399.44" fill="#53daff"/><rect x="508.38" y="399.44" width="36.31" height="36.31" fill="#47d7ff"/><path d="M 508.38 435.75 A 36.31 36.31 0 0 0 544.69 399.44 L 508.38 399.44" fill="#5ddcff"/><rect x="544.69" y="399.44" width="36.31" height="36.31" fill="#ffffff"/><path d="M 544.69 399.44 A 36.31 36.31 0 0 0 581 435.75 L 581 399.44" fill="#5d78ea"/><rect x="581" y="363.13" width="72.63" height="72.63" fill="#8ce6ff"/><rect x="581" y="363.13" width="72.63" height="72.63" fill="#79e2ff"/><rect x="653.63" y="363.13" width="72.63" height="72.63" fill="#2c4fe4"/><rect x="653.63" y="363.13" width="72.63" height="72.63" fill="#bff1ff"/><rect x="726.25" y="363.13" width="72.63" height="72.63" fill="#bcc7f6"/><path d="M 726.25 363.13 A 72.63 72.63 0 0 1  798.88 435.76 L 726.25 363.13 A 72.63 72.63 0 0 0 798.88 435.76" fill="#f0fcff"/><rect x="798.875" y="363.125" width="72.625" height="72.625" fill="#ffffff"/><rect x="798.88" y="363.13" width="36.31" height="36.31" fill="#f1f3fd"/><circle cx="817.035" cy="381.28499999999997" r="18.155" fill="#dae0fa"/><rect x="835.19" y="363.13" width="36.31" height="36.31" fill="#c6f3ff"/><rect x="835.19" y="363.13" width="36.31" height="36.31" fill="#eafbff"/><rect x="798.88" y="399.44" width="36.31" height="36.31" fill="#9aabf2"/><circle cx="817.035" cy="417.595" r="18.155" fill="#89e6ff"/><rect x="835.19" y="399.44" width="36.31" height="36.31" fill="#edf0fd"/><rect x="835.19" y="399.44" width="36.31" height="36.31" fill="#2549e3"/><rect x="871.5" y="363.125" width="72.625" height="72.625" fill="#ffffff"/><rect x="871.5" y="363.13" width="36.31" height="36.31" fill="#f4fdff"/><path d="M 871.5 399.44 A 36.31 36.31 0 0 0 907.81 363.13 L 871.5 363.13" fill="#6cdfff"/><rect x="907.81" y="363.13" width="36.31" height="36.31" fill="#e4f9ff"/><path d="M 907.81 363.13 A 36.31 36.31 0 0 0 944.1199999999999 399.44 L 944.1199999999999 363.13" fill="#4fd9ff"/><rect x="871.5" y="399.44" width="36.31" height="36.31" fill="#f7f8fe"/><path d="M 871.5 399.44 A 36.31 36.31 0 0 1 907.81 435.75 L 871.5 435.75" fill="#2247e2"/><rect x="907.81" y="399.44" width="36.31" height="36.31" fill="#dbf7ff"/><path d="M 907.81 435.75 A 36.31 36.31 0 0 1  944.1199999999999 399.44 L 944.1199999999999 435.75" fill="#6982eb"/><rect x="944.13" y="363.13" width="72.63" height="72.63" fill="#50d9ff"/><rect x="944.13" y="363.13" width="72.63" height="72.63" fill="#bbf0ff"/><rect x="1016.75" y="363.125" width="72.625" height="72.625" fill="#ffffff"/><rect x="1016.75" y="363.13" width="36.31" height="36.31" fill="#d1f5ff"/><path d="M 1016.75 363.13 A 36.31 36.31 0 0 1 1053.06 399.44 L 1016.75 399.44" fill="#7ce3ff"/><rect x="1053.06" y="363.13" width="36.31" height="36.31" fill="#5f7aea"/><path d="M 1053.06 399.44 A 36.31 36.31 0 0 1  1089.37 363.13 L 1089.37 399.44" fill="#b2eeff"/><rect x="1016.75" y="399.44" width="36.31" height="36.31" fill="#c1f2ff"/><path d="M 1016.75 435.75 A 36.31 36.31 0 0 0 1053.06 399.44 L 1016.75 399.44" fill="#4968e7"/><rect x="1053.06" y="399.44" width="36.31" height="36.31" fill="#afeeff"/><path d="M 1053.06 399.44 A 36.31 36.31 0 0 0 1089.37 435.75 L 1089.37 399.44" fill="#7fe3ff"/><rect x="1089.375" y="363.125" width="72.625" height="72.625" fill="#ffffff"/><rect x="1089.38" y="363.13" width="36.31" height="36.31" fill="#62ddff"/><polygon points="1125.69,363.13 1125.69,399.44 1089.38,399.44" fill="#b4c1f5"/><rect x="1125.69" y="363.13" width="36.31" height="36.31" fill="#778eed"/><polygon points="1125.69,363.13 1162,363.13 1125.69,399.44" fill="#3e5fe6"/><rect x="1089.38" y="399.44" width="36.31" height="36.31" fill="#e8ecfc"/><polygon points="1089.38,399.44 1125.69,399.44 1125.69,435.75" fill="#4fd9ff"/><rect x="1125.69" y="399.44" width="36.31" height="36.31" fill="#a3ebff"/><polygon points="1125.69,399.44 1162,435.75 1125.69,435.75" fill="#5fddff"/><rect x="0" y="435.75" width="72.625" height="72.625" fill="#ffffff"/><rect x="0" y="435.75" width="36.31" height="36.31" fill="#41d6ff"/><path d="M 0 435.75 A 36.31 36.31 0 0 1 36.31 472.06 L 0 472.06" fill="#cbd4f8"/><rect x="36.31" y="435.75" width="36.31" height="36.31" fill="#bcc8f6"/><path d="M 36.31 472.06 A 36.31 36.31 0 0 1  72.62 435.75 L 72.62 472.06" fill="#62ddff"/><rect x="0" y="472.06" width="36.31" height="36.31" fill="#d9f7ff"/><path d="M 0 508.37 A 36.31 36.31 0 0 0 36.31 472.06 L 0 472.06" fill="#bfcaf7"/><rect x="36.31" y="472.06" width="36.31" height="36.31" fill="#b4c1f5"/><path d="M 36.31 472.06 A 36.31 36.31 0 0 0 72.62 508.37 L 72.62 472.06" fill="#dae0fa"/><rect x="72.63" y="435.75" width="72.63" height="72.63" fill="#3456e5"/><polygon points="72.63,435.75 145.26,435.75 145.26,508.38" fill="#5e79ea"/><rect x="145.25" y="435.75" width="72.63" height="72.63" fill="#2c50e4"/><polygon points="145.25,435.75 217.88,435.75 145.25,508.38" fill="#657feb"/><rect x="217.875" y="435.75" width="72.625" height="72.625" fill="#ffffff"/><rect x="217.88" y="435.75" width="36.31" height="36.31" fill="#e3e8fb"/><path d="M 217.88 472.06 A 36.31 36.31 0 0 1 254.19 435.75 L 254.19 444.8275 A 27.2325 27.2325 0 0 0 226.95749999999998 472.06" fill="#183fe1"/><rect x="254.19" y="435.75" width="36.31" height="36.31" fill="#7b91ee"/><path d="M 254.19 435.75 A 36.31 36.31 0 0 1 290.5 472.06 L 281.4225 472.06 A 27.2325 27.2325 0 0 0 254.19 444.8275" fill="#657feb"/><rect x="217.88" y="472.06" width="36.31" height="36.31" fill="#95e8ff"/><path d="M 217.88 472.06 A 36.31 36.31 0 0 0 254.19 508.37 L 254.19 499.2925 A 27.2325 27.2325 0 0 1 226.95749999999998 472.06" fill="#95e8ff"/><rect x="254.19" y="472.06" width="36.31" height="36.31" fill="#6adfff"/><path d="M 254.19 508.37 A 36.31 36.31 0 0 0 290.5 472.06 L 281.4225 472.06 A 27.2325 27.2325 0 0 1 254.19 499.2925" fill="#5370e9"/><rect x="290.5" y="435.75" width="72.625" height="72.625" fill="#ffffff"/><rect x="290.5" y="435.75" width="36.31" height="36.31" fill="#4867e7"/><polygon points="326.81,435.75 326.81,472.06 290.5,472.06" fill="#c1ccf7"/><rect x="326.81" y="435.75" width="36.31" height="36.31" fill="#a1b1f3"/><polygon points="326.81,435.75 363.12,472.06 326.81,472.06" fill="#4b69e8"/><rect x="290.5" y="472.06" width="36.31" height="36.31" fill="#4968e7"/><polygon points="290.5,472.06 326.81,472.06 326.81,508.37" fill="#42d6ff"/><rect x="326.81" y="472.06" width="36.31" height="36.31" fill="#b6c2f5"/><polygon points="326.81,472.06 363.12,472.06 326.81,508.37" fill="#2f52e4"/><rect x="363.125" y="435.75" width="72.625" height="72.625" fill="#ffffff"/><rect x="363.13" y="435.75" width="36.31" height="36.31" fill="#5fdcff"/><path d="M 363.13 472.06 A 36.31 36.31 0 0 1  399.44 435.75 L 399.44 472.06" fill="#a2ebff"/><rect x="399.44" y="435.75" width="36.31" height="36.31" fill="#e4f9ff"/><path d="M 399.44 435.75 A 36.31 36.31 0 0 1 435.75 472.06 L 399.44 472.06" fill="#b4c1f5"/><rect x="363.13" y="472.06" width="36.31" height="36.31" fill="#3fd6ff"/><path d="M 363.13 472.06 A 36.31 36.31 0 0 0 399.44 508.37 L 399.44 472.06" fill="#fefeff"/><rect x="399.44" y="472.06" width="36.31" height="36.31" fill="#6b84ec"/><path d="M 399.44 508.37 A 36.31 36.31 0 0 0 435.75 472.06 L 399.44 472.06" fill="#3bd5ff"/><rect x="435.75" y="435.75" width="72.63" height="72.63" fill="#53daff"/><polygon points="435.75,435.75 508.38,435.75 435.75,508.38" fill="#c2ccf7"/><rect x="508.375" y="435.75" width="72.625" height="72.625" fill="#ffffff"/><rect x="508.38" y="435.75" width="36.31" height="36.31" fill="#183fe1"/><path d="M 508.38 472.06 A 36.31 36.31 0 0 0 544.69 435.75 L 508.38 435.75" fill="#f4f6fe"/><rect x="544.69" y="435.75" width="36.31" height="36.31" fill="#c4cef7"/><path d="M 544.69 435.75 A 36.31 36.31 0 0 0 581 472.06 L 581 435.75" fill="#e3f9ff"/><rect x="508.38" y="472.06" width="36.31" height="36.31" fill="#e1f9ff"/><path d="M 508.38 472.06 A 36.31 36.31 0 0 1 544.69 508.37 L 508.38 508.37" fill="#3759e5"/><rect x="544.69" y="472.06" width="36.31" height="36.31" fill="#9ceaff"/><path d="M 544.69 508.37 A 36.31 36.31 0 0 1  581 472.06 L 581 508.37" fill="#a0b0f3"/><rect x="581" y="435.75" width="72.625" height="72.625" fill="#ffffff"/><rect x="581" y="435.75" width="36.31" height="36.31" fill="#b9c5f6"/><circle cx="599.155" cy="453.905" r="18.155" fill="#7ae2ff"/><rect x="617.31" y="435.75" width="36.31" height="36.31" fill="#3759e5"/><rect x="617.31" y="435.75" width="36.31" height="36.31" fill="#a5ecff"/><rect x="581" y="472.06" width="36.31" height="36.31" fill="#c1f2ff"/><circle cx="599.155" cy="490.21500000000003" r="18.155" fill="#e2e7fb"/><rect x="617.31" y="472.06" width="36.31" height="36.31" fill="#4464e7"/><rect x="617.31" y="472.06" width="36.31" height="36.31" fill="#3053e4"/><rect x="653.625" y="435.75" width="72.625" height="72.625" fill="#ffffff"/><rect x="653.63" y="435.75" width="36.31" height="36.31" fill="#8499ef"/><path d="M 653.63 472.06 A 36.31 36.31 0 0 1 689.94 435.75 L 689.94 444.8275 A 27.2325 27.2325 0 0 0 662.7075 472.06" fill="#79e2ff"/><rect x="689.94" y="435.75" width="36.31" height="36.31" fill="#c8f3ff"/><path d="M 689.94 435.75 A 36.31 36.31 0 0 1 726.25 472.06 L 717.1725 472.06 A 27.2325 27.2325 0 0 0 689.94 444.8275" fill="#75e1ff"/><rect x="653.63" y="472.06" width="36.31" height="36.31" fill="#cfd7f9"/><path d="M 653.63 472.06 A 36.31 36.31 0 0 0 689.94 508.37 L 689.94 499.2925 A 27.2325 27.2325 0 0 1 662.7075 472.06" fill="#d6ddfa"/><rect x="689.94" y="472.06" width="36.31" height="36.31" fill="#b5efff"/><path d="M 689.94 508.37 A 36.31 36.31 0 0 0 726.25 472.06 L 717.1725 472.06 A 27.2325 27.2325 0 0 1 689.94 499.2925" fill="#6a83ec"/><rect x="726.25" y="435.75" width="72.625" height="72.625" fill="#ffffff"/><rect x="726.25" y="435.75" width="36.31" height="36.31" fill="#4060e6"/><path d="M 726.25 472.06 A 36.31 36.31 0 0 0 762.56 435.75 L 726.25 435.75" fill="#8da0f0"/><rect x="762.56" y="435.75" width="36.31" height="36.31" fill="#d4f6ff"/><path d="M 762.56 435.75 A 36.31 36.31 0 0 0 798.8699999999999 472.06 L 798.8699999999999 435.75" fill="#4666e7"/><rect x="726.25" y="472.06" width="36.31" height="36.31" fill="#fdffff"/><path d="M 726.25 472.06 A 36.31 36.31 0 0 1 762.56 508.37 L 726.25 508.37" fill="#869aef"/><rect x="762.56" y="472.06" width="36.31" height="36.31" fill="#a0b0f3"/><path d="M 762.56 508.37 A 36.31 36.31 0 0 1  798.8699999999999 472.06 L 798.8699999999999 508.37" fill="#4464e7"/><rect x="798.88" y="435.75" width="72.63" height="72.63" fill="#59dbff"/><path d="M 798.88 508.38 A 72.63 72.63 0 0 0 871.51 435.75 L 798.88 435.75" fill="#5471e9"/><rect x="871.5" y="435.75" width="72.625" height="72.625" fill="#ffffff"/><rect x="871.5" y="435.75" width="36.31" height="36.31" fill="#657feb"/><path d="M 871.5 472.06 A 36.31 36.31 0 0 1  907.81 435.75 L 907.81 472.06" fill="#cfd7f9"/><rect x="907.81" y="435.75" width="36.31" height="36.31" fill="#eef1fd"/><path d="M 907.81 435.75 A 36.31 36.31 0 0 1 944.1199999999999 472.06 L 907.81 472.06" fill="#f6f8fe"/><rect x="871.5" y="472.06" width="36.31" height="36.31" fill="#7ee3ff"/><path d="M 871.5 472.06 A 36.31 36.31 0 0 0 907.81 508.37 L 907.81 472.06" fill="#f3fcff"/><rect x="907.81" y="472.06" width="36.31" height="36.31" fill="#68deff"/><path d="M 907.81 508.37 A 36.31 36.31 0 0 0 944.1199999999999 472.06 L 907.81 472.06" fill="#b0eeff"/><rect x="944.125" y="435.75" width="72.625" height="72.625" fill="#ffffff"/><rect x="944.13" y="435.75" width="36.31" height="36.31" fill="#9eeaff"/><path d="M 944.13 472.06 A 36.31 36.31 0 0 0 980.44 435.75 L 944.13 435.75" fill="#e7ebfc"/><rect x="980.44" y="435.75" width="36.31" height="36.31" fill="#8297ef"/><path d="M 980.44 435.75 A 36.31 36.31 0 0 0 1016.75 472.06 L 1016.75 435.75" fill="#7f94ee"/><rect x="944.13" y="472.06" width="36.31" height="36.31" fill="#f8fdff"/><path d="M 944.13 472.06 A 36.31 36.31 0 0 1 980.44 508.37 L 944.13 508.37" fill="#9eeaff"/><rect x="980.44" y="472.06" width="36.31" height="36.31" fill="#e3e8fb"/><path d="M 980.44 508.37 A 36.31 36.31 0 0 1  1016.75 472.06 L 1016.75 508.37" fill="#80e4ff"/><rect x="1016.75" y="435.75" width="72.625" height="72.625" fill="#ffffff"/><rect x="1016.75" y="435.75" width="36.31" height="36.31" fill="#5d78ea"/><path d="M 1016.75 472.06 A 36.31 36.31 0 0 1 1053.06 435.75 L 1053.06 444.8275 A 27.2325 27.2325 0 0 0 1025.8275 472.06" fill="#dae0fa"/><rect x="1053.06" y="435.75" width="36.31" height="36.31" fill="#ebeefc"/><path d="M 1053.06 435.75 A 36.31 36.31 0 0 1 1089.37 472.06 L 1080.2925 472.06 A 27.2325 27.2325 0 0 0 1053.06 444.8275" fill="#f6fdff"/><rect x="1016.75" y="472.06" width="36.31" height="36.31" fill="#3557e5"/><path d="M 1016.75 472.06 A 36.31 36.31 0 0 0 1053.06 508.37 L 1053.06 499.2925 A 27.2325 27.2325 0 0 1 1025.8275 472.06" fill="#57dbff"/><rect x="1053.06" y="472.06" width="36.31" height="36.31" fill="#bec9f7"/><path d="M 1053.06 508.37 A 36.31 36.31 0 0 0 1089.37 472.06 L 1080.2925 472.06 A 27.2325 27.2325 0 0 1 1053.06 499.2925" fill="#4161e6"/><rect x="1089.375" y="435.75" width="72.625" height="72.625" fill="#ffffff"/><rect x="1089.38" y="435.75" width="36.31" height="36.31" fill="#45d7ff"/><path d="M 1089.38 435.75 A 36.31 36.31 0 0 1 1125.69 472.06 L 1089.38 472.06" fill="#a1b1f3"/><rect x="1125.69" y="435.75" width="36.31" height="36.31" fill="#aebcf4"/><path d="M 1125.69 472.06 A 36.31 36.31 0 0 1  1162 435.75 L 1162 472.06" fill="#3ed5ff"/><rect x="1089.38" y="472.06" width="36.31" height="36.31" fill="#c2f2ff"/><path d="M 1089.38 508.37 A 36.31 36.31 0 0 0 1125.69 472.06 L 1089.38 472.06" fill="#f5f7fe"/><rect x="1125.69" y="472.06" width="36.31" height="36.31" fill="#60ddff"/><path d="M 1125.69 472.06 A 36.31 36.31 0 0 0 1162 508.37 L 1162 472.06" fill="#b2bff5"/><rect x="0" y="508.375" width="72.625" height="72.625" fill="#ffffff"/><rect x="0" y="508.38" width="36.31" height="36.31" fill="#7f94ee"/><polygon points="36.31,508.38 36.31,544.69 0,544.69" fill="#3f5fe6"/><rect x="36.31" y="508.38" width="36.31" height="36.31" fill="#f9fafe"/><polygon points="36.31,508.38 72.62,544.69 36.31,544.69" fill="#617bea"/><rect x="0" y="544.69" width="36.31" height="36.31" fill="#6bdfff"/><polygon points="0,544.69 36.31,544.69 0,581" fill="#74e1ff"/><rect x="36.31" y="544.69" width="36.31" height="36.31" fill="#3c5de6"/><polygon points="36.31,544.69 72.62,544.69 72.62,581" fill="#34d3ff"/><rect x="72.625" y="508.375" width="72.625" height="72.625" fill="#ffffff"/><rect x="72.63" y="508.38" width="36.31" height="36.31" fill="#4564e7"/><path d="M 72.63 544.69 A 36.31 36.31 0 0 0 108.94 508.38 L 72.63 508.38" fill="#4f6de8"/><rect x="108.94" y="508.38" width="36.31" height="36.31" fill="#d8f7ff"/><path d="M 108.94 508.38 A 36.31 36.31 0 0 0 145.25 544.69 L 145.25 508.38" fill="#46d7ff"/><rect x="72.63" y="544.69" width="36.31" height="36.31" fill="#7b91ee"/><path d="M 72.63 544.69 A 36.31 36.31 0 0 1 108.94 581 L 72.63 581" fill="#e5eafc"/><rect x="108.94" y="544.69" width="36.31" height="36.31" fill="#aaedff"/><path d="M 108.94 581 A 36.31 36.31 0 0 1  145.25 544.69 L 145.25 581" fill="#a1b1f3"/><rect x="145.25" y="508.38" width="72.63" height="72.63" fill="#90a2f1"/><path d="M 145.25 581.01 A 72.63 72.63 0 0 1  217.88 508.38 L 145.25 581.01 A 72.63 72.63 0 0 0 217.88 508.38" fill="#4464e7"/><rect x="217.875" y="508.375" width="72.625" height="72.625" fill="#ffffff"/><rect x="217.88" y="508.38" width="36.31" height="36.31" fill="#55daff"/><polygon points="254.19,508.38 254.19,544.69 217.88,544.69" fill="#5a76ea"/><rect x="254.19" y="508.38" width="36.31" height="36.31" fill="#93a5f1"/><polygon points="254.19,508.38 290.5,508.38 254.19,544.69" fill="#e9edfc"/><rect x="217.88" y="544.69" width="36.31" height="36.31" fill="#b5c2f5"/><polygon points="217.88,544.69 254.19,544.69 254.19,581" fill="#b4c1f5"/><rect x="254.19" y="544.69" width="36.31" height="36.31" fill="#bbf0ff"/><polygon points="254.19,544.69 290.5,581 254.19,581" fill="#b0eeff"/><rect x="290.5" y="508.375" width="72.625" height="72.625" fill="#ffffff"/><rect x="290.5" y="508.38" width="36.31" height="36.31" fill="#eff2fd"/><polygon points="326.81,508.38 326.81,544.69 290.5,544.69" fill="#5c77ea"/><rect x="326.81" y="508.38" width="36.31" height="36.31" fill="#6adfff"/><polygon points="326.81,508.38 363.12,544.69 326.81,544.69" fill="#55daff"/><rect x="290.5" y="544.69" width="36.31" height="36.31" fill="#59dbff"/><polygon points="290.5,544.69 326.81,544.69 326.81,581" fill="#63ddff"/><rect x="326.81" y="544.69" width="36.31" height="36.31" fill="#c9d2f8"/><polygon points="326.81,544.69 363.12,544.69 326.81,581" fill="#effcff"/><rect x="363.125" y="508.375" width="72.625" height="72.625" fill="#ffffff"/><rect x="363.13" y="508.38" width="36.31" height="36.31" fill="#5cdcff"/><path d="M 363.13 508.38 A 36.31 36.31 0 0 0 399.44 544.69 L 399.44 508.38" fill="#acbaf4"/><rect x="399.44" y="508.38" width="36.31" height="36.31" fill="#3c5de6"/><path d="M 399.44 544.69 A 36.31 36.31 0 0 0 435.75 508.38 L 399.44 508.38" fill="#4968e7"/><rect x="363.13" y="544.69" width="36.31" height="36.31" fill="#bdf1ff"/><path d="M 363.13 581 A 36.31 36.31 0 0 1  399.44 544.69 L 399.44 581" fill="#9feaff"/><rect x="399.44" y="544.69" width="36.31" height="36.31" fill="#1940e1"/><path d="M 399.44 544.69 A 36.31 36.31 0 0 1 435.75 581 L 399.44 581" fill="#8b9ef0"/><rect x="435.75" y="508.38" width="72.63" height="72.63" fill="#4dd9ff"/><rect x="435.75" y="508.38" width="72.63" height="72.63" fill="#dcf7ff"/><rect x="508.38" y="508.38" width="72.63" height="72.63" fill="#74e1ff"/><path d="M 508.38 508.38 A 72.63 72.63 0 0 1 581.01 581.01 L 508.38 581.01" fill="#dde3fb"/><rect x="581" y="508.38" width="72.63" height="72.63" fill="#1b42e1"/><rect x="581" y="508.38" width="72.63" height="72.63" fill="#3b5ce6"/><rect x="653.625" y="508.375" width="72.625" height="72.625" fill="#ffffff"/><rect x="653.63" y="508.38" width="36.31" height="36.31" fill="#f9feff"/><path d="M 653.63 544.69 A 36.31 36.31 0 0 0 689.94 508.38 L 653.63 508.38" fill="#a4b3f3"/><rect x="689.94" y="508.38" width="36.31" height="36.31" fill="#65deff"/><path d="M 689.94 508.38 A 36.31 36.31 0 0 0 726.25 544.69 L 726.25 508.38" fill="#3053e4"/><rect x="653.63" y="544.69" width="36.31" height="36.31" fill="#3ed5ff"/><path d="M 653.63 544.69 A 36.31 36.31 0 0 1 689.94 581 L 653.63 581" fill="#4c6be8"/><rect x="689.94" y="544.69" width="36.31" height="36.31" fill="#85e5ff"/><path d="M 689.94 581 A 36.31 36.31 0 0 1  726.25 544.69 L 726.25 581" fill="#3e5ee6"/><rect x="726.25" y="508.375" width="72.625" height="72.625" fill="#ffffff"/><rect x="726.25" y="508.38" width="36.31" height="36.31" fill="#cdf4ff"/><path d="M 726.25 508.38 A 36.31 36.31 0 0 1 762.56 544.69 L 726.25 544.69" fill="#3bd5ff"/><rect x="762.56" y="508.38" width="36.31" height="36.31" fill="#2248e2"/><path d="M 762.56 544.69 A 36.31 36.31 0 0 1  798.8699999999999 508.38 L 798.8699999999999 544.69" fill="#3ed5ff"/><rect x="726.25" y="544.69" width="36.31" height="36.31" fill="#4bd8ff"/><path d="M 726.25 581 A 36.31 36.31 0 0 0 762.56 544.69 L 726.25 544.69" fill="#89e6ff"/><rect x="762.56" y="544.69" width="36.31" height="36.31" fill="#526fe9"/><path d="M 762.56 544.69 A 36.31 36.31 0 0 0 798.8699999999999 581 L 798.8699999999999 544.69" fill="#96e8ff"/><rect x="798.875" y="508.375" width="72.625" height="72.625" fill="#ffffff"/><rect x="798.88" y="508.38" width="36.31" height="36.31" fill="#3c5de6"/><polygon points="835.19,508.38 835.19,544.69 798.88,544.69" fill="#8ce6ff"/><rect x="835.19" y="508.38" width="36.31" height="36.31" fill="#ccf4ff"/><polygon points="835.19,508.38 871.5,544.69 835.19,544.69" fill="#a0ebff"/><rect x="798.88" y="544.69" width="36.31" height="36.31" fill="#788eed"/><polygon points="798.88,544.69 835.19,544.69 798.88,581" fill="#6d86ec"/><rect x="835.19" y="544.69" width="36.31" height="36.31" fill="#72e1ff"/><polygon points="835.19,544.69 871.5,544.69 871.5,581" fill="#89e5ff"/><rect x="871.5" y="508.375" width="72.625" height="72.625" fill="#ffffff"/><rect x="871.5" y="508.38" width="36.31" height="36.31" fill="#90e7ff"/><circle cx="889.655" cy="526.535" r="18.155" fill="#c2ccf7"/><rect x="907.81" y="508.38" width="36.31" height="36.31" fill="#2f52e4"/><rect x="907.81" y="508.38" width="36.31" height="36.31" fill="#e3f9ff"/><rect x="871.5" y="544.69" width="36.31" height="36.31" fill="#d1f5ff"/><circle cx="889.655" cy="562.845" r="18.155" fill="#5370e9"/><rect x="907.81" y="544.69" width="36.31" height="36.31" fill="#75e1ff"/><rect x="907.81" y="544.69" width="36.31" height="36.31" fill="#b9f0ff"/><rect x="944.125" y="508.375" width="72.625" height="72.625" fill="#ffffff"/><rect x="944.13" y="508.38" width="36.31" height="36.31" fill="#1d43e2"/><path d="M 944.13 508.38 A 36.31 36.31 0 0 0 980.44 544.69 L 980.44 508.38" fill="#9deaff"/><rect x="980.44" y="508.38" width="36.31" height="36.31" fill="#76e1ff"/><path d="M 980.44 544.69 A 36.31 36.31 0 0 0 1016.75 508.38 L 980.44 508.38" fill="#d7f6ff"/><rect x="944.13" y="544.69" width="36.31" height="36.31" fill="#36d4ff"/><path d="M 944.13 581 A 36.31 36.31 0 0 1  980.44 544.69 L 980.44 581" fill="#93e8ff"/><rect x="980.44" y="544.69" width="36.31" height="36.31" fill="#91a3f1"/><path d="M 980.44 544.69 A 36.31 36.31 0 0 1 1016.75 581 L 980.44 581" fill="#889cf0"/><rect x="1016.75" y="508.375" width="72.625" height="72.625" fill="#ffffff"/><rect x="1016.75" y="508.38" width="36.31" height="36.31" fill="#61ddff"/><path d="M 1016.75 544.69 A 36.31 36.31 0 0 0 1053.06 508.38 L 1016.75 508.38" fill="#81e4ff"/><rect x="1053.06" y="508.38" width="36.31" height="36.31" fill="#bff1ff"/><path d="M 1053.06 508.38 A 36.31 36.31 0 0 0 1089.37 544.69 L 1089.37 508.38" fill="#a3b2f3"/><rect x="1016.75" y="544.69" width="36.31" height="36.31" fill="#a9ecff"/><path d="M 1016.75 544.69 A 36.31 36.31 0 0 1 1053.06 581 L 1016.75 581" fill="#4766e7"/><rect x="1053.06" y="544.69" width="36.31" height="36.31" fill="#3658e5"/><path d="M 1053.06 581 A 36.31 36.31 0 0 1  1089.37 544.69 L 1089.37 581" fill="#7c92ee"/><rect x="1089.375" y="508.375" width="72.625" height="72.625" fill="#ffffff"/><rect x="1089.38" y="508.38" width="36.31" height="36.31" fill="#c2f2ff"/><path d="M 1089.38 544.69 A 36.31 36.31 0 0 0 1125.69 508.38 L 1089.38 508.38" fill="#acbaf4"/><rect x="1125.69" y="508.38" width="36.31" height="36.31" fill="#c7d1f8"/><path d="M 1125.69 508.38 A 36.31 36.31 0 0 0 1162 544.69 L 1162 508.38" fill="#aab8f4"/><rect x="1089.38" y="544.69" width="36.31" height="36.31" fill="#9eeaff"/><path d="M 1089.38 544.69 A 36.31 36.31 0 0 1 1125.69 581 L 1089.38 581" fill="#2046e2"/><rect x="1125.69" y="544.69" width="36.31" height="36.31" fill="#3658e5"/><path d="M 1125.69 581 A 36.31 36.31 0 0 1  1162 544.69 L 1162 581" fill="#8be6ff"/></g></svg>