<svg width="1440" height="865" viewBox="0 0 1440 865" fill="none" xmlns="http://www.w3.org/2000/svg">
<path d="M348.39 -25.5218C381.501 0.166973 418.644 20.2431 451.371 38.0166C480.836 53.9911 506.173 67.735 522.777 82.1264C540.436 97.4534 545.715 111.197 539.86 126.812C515.195 191.933 540.82 231.294 565.486 269.432C587.944 304.043 609.251 336.784 593.319 387.873C582.953 421.046 553.777 439.611 511.068 440.114C472.39 440.546 427.569 426.299 387.932 400.97C344.743 373.338 312.975 335.632 298.387 294.761C286.486 261.3 262.396 242.016 224.678 235.827C214.408 234.172 203.467 233.453 192.142 233.453C166.805 233.453 139.164 236.907 110.275 240.433C72.9407 245.038 35.0305 249.787 0.095459 247.341V254.536C36.1822 256.911 74.6683 252.162 111.907 247.556C194.062 237.267 265.083 228.488 289.269 296.559C321.517 387.154 428.625 447.31 509.34 447.31C510.012 447.31 510.588 447.31 511.26 447.31C533.814 447.022 553.105 442.201 568.653 432.919C585.353 422.989 596.774 408.381 602.628 389.528C619.328 335.992 596.294 300.589 574.028 266.337C550.13 229.495 525.368 191.358 548.978 128.827C563.662 90.1137 516.539 64.5688 456.842 32.26C424.402 14.7024 387.644 -5.22983 355.108 -30.4869C350.501 -34.2287 345.702 -38.0424 340.904 -41.9281H327.851C334.665 -36.3154 341.48 -30.8467 348.39 -25.5218Z" fill="#919191" fill-opacity="0.05"/>
<path d="M501.375 96.0145C486.883 83.4939 462.697 70.3976 434.768 55.2146C401.081 36.9374 362.883 16.2137 328.044 -10.7703C315.087 -20.7004 302.418 -31.2782 290.038 -41.9279H281.112C294.836 -30.0549 308.945 -18.3258 323.245 -7.24439C358.564 20.0994 396.954 40.8951 430.929 59.3162C458.57 74.3553 482.468 87.3076 496.48 99.3245C508.669 109.83 508.093 114.939 506.27 119.616C477.957 194.38 507.806 240.361 534.103 280.873C555.505 313.829 572.397 339.878 559.344 381.829C552.434 403.92 537.078 413.778 509.533 413.778C479.685 413.778 442.542 401.33 410.199 380.39C372.768 356.212 345.223 323.4 332.651 287.853C313.552 234.245 266.428 207.045 192.527 207.045C164.214 207.045 134.078 210.787 104.901 214.384C76.4926 217.91 47.1241 221.58 20.6349 221.58C13.4368 221.58 6.71853 221.292 0.384155 220.789V225.898C6.71853 226.401 13.4368 226.689 20.6349 226.689C47.604 226.689 77.2604 223.019 105.957 219.421C134.846 215.824 164.694 212.154 192.431 212.154C262.877 212.154 307.889 238.058 326.028 289.22C338.985 325.702 367.298 359.45 405.688 384.276C439.183 405.935 477.957 418.887 509.437 418.887C539.861 418.887 558.289 407.158 565.775 383.052C579.403 339.374 562.032 312.606 540.053 278.786C514.236 239.066 485.059 194.02 512.604 121.128C514.716 115.443 515.772 108.463 501.375 96.0145Z" fill="#919191" fill-opacity="0.05"/>
<path d="M407.319 85.3645L406.263 84.7889C370.944 65.6482 330.923 43.9171 293.109 14.6304C269.595 -3.50285 247.328 -23.0753 225.734 -41.9281H216.904C217.96 -40.9927 219.112 -39.9853 220.167 -39.0498C241.954 -19.9811 264.508 -0.264767 288.214 18.1563C326.508 47.7308 366.722 69.6059 402.328 88.8905L403.384 89.4661C433.136 105.657 449.932 132.569 447.053 159.768C440.719 220.572 468.167 262.883 490.242 296.847C496.864 307.065 501.951 320.737 505.406 337.431C507.325 346.642 502.047 355.565 491.777 360.745C481.604 365.926 468.647 366.214 458.09 361.465C451.948 358.731 446.477 355.852 441.774 352.758C411.734 333.33 389.564 306.993 379.486 278.498C354.725 208.915 288.31 170.562 192.334 170.562C159.991 170.562 127.839 174.52 96.743 178.405C70.2538 181.715 42.9008 185.097 20.4426 185.097C12.2847 185.097 5.66243 184.666 0.191833 183.946V188.983C5.85438 189.703 12.4767 190.063 20.4426 190.063C43.3807 190.063 71.1176 186.609 97.8947 183.299C128.703 179.485 160.567 175.527 192.334 175.527C284.951 175.527 349.062 212.513 372.96 279.721C383.421 309.152 406.359 336.424 437.359 356.5C442.35 359.738 448.205 362.832 454.635 365.711C460.681 368.445 467.4 369.74 474.118 369.74C481.508 369.74 488.994 368.085 495.52 364.775C507.997 358.443 514.332 347.649 512.028 336.496C508.573 319.37 503.198 305.194 496.288 294.473C474.598 261.013 447.533 219.421 453.771 159.984C456.746 131.201 438.991 102.562 407.319 85.3645Z" fill="#919191" fill-opacity="0.05"/>
<path d="M174.003 -9.40336C196.365 10.1691 219.495 30.461 244.544 49.8176C286.486 82.3423 329.099 105.441 366.625 125.805L367.681 126.38C380.445 133.288 387.548 144.729 386.396 156.243V156.674C385.82 161.927 381.693 166.245 375.263 168.331C368.928 170.346 362.018 169.555 356.74 166.245C313.551 139.261 256.733 125.013 192.43 125.013C155.095 125.013 118.913 129.474 86.953 133.432L86.1852 133.504C54.3214 137.39 22.4576 129.187 0.287292 112.708V119.688C6.52569 123.79 13.3399 127.316 20.826 130.266C41.3647 138.397 64.3988 141.203 87.3369 138.469L88.1047 138.397C119.777 134.439 155.767 130.05 192.43 130.05C255.198 130.05 310.575 143.938 352.517 170.13C357.123 173.009 362.594 174.448 368.257 174.448C371.52 174.448 374.783 173.944 378.046 172.937C386.684 170.202 392.538 164.086 393.306 157.034V156.602C394.65 143.362 386.492 130.194 371.904 122.279L370.848 121.703C333.514 101.483 291.188 78.5286 249.631 46.2917C224.773 27.0071 201.643 6.85901 179.377 -12.7134C167.188 -23.1472 155.863 -32.8615 145.21 -41.9281H136.188C148.089 -31.998 160.566 -21.1324 174.003 -9.40336Z" fill="#919191" fill-opacity="0.05"/>
<path d="M70.1578 111.485C73.8049 111.485 77.5479 111.269 81.195 110.837L81.7708 110.765C114.882 106.664 152.409 101.987 192.238 101.987C195.598 101.987 199.053 102.059 202.316 102.059C213.833 102.275 223.91 97.5253 228.613 89.61C233.316 81.5508 231.204 72.7 223.046 66.3678L222.375 65.8641C196.653 45.9319 173.235 25.424 150.585 5.56377C129.758 -12.6414 111.235 -28.616 94.3436 -41.9281H87.7213C105.285 -28.2562 124.768 -11.4901 146.938 7.93837C169.684 27.7986 193.102 48.3784 218.92 68.3826L219.591 68.8863C226.31 74.1392 228.133 81.4788 224.198 88.1709C220.359 94.719 212.009 98.6766 202.508 98.4608C199.149 98.3888 195.694 98.3168 192.238 98.3168C152.025 98.3168 114.306 102.994 81.003 107.096L80.4272 107.168C76.9721 107.599 73.517 107.815 70.1578 107.815C45.5882 107.815 22.842 96.9496 12.2847 80.1836C8.06181 73.5635 4.03085 66.6556 0.191833 59.6757V68.9582C2.68719 73.2757 5.27853 77.5931 7.96583 81.7666C19.2909 99.8279 43.7646 111.485 70.1578 111.485Z" fill="#919191" fill-opacity="0.05"/>
<path d="M333.035 898.627C360.676 844.443 386.685 793.21 437.456 767.665C503.679 734.205 587.562 737.227 655.032 739.601C707.819 741.472 753.503 743.127 776.057 726.577C786.518 718.878 791.413 708.012 790.933 693.333C789.59 649.799 754.079 617.562 682.577 594.823C626.816 577.122 550.611 565.105 435.345 555.966C314.416 546.324 265.948 469.257 223.143 401.258C200.013 364.416 178.131 329.66 147.131 310.088C119.01 292.386 80.5242 283.319 32.5366 283.104C22.1712 283.032 11.422 283.463 0.288879 284.255V291.451C10.6542 290.659 20.7316 290.299 30.4251 290.299C76.2053 290.299 114.212 298.79 140.893 315.628C170.261 334.193 191.76 368.229 214.41 404.352C236.484 439.467 259.326 475.806 292.918 505.524C331.596 539.776 377.856 558.629 434.289 563.09C548.5 572.157 623.936 584.03 678.738 601.443C746.497 622.958 779.992 653.037 781.24 693.477C781.624 706.069 777.689 715.208 769.243 721.396C749.664 735.716 705.995 734.205 655.416 732.406C586.602 729.959 500.896 726.937 432.082 761.692C378.815 788.533 352.23 840.774 324.109 896.109C299.06 945.256 272.283 997.929 223.239 1037.51H236.58C282.552 997.713 308.657 946.551 333.035 898.627Z" fill="#919191" fill-opacity="0.05"/>
<path d="M415.189 742.839C476.421 711.897 548.115 708.372 596.774 708.372C617.793 708.372 637.66 709.091 656.855 709.739C673.075 710.314 688.431 710.89 701.964 710.89C736.898 710.89 745.92 706.86 748.128 705.133C750.047 703.622 751.103 699.521 750.911 694.052C750.431 678.221 743.809 665.341 730.18 653.684C716.456 641.883 695.053 631.377 666.836 622.383C614.818 605.904 542.069 594.535 430.929 585.756C287.734 574.387 231.78 485.52 186.864 414.066C165.653 380.318 145.499 348.369 121.217 333.042C100.198 319.73 69.6781 313.038 30.5202 313.038C20.7307 313.038 10.5573 313.469 0 314.333V319.37C10.4613 318.506 20.7307 318.075 30.5202 318.075C68.0465 318.075 97.031 324.407 116.898 336.927C140.124 351.607 159.895 382.98 180.817 416.296C226.406 488.83 283.223 579.136 430.161 590.793C540.629 599.572 612.802 610.797 664.149 627.06C691.502 635.767 712.041 645.841 725.094 657.066C737.666 667.788 743.713 679.661 744.193 694.268C744.385 699.161 743.425 701.32 743.137 701.823C741.889 702.471 733.827 705.925 701.964 705.925C688.527 705.925 673.267 705.349 657.143 704.846C637.852 704.126 617.889 703.478 596.679 703.478C547.155 703.478 474.118 707.148 411.35 738.81C348.39 770.615 319.79 826.813 289.462 886.322C266.427 931.583 242.626 978.356 203.084 1013.18C192.526 1022.47 181.297 1030.52 169.109 1037.58H179.858C189.935 1031.32 199.341 1024.26 208.266 1016.42C248.576 980.946 272.57 933.742 295.796 888.121C325.74 829.26 354.053 773.781 415.189 742.839Z" fill="#919191" fill-opacity="0.05"/>
<path d="M361.539 683.187L362.019 682.899C370.657 678.582 375.072 671.098 373.536 663.399C372 655.699 364.898 649.511 354.917 647.208C205.771 612.741 142.139 511.641 100.102 444.648C90.8886 430.041 82.1549 416.153 73.901 404.928C73.5171 404.352 73.1332 403.848 72.7493 403.345C64.3035 391.975 48.2756 384.924 31 384.924H30.5202C21.2105 384.924 10.9412 385.571 0 386.794V391.903C10.9412 390.608 21.2105 389.961 30.5202 389.961H31C45.7802 389.961 59.6007 396.077 66.8948 405.863C67.2787 406.367 67.6626 406.871 68.0465 407.446C76.2044 418.6 84.8422 432.344 94.0558 446.951C115.074 480.411 141.276 522.074 181.873 560.787C230.053 606.768 286.006 636.703 352.997 652.173C360.579 653.9 365.762 658.434 366.914 664.262C368.065 670.091 364.802 675.56 358.276 678.87L357.7 679.157C269.595 723.699 232.452 796.448 199.821 860.706C179.666 900.283 158.839 941.154 130.047 966.555C117.666 977.493 104.517 985.048 88.6812 990.373C70.9258 996.346 49.2353 999.728 22.3623 1000.66C19.579 1000.74 16.6997 1000.81 13.8204 1000.81C9.30961 1000.81 4.70279 1000.66 0.0959753 1000.45V1005.48C4.70279 1005.7 9.30961 1005.84 13.8204 1005.84C16.7957 1005.84 19.7709 1005.77 22.6502 1005.7C50.387 1004.76 72.8453 1001.24 91.3685 994.978C108.164 989.366 122.081 981.378 135.037 969.865C164.598 943.817 185.616 902.513 206.059 862.505C238.499 798.823 275.161 726.793 361.539 683.187Z" fill="#919191" fill-opacity="0.05"/>
<path d="M21.0187 976.701C43.8608 975.909 61.7122 973.247 75.8206 968.497C87.3377 964.612 96.6473 959.215 106.053 950.94C131.39 928.633 151.161 889.704 170.356 851.998C189.167 815.012 210.57 773.061 243.681 734.708C274.393 699.089 264.604 651.885 220.935 624.829C139.452 574.459 94.9197 503.725 65.5513 456.952C61.0404 449.756 54.4181 439.754 49.6194 432.703C41.7494 420.973 24.7618 414.497 7.4862 416.728C5.18279 417.016 2.68744 417.376 0.192078 417.663V422.772C3.07134 422.341 5.9506 421.981 8.54193 421.693C10.4614 421.477 12.285 421.333 14.1085 421.333C26.3933 421.333 37.8144 426.442 43.4769 434.933C48.1797 441.985 54.802 451.915 59.3129 459.111C88.9692 506.315 133.886 577.625 216.424 628.786C257.502 654.259 266.715 698.657 237.827 732.045C204.332 770.83 182.833 812.997 163.926 850.271C144.923 887.545 125.248 926.115 100.774 947.774C92.1364 955.401 83.4986 960.366 72.9414 963.964C59.6968 968.426 42.5172 970.944 20.6348 971.736C18.4274 971.807 16.124 971.879 13.9165 971.879C9.40571 971.879 4.79889 971.664 0.192078 971.376V976.485C4.79889 976.773 9.40571 976.988 13.9165 976.988C16.22 976.845 18.6193 976.845 21.0187 976.701Z" fill="#919191" fill-opacity="0.05"/>
<path d="M18.4276 934.677C33.5917 934.174 45.4926 932.591 52.7868 930.144C55.9539 929.065 58.8332 927.625 63.2481 923.74C82.2512 906.974 101.254 869.844 117.858 837.031C137.725 798.102 160.183 753.92 196.462 711.897C211.722 694.268 206.827 670.81 185.041 657.353C93.9602 600.939 46.2604 525.096 14.6846 474.941L14.5886 474.798C11.5174 469.976 6.33471 466.235 0.192289 464.148V472.495C2.59167 473.862 4.60715 475.733 5.95081 477.892L6.04678 478.036C38.0066 528.766 86.1862 605.472 178.994 662.966C196.942 674.12 201.069 693.476 188.4 708.083C151.545 750.754 128.895 795.296 108.836 834.585C92.4245 866.821 73.8053 903.376 55.858 919.206C51.923 922.66 50.1954 923.236 48.7558 923.74C45.2047 924.963 36.471 927.05 17.8517 927.697C16.5081 927.769 15.1644 927.769 13.8208 927.769C9.40592 927.769 4.7991 927.482 0.0963135 926.978V934.246C4.7991 934.749 9.30994 934.965 13.8208 934.965C15.4524 934.749 16.892 934.749 18.4276 934.677Z" fill="#919191" fill-opacity="0.05"/>
<path d="M491.201 671.241C506.365 670.81 525.368 670.234 547.923 671.17C559.344 671.673 570.189 671.961 580.074 671.961C591.783 671.961 602.341 671.601 611.266 670.882C632.285 669.227 643.13 665.773 645.53 659.944C648.505 652.605 636.604 646.272 627.39 642.171C581.706 621.735 463.56 626.988 457.706 627.275C442.35 627.707 435.44 632.384 432.368 636.198C429.009 640.3 426.706 647.711 434.384 659.728C442.734 672.681 462.025 672.105 491.201 671.241ZM440.622 639.94C443.981 635.766 452.043 634.687 458.09 634.471H458.186C459.433 634.399 579.115 629.002 622.399 648.359C636.988 654.835 636.22 657.785 636.22 657.857C636.22 657.929 634.3 661.815 610.115 663.758C594.183 665.053 572.78 665.125 548.307 664.046C538.997 663.614 530.263 663.47 522.105 663.47C510.3 663.47 499.839 663.758 490.625 664.046C461.353 664.909 448.204 664.981 442.926 656.706C438.511 649.438 437.647 643.682 440.622 639.94Z" fill="#919191" fill-opacity="0.05"/>
<path d="M101.542 733.629C102.118 703.335 88.2974 671.817 63.5358 647.064C39.254 622.886 16.5079 590.865 0.192078 565.392V581.655C15.7401 604.753 35.2231 630.802 55.8577 651.381C100.198 695.635 111.427 767.593 44.9166 813.861C29.3686 824.727 14.3004 833.793 0.192078 840.989V849.624C16.22 841.925 33.4955 831.707 51.4429 819.258C83.5946 796.879 100.87 767.305 101.542 733.629Z" fill="#919191" fill-opacity="0.05"/>
<path d="M960.041 958.568C1044.88 922.013 1101.22 871.355 1132.22 803.787C1161.4 740.177 1165.43 668.435 1165.43 600.364C1165.43 516.389 1212.74 479.907 1267.45 437.596C1305.17 408.453 1347.88 375.425 1379.45 322.248C1400.86 286.126 1411.22 248.42 1409.3 213.161C1407.57 180.708 1395.67 150.702 1375.04 126.524C1346.53 93.1361 1303.54 73.7076 1257.08 73.2759C1256.32 73.2759 1255.55 73.2759 1254.69 73.2759C1198.92 73.2759 1153.82 92.4885 1116.96 131.993C1082.03 169.411 1053.71 225.034 1027.7 306.993C1024.54 316.924 1021.56 326.494 1018.68 335.704C998.143 401.402 983.267 448.893 957.929 482.426C932.112 516.605 896.217 536.322 833.833 550.425C804.177 557.117 784.982 557.477 773.369 551.433C756.765 542.87 754.558 520.995 751.582 490.773C747.935 454.218 743.041 404.136 707.05 352.543C667.7 296.056 686.319 255.328 704.267 216.039C724.229 172.505 743.041 131.345 674.322 77.5933C626.815 40.4633 609.923 0.239113 623.935 -41.9279H614.05C608.675 -24.8021 608.195 -7.74816 612.61 8.94596C619.328 34.7067 637.852 59.4601 667.412 82.6303C732.099 133.216 715.016 170.562 695.245 213.809C677.49 252.666 657.335 296.704 698.604 355.996C733.635 406.295 738.338 453.499 742.081 491.42C745.248 523.657 747.552 546.971 767.994 557.477C782.295 564.817 804.081 564.817 836.713 557.405C900.824 542.87 939.694 521.57 966.471 486.023C992.48 451.556 1007.45 403.632 1028.28 337.359C1031.16 328.149 1034.13 318.579 1037.3 308.648C1063.02 227.624 1090.86 172.793 1125.12 136.095C1160.53 98.1012 1203.72 79.8959 1257.18 80.3997C1300.37 80.8314 1340.49 99.0366 1367.17 130.338C1409.97 180.492 1411.41 251.083 1370.91 319.298C1340.01 371.323 1299.7 402.409 1260.73 432.559C1232.99 453.93 1206.89 474.151 1187.6 499.911C1166 528.694 1156.02 560.643 1156.02 600.364C1156.02 734.708 1140.57 872.579 955.434 952.307C913.301 970.441 884.412 990.661 869.728 1012.39C864.161 1020.59 860.61 1028.94 859.075 1037.43H868.768C874.335 1008.72 905.047 982.242 960.041 958.568Z" fill="#919191" fill-opacity="0.05"/>
<path d="M1214.86 600.364C1214.86 741.256 1197.1 899.203 984.707 990.733C949.1 1006.06 926.45 1022.39 919.348 1037.5H926.45C933.744 1024.05 955.05 1009.3 987.97 995.122C1203.43 902.225 1221.48 742.695 1221.48 600.436C1221.48 533.587 1255.74 507.107 1307.66 467.027C1348.64 435.365 1395.1 399.531 1430.7 339.518C1433.97 334.049 1436.94 328.581 1439.73 323.04V308.001C1435.41 317.859 1430.32 327.645 1424.56 337.432C1389.43 396.58 1343.37 432.127 1302.86 463.501C1249.89 504.373 1214.86 531.429 1214.86 600.364Z" fill="#919191" fill-opacity="0.05"/>
<path d="M733.539 280.297C731.907 298.574 737.378 316.132 750.815 335.489C791.508 393.918 796.883 448.39 800.818 488.11C801.394 493.939 802.065 500.559 802.833 506.747C803.217 509.626 805.233 512.216 808.496 513.799C811.663 515.382 815.694 515.886 819.341 515.022H819.437C876.734 502.07 898.425 485.952 914.836 464.22C936.719 435.294 950.827 389.96 970.502 327.214C973.381 318.003 976.356 308.361 979.524 298.431C1006.78 212.441 1037.3 153.077 1075.5 111.701C1121.76 61.6188 1182.03 36.1459 1254.59 36.1459C1255.55 36.1459 1256.6 36.1459 1257.56 36.1459C1320.91 36.7215 1378.88 62.4103 1416.5 106.448C1425.71 117.242 1433.39 128.683 1439.63 140.7V127.748C1434.54 119.401 1428.78 111.413 1422.16 103.714C1383.29 58.1648 1323.31 31.6845 1257.66 31.1088C1256.6 31.1088 1255.64 31.1088 1254.59 31.1088C1179.73 31.1088 1117.63 57.2294 1070.03 108.823C1031.35 150.702 1000.54 210.571 972.997 297.207C969.83 307.209 966.855 316.78 963.88 326.062C944.397 388.377 930.288 433.351 908.886 461.702C893.338 482.354 872.607 497.609 817.421 510.129L818.381 512.576L817.325 510.201C815.598 510.633 813.678 510.417 812.143 509.626C810.607 508.834 809.647 507.611 809.455 506.244C808.688 500.127 808.016 493.507 807.44 487.679C803.505 447.454 798.034 392.407 756.669 333.042C743.808 314.549 738.53 297.855 740.065 280.585C741.601 263.891 749.183 247.269 757.245 229.711C767.418 207.404 780.087 179.701 778.455 149.119C776.44 113.356 755.613 80.4716 714.728 48.4506C693.997 32.1882 681.232 15.71 677.01 -0.624367C673.842 -12.7852 675.186 -25.5936 680.945 -38.6179C681.424 -39.7692 682 -40.8486 682.576 -41.9279H675.378C675.09 -41.3523 674.802 -40.7766 674.61 -40.2009C668.372 -26.3132 667.028 -12.6413 670.483 0.383034C674.994 17.6528 688.335 35.0665 710.025 51.9765C799.57 122.063 771.545 183.371 751.006 228.128C742.849 246.046 735.075 262.956 733.539 280.297Z" fill="#919191" fill-opacity="0.05"/>
<path d="M996.8 70.7574C1061.2 1.1026 1150.36 -35.7396 1254.78 -35.7396C1256.22 -35.7396 1257.56 -35.7396 1259 -35.7396C1326.38 -35.092 1389.24 -16.383 1439.82 17.0052V10.3131C1388.76 -22.0677 1326.19 -40.129 1259.1 -40.7766C1257.66 -40.7766 1256.22 -40.7766 1254.78 -40.7766C1148.06 -40.7766 1056.98 -3.21484 991.329 67.8791C945.645 117.386 910.23 184.954 879.902 280.585C876.735 290.659 873.663 300.301 870.784 309.584L870.688 309.944C869.345 314.189 864.93 315.988 861.091 316.276C857.348 316.564 852.453 315.484 849.862 311.599C847.366 307.641 844.679 303.611 841.992 299.726C835.657 290.587 835.945 287.061 836.137 285.334C836.809 278.139 842.376 265.906 848.326 252.953C870.688 204.094 917.14 102.491 784.31 -1.4159C776.057 -7.82011 772.601 -12.4973 771.642 -14.2243C771.738 -14.5841 771.93 -15.0878 772.218 -15.8793C774.617 -21.2042 779.704 -26.673 782.487 -29.1195L800.05 -41.9279H790.453L777.592 -32.5735L777.4 -32.3576C776.536 -31.638 769.146 -24.874 765.787 -17.3904C765.019 -15.7354 764.827 -14.6561 764.732 -14.0804V-13.6487L764.923 -13.2169C765.979 -10.5545 770.394 -4.94182 779.416 2.11001C909.462 103.786 863.874 203.519 841.896 251.37C835.849 264.611 830.091 277.203 829.419 285.046C829.227 287.205 828.843 291.667 836.041 302.1C838.729 305.914 841.32 309.872 843.815 313.829C847.078 319.01 854.181 321.961 861.763 321.313C869.345 320.665 875.391 316.708 877.119 311.095L877.215 310.735C880.094 301.453 883.165 291.81 886.332 281.736C916.468 186.825 951.595 119.76 996.8 70.7574Z" fill="#919191" fill-opacity="0.05"/>
<path d="M1322.73 556.614C1316.78 564.457 1310.73 575.826 1310.73 600.364C1310.73 711.322 1310.73 915.105 1066.09 1037.43H1078.09C1317.45 913.234 1317.55 711.034 1317.55 600.364C1317.55 576.978 1323.11 566.328 1328.58 559.06C1337.51 547.187 1354.79 533.875 1376.57 517.037C1396.25 501.854 1417.94 485.088 1439.82 464.796V456.737C1416.4 479.116 1392.79 497.321 1371.77 513.583C1349.6 530.637 1332.14 544.165 1322.73 556.614Z" fill="#919191" fill-opacity="0.05"/>
<path d="M881.341 47.0113C888.443 57.5171 902.072 64.2091 917.716 65.0007C933.36 65.7922 947.948 60.4673 956.874 50.7531L957.353 50.2494C994.976 9.52151 1040.28 -21.4202 1091.62 -42H1077.71C1029.81 -21.2043 987.49 8.72996 951.787 47.3711L951.307 47.8748C943.725 56.0779 931.344 60.6113 918.1 59.9636C904.855 59.316 893.338 53.6314 887.291 44.7087C881.821 36.6494 875.582 28.5902 868.864 20.8188C852.068 1.39031 853.22 -23.6509 870.592 -41.928H862.53C846.118 -22.2837 845.83 3.40512 863.202 23.5532C869.824 31.2526 875.966 39.1679 881.341 47.0113Z" fill="#919191" fill-opacity="0.05"/>
<path d="M1364.58 574.243C1362.85 576.546 1358.82 581.943 1358.82 600.364C1358.82 699.233 1358.82 902.585 1145.94 1037.43H1156.21C1200.46 1008.58 1238.08 975.118 1268.12 937.7C1297.78 900.786 1320.81 859.051 1336.65 813.718C1365.44 731.254 1365.44 652.533 1365.44 600.436C1365.44 583.31 1368.99 578.561 1370.33 576.834C1376.19 569.062 1392.31 556.614 1410.93 542.222C1419.95 535.242 1429.65 527.759 1439.72 519.628V512.216C1427.92 521.93 1416.5 530.709 1406.13 538.768C1387.23 553.232 1370.81 565.896 1364.58 574.243Z" fill="#919191" fill-opacity="0.05"/>
<path d="M842.471 378.447C834.314 380.606 830.571 389.312 831.146 405.215C832.01 429.896 840.168 445.799 853.317 448.821C854.66 449.109 856.196 449.325 857.827 449.325C863.682 449.325 871.36 446.806 880.094 437.74C891.899 425.363 879.422 401.473 867.233 389.24C858.403 380.462 849.67 376.576 842.471 378.447ZM874.719 434.861C867.809 442.057 860.995 445.295 855.428 444C847.942 442.273 838.92 431.048 837.961 405.071C837.289 386.578 843.047 383.628 844.775 383.196C845.255 383.052 845.735 383.052 846.215 383.052C850.245 383.052 856.196 386.506 861.954 392.335C875.007 405.575 883.357 425.795 874.719 434.861Z" fill="#919191" fill-opacity="0.05"/>
<path d="M1167.35 372.546C1169.75 372.69 1172.24 372.762 1174.74 372.762C1191.92 372.762 1210.44 369.668 1228.77 363.767C1261.88 353.118 1291.06 334.121 1310.83 310.375C1334.25 282.312 1344.52 247.772 1340.58 210.57V210.354C1340.2 208.627 1331.56 167.827 1296.72 150.054C1281.75 142.354 1264.09 140.196 1244.42 143.506C1221.86 147.319 1195.85 163.366 1171.19 188.623C1148.54 211.937 1128.67 241.296 1116.86 269.287C1108.99 287.78 1104.87 305.194 1104.96 319.657C1104.96 335.992 1110.15 348.584 1120.32 357.003C1131.16 366.07 1147.48 371.467 1167.35 372.546ZM1123.29 270.798C1134.91 243.311 1154.39 214.456 1176.66 191.573C1200.36 167.324 1224.93 151.925 1245.95 148.399C1251.42 147.463 1256.6 147.032 1261.69 147.032C1273.21 147.032 1283.67 149.406 1292.98 154.155C1324.65 170.346 1333.58 208.915 1333.96 211.002C1342.5 291.81 1283.86 340.525 1226.18 359.09C1185.49 372.186 1144.99 370.028 1125.31 353.621C1107.84 339.158 1107.17 308.936 1123.29 270.798Z" fill="#919191" fill-opacity="0.05"/>
<path d="M1154.78 333.618L1155.45 334.049C1158.81 336.352 1166.1 337.791 1174.64 337.791C1194.7 337.791 1227.81 329.876 1255.36 307.569C1275.51 291.163 1298.74 261.804 1294.42 214.96L1294.32 214.528C1293.56 211.65 1290.58 201.648 1284.25 192.221C1275.03 178.477 1266.97 176.894 1261.79 176.894C1259.68 176.894 1257.37 177.11 1254.78 177.542C1249.22 178.477 1234.82 184.738 1216.1 202.223C1198.64 218.486 1182.32 239.641 1170.23 261.732C1160.53 279.434 1154.39 296.2 1152.38 310.375C1150.26 325.271 1153.53 331.531 1154.58 333.114L1154.78 333.618ZM1161.78 311.095C1163.7 297.639 1169.65 281.449 1179.06 264.395C1190.86 242.951 1206.6 222.443 1223.59 206.685C1241.35 190.207 1253.92 185.026 1256.99 184.522C1258.91 184.234 1260.54 184.018 1261.88 184.018C1267.35 184.018 1272.92 191.142 1275.8 195.387C1281.46 203.806 1284.25 212.801 1285.01 215.679C1289.04 259.789 1267.35 287.349 1248.54 302.676C1223.11 323.328 1192.97 330.595 1174.83 330.595C1168.12 330.595 1164.28 329.588 1162.74 329.084C1161.78 327.285 1160.15 322.032 1161.78 311.095Z" fill="#919191" fill-opacity="0.05"/>
<path d="M937.871 886.466C968.391 864.231 997.183 843.292 1018.68 819.978C1042.68 794.073 1055.63 767.449 1059.76 736.219C1061.29 724.634 1063.02 712.761 1064.65 701.392C1069.55 667.86 1074.16 636.199 1073.58 610.006C1072.91 579.568 1065.23 561.003 1049.3 551.649C1035 543.158 1015.03 542.582 988.162 549.778C932.688 564.673 920.403 616.051 907.446 670.45C894.394 725.354 880.861 782.2 822.412 806.234C775.864 825.374 725.285 822.424 671.635 819.258C592.359 814.653 510.396 809.832 444.557 882.221C400.505 930.648 365.282 988.79 340.04 1037.5H350.31C375.167 989.725 409.622 933.311 452.427 886.25C515.195 817.315 590.824 821.777 670.867 826.454C723.558 829.548 777.976 832.714 827.019 812.566C855.14 800.981 875.966 781.48 890.651 752.913C903.511 728.016 910.326 699.449 916.852 671.745C929.329 619.432 941.038 570.07 991.329 556.614C1014.84 550.353 1031.83 550.569 1043.35 557.333C1073.39 575.107 1064.56 636.127 1055.15 700.672C1053.52 712.114 1051.79 723.915 1050.26 735.572C1041.81 800.837 992.96 836.312 931.248 881.357C896.985 906.327 858.115 934.606 820.877 972.239C801.202 992.1 786.709 1013.97 777.592 1037.5H787.765C795.827 1017.28 808.688 996.561 828.555 976.557C865.313 939.283 903.895 911.292 937.871 886.466Z" fill="#919191" fill-opacity="0.05"/>
<path d="M910.134 865.095C940.462 843.004 966.663 823.935 985.954 802.996C1006.21 781.121 1016.67 759.677 1020.12 733.413C1021.66 721.684 1023.38 709.883 1025.02 698.514V698.298C1029.62 666.78 1033.94 636.918 1033.75 612.956C1033.65 604.753 1033.08 597.557 1031.83 591.585C1030.87 586.476 1026.84 582.015 1020.99 579.352C1015.13 576.69 1008.12 576.186 1001.79 577.841L1001.5 577.913C992.001 580.432 979.62 586.116 968.391 607.2C958.505 625.765 952.747 650.014 946.604 675.703C932.592 734.636 916.66 801.485 841.511 832.354C800.146 849.336 757.725 851.351 729.412 851.351C708.874 851.351 688.335 850.128 668.468 848.977C648.985 847.825 630.654 846.746 612.61 846.746C560.016 846.746 516.827 855.597 477.381 898.987C439.087 941.01 407.511 990.877 382.75 1037.43H389.948C414.421 991.668 445.421 942.953 482.852 901.793C520.666 860.274 562.031 851.783 612.514 851.783C630.27 851.783 648.505 852.862 667.892 854.014C687.855 855.165 708.49 856.388 729.412 856.388C758.397 856.388 801.97 854.373 844.679 836.816C922.611 804.723 938.83 736.651 953.227 676.639C959.273 651.166 965.032 627.132 974.629 609.071C984.898 589.858 995.552 584.893 1003.81 582.662L1004.09 582.59C1008.6 581.439 1013.5 581.799 1017.63 583.67C1021.75 585.541 1024.54 588.707 1025.3 592.305C1026.46 598.061 1027.03 605.041 1027.13 612.956C1027.32 636.63 1023 666.349 1018.49 697.722V697.938C1016.86 709.379 1015.13 721.18 1013.6 732.909C1010.33 758.31 1000.16 779.034 980.58 800.117C961.577 820.625 935.663 839.55 905.527 861.425C870.304 887.114 830.282 916.185 791.22 955.617C766.747 980.299 749.375 1007.79 739.49 1037.36H746.4C756.189 1008.87 773.081 982.386 796.595 958.568C835.273 919.567 875.007 890.64 910.134 865.095Z" fill="#919191" fill-opacity="0.05"/>
<path d="M1314.96 1002.25C1373.5 947.558 1396.63 831.491 1405.27 767.233C1411.89 717.942 1428.21 703.838 1437.33 699.881C1438.19 699.521 1439.05 699.233 1439.82 698.945V691.39C1437.61 691.821 1435.31 692.469 1432.91 693.476C1413.62 701.608 1401.05 726.217 1395.67 766.513C1389.24 814.581 1378.97 859.77 1365.92 897.116C1350.08 942.449 1330.41 976.341 1307.47 997.784C1292.79 1011.53 1286.36 1025.27 1288.56 1037.43H1298.35C1295.95 1027 1301.62 1014.69 1314.96 1002.25Z" fill="#919191" fill-opacity="0.05"/>
<path d="M642.363 548.698C641.883 548.698 641.403 548.698 640.923 548.698C617.889 548.482 591.976 542.726 566.062 532.22C544.756 523.513 535.062 510.849 539.477 497.321C544.468 482.138 567.118 469.545 589.864 469.329C590.056 469.329 590.248 469.329 590.44 469.329C620 469.329 684.016 490.341 698.604 512.288C703.211 519.196 702.635 525.744 696.877 531.284C685.168 542.726 666.26 548.698 642.363 548.698ZM590.536 476.525C590.344 476.525 590.152 476.525 589.96 476.525C571.245 476.741 552.818 486.815 548.787 499.048C545.428 509.265 553.202 518.836 570.573 525.888C620.96 546.396 668.66 546.755 689.295 526.823C692.75 523.513 692.942 519.915 689.966 515.454C678.161 497.608 619.233 476.525 590.536 476.525Z" fill="#919191" fill-opacity="0.05"/>
<path d="M1100.36 523.154C1077.04 523.154 1058.13 509.41 1052.18 488.182C1047.67 472.136 1048.63 453.139 1054.87 434.79C1060.91 416.945 1071.28 402.193 1083.27 394.206C1092.78 387.874 1103.14 385.931 1113.22 388.521C1156.98 399.747 1170.23 427.378 1156.22 478.036C1152.28 492.14 1144.7 503.797 1134.24 511.712C1124.64 519.052 1112.55 523.154 1100.36 523.154ZM1104.58 394.638C1099.59 394.638 1094.6 396.293 1089.61 399.603C1068.78 413.419 1052.37 453.571 1061.58 486.671C1066.57 504.445 1081.74 515.886 1100.36 515.886C1116.77 515.886 1138.75 505.596 1146.81 476.597C1163.13 417.52 1137.4 402.337 1110.15 395.357C1108.23 394.926 1106.4 394.638 1104.58 394.638Z" fill="#919191" fill-opacity="0.05"/>
</svg>
