<svg width="79" height="91" viewBox="0 0 79 91" fill="none" xmlns="http://www.w3.org/2000/svg">
<path d="M78.5387 78.6882C76.1182 75.1116 69.6632 65.5738 69.6632 65.5738C66.8673 61.3082 68.3771 55.7007 68.6651 51.0091C68.996 45.6159 67.3065 40.3164 64.9943 35.4893C63.8113 33.0195 62.4132 30.6567 60.9187 28.3641C58.0072 23.8982 54.6969 19.7161 51.4662 15.4812C50.6431 14.4023 49.1376 14.0494 47.9661 14.7344C46.8695 15.3756 46.3901 16.6795 46.774 17.8586C46.8944 18.2313 47.017 18.6036 47.1405 18.976C46.5858 17.7653 45.1517 17.1679 43.8759 17.7039C42.7075 18.1948 42.0842 19.4758 42.4211 20.6975C44.0124 26.4682 50.0623 43.1326 48.8271 57.3259L48.8283 57.3236C48.3671 62.9757 49.2149 68.7665 51.8053 73.731C53.7192 77.3987 56.2252 80.7257 57.8789 84.5344L60.2774 90.0582C60.6603 90.9397 61.74 91.2709 62.551 90.7552L78.0825 80.8848C78.8263 80.4122 79.0328 79.4183 78.5387 78.6882Z" fill="#F6BB92"/>
<path d="M51.073 47.2528C50.484 48.8267 49.9942 50.4711 49.6147 52.157L49.1647 54.6363L48.8268 57.3268C49.1196 53.955 49.0021 50.4421 48.6299 46.9707C50.1369 42.4876 50.2491 37.3736 48.9516 32.8814C48.3354 30.7546 47.6342 28.6385 46.9078 26.5279L45.8978 23.6168L44.6021 19.8076C44.3979 19.027 43.8558 18.4378 43.1836 18.138C43.3841 17.959 43.6173 17.8127 43.8757 17.7043C44.1956 17.5687 44.528 17.5056 44.8515 17.5056C45.9591 17.5056 46.9928 18.2428 47.2928 19.3921L48.5865 23.203L49.5986 26.1142C50.3232 28.2248 51.0261 30.3389 51.6405 32.4676C53.0048 37.1915 52.8115 42.6088 51.073 47.2528Z" fill="#FDC9A6"/>
<path d="M78.5382 78.6876C76.1187 75.1116 69.6621 65.5742 69.6621 65.5742C66.8667 61.3079 68.3773 55.7007 68.6647 51.0098C68.9952 45.6159 67.3057 40.3158 64.9946 35.4893C63.8111 33.0191 62.4123 30.6574 60.9179 28.3643C58.0068 23.8992 54.6963 19.7159 51.4655 15.4821C50.6433 14.4032 49.1363 14.0492 47.9653 14.734C47.8136 14.8225 47.6744 14.9238 47.5479 15.034C47.7051 15.1659 47.8479 15.3141 47.9762 15.4821C51.207 19.7159 54.5175 23.899 57.4286 28.3643C58.923 30.6574 60.3216 33.0191 61.5034 35.4893C63.8164 40.3158 65.506 45.6157 65.1752 51.0098C64.886 55.7007 63.3772 61.3079 66.1726 65.5742C66.1726 65.5742 73.397 77.1607 75.8185 80.7369C76.1293 81.1978 76.1618 81.7633 75.9559 82.2368L78.0826 80.8851C78.8256 80.4115 79.0333 79.4176 78.5382 78.6876Z" fill="#FDC9A6"/>
<path d="M52.2842 42.4879L53.2562 38.7102C53.4833 37.7506 54.3306 37.0804 55.3167 37.0804C56.3168 37.0804 57.1877 37.7856 57.388 38.7575C57.9926 41.6929 58.6915 48.2055 56.5892 58.8532C56.5261 59.0976 56.2549 60.197 56.1108 61.5547C55.8829 63.7027 56.0806 65.4183 56.6985 66.6541C56.936 67.129 57.4146 67.4036 57.9118 67.4036C58.1154 67.4036 58.3221 67.3574 58.5169 67.2602C59.1863 66.9255 59.4577 66.1113 59.1228 65.442C58.416 64.0281 58.807 61.0518 59.2193 59.509C59.2273 59.4795 59.2341 59.4497 59.2401 59.4198C61.3342 48.8384 60.8325 42.0459 60.0426 38.2109C59.5842 35.9855 57.5965 34.3701 55.3165 34.3701C53.0681 34.3701 51.1362 35.8981 50.6166 38.0929L49.7285 41.9343L52.2842 42.4879Z" fill="#FDC9A6"/>
<path d="M0.917734 80.8854L16.4492 90.7558C17.2602 91.2713 18.3401 90.9401 18.7228 90.0588L21.1213 84.535C22.7752 80.7263 25.281 77.3993 27.1949 73.7316C29.7854 68.7671 30.6331 62.9763 30.1719 57.3242L30.1732 57.3265C28.9379 43.1332 34.9878 26.4688 36.5791 20.6981C36.9161 19.4764 36.2927 18.1954 35.1243 17.7045C33.8484 17.1685 32.4144 17.7658 31.8597 18.9766C31.9832 18.6042 32.1059 18.2319 32.2262 17.8592C32.6101 16.6801 32.1309 15.3762 31.0341 14.7349C29.8627 14.05 28.3571 14.4028 27.534 15.4818C24.3033 19.7167 20.993 23.8987 18.0815 28.3647C16.587 30.6573 15.1887 33.0201 14.0059 35.4899C11.6938 40.317 10.0042 45.6165 10.3352 51.0096C10.6231 55.7013 12.133 61.3088 9.33701 65.5743C9.33701 65.5743 2.88205 75.112 0.461489 78.6886C-0.0327898 79.4187 0.173738 80.4126 0.917734 80.8854Z" fill="#F6BB92"/>
<path d="M27.9257 47.2528C28.5147 48.8267 29.0045 50.4711 29.384 52.157L29.834 54.6363L30.1719 57.3268C29.8792 53.955 29.9967 50.4421 30.3688 46.9707C28.8618 42.4876 28.7497 37.3736 30.0471 32.8814C30.6633 30.7546 31.3645 28.6385 32.0909 26.5279L33.101 23.6168L34.3966 19.8076C34.6009 19.027 35.143 18.4378 35.8151 18.138C35.6147 17.959 35.3815 17.8127 35.123 17.7043C34.8031 17.5687 34.4708 17.5056 34.1473 17.5056C33.0396 17.5056 32.0059 18.2428 31.7059 19.3921L30.4122 23.203L29.4002 26.1142C28.6756 28.2248 27.9726 30.3389 27.3582 32.4676C25.9939 37.1915 26.1873 42.6088 27.9257 47.2528Z" fill="#FDC9A6"/>
<path d="M0.916258 80.885L3.04303 82.2366C2.83703 81.7631 2.86956 81.1976 3.18042 80.7367C5.60187 77.1607 12.8262 65.574 12.8262 65.574C15.6216 61.3077 14.1129 55.7005 13.8237 51.0096C13.4929 45.6157 15.1826 40.3157 17.4955 35.4891C18.6773 33.019 20.0758 30.6572 21.5702 28.3641C24.4813 23.8991 27.7918 19.7157 31.0227 15.4819C31.151 15.3138 31.2937 15.1657 31.451 15.0338C31.3245 14.9236 31.1853 14.8225 31.0335 14.7338C29.8626 14.049 28.3556 14.4031 27.5334 15.4819C24.3024 19.7157 20.9921 23.8989 18.081 28.3641C16.5866 30.6572 15.188 33.019 14.0043 35.4891C11.693 40.3157 10.0036 45.6155 10.3342 51.0096C10.6216 55.7005 12.1322 61.3077 9.33678 65.574C9.33678 65.574 2.8804 75.1114 0.460725 78.6874C-0.0342653 79.4176 0.173506 80.4115 0.916258 80.885Z" fill="#FDC9A6"/>
<path d="M26.7251 42.4879L25.753 38.7102C25.5259 37.7506 24.6786 37.0804 23.6926 37.0804C22.6924 37.0804 21.8215 37.7856 21.6212 38.7575C21.0166 41.6929 20.3177 48.2055 22.42 58.8532C22.4831 59.0976 22.7543 60.197 22.8984 61.5547C23.1263 63.7027 22.9287 65.4183 22.3107 66.6541C22.0732 67.129 21.5946 67.4036 21.0975 67.4036C20.8938 67.4036 20.6871 67.3574 20.4923 67.2602C19.8229 66.9255 19.5515 66.1113 19.8862 65.442C20.593 64.0281 20.202 61.0518 19.7897 59.509C19.7817 59.4795 19.7749 59.4497 19.7689 59.4198C17.6748 48.8384 18.1766 42.0459 18.9664 38.2109C19.4248 35.9855 21.4126 34.3701 23.6926 34.3701C25.9409 34.3701 27.8729 35.8981 28.3924 38.0929L29.2805 41.9343L26.7251 42.4879Z" fill="#FDC9A6"/>
<path d="M39.4998 7.02157C38.7511 7.02157 38.1445 6.41497 38.1445 5.66635V1.35522C38.1445 0.606607 38.7511 0 39.4998 0C40.2484 0 40.855 0.606607 40.855 1.35522V5.66635C40.855 6.41497 40.2484 7.02157 39.4998 7.02157Z" fill="#407BFF"/>
<path d="M20.1294 12.0506C19.7826 12.0506 19.4357 11.9182 19.1711 11.6537L16.1226 8.60519C15.5933 8.07572 15.5933 7.21779 16.1226 6.6885C16.652 6.15939 17.5099 6.15939 18.0392 6.6885L21.0877 9.737C21.617 10.2665 21.617 11.1244 21.0877 11.6537C20.8231 11.9182 20.4762 12.0506 20.1294 12.0506Z" fill="#407BFF"/>
<path d="M15.1009 24.1909H10.7898C10.0412 24.1909 9.43457 23.5843 9.43457 22.8357C9.43457 22.0871 10.0412 21.4804 10.7898 21.4804H15.1009C15.8495 21.4804 16.4561 22.0871 16.4561 22.8357C16.4561 23.5841 15.8494 24.1909 15.1009 24.1909Z" fill="#407BFF"/>
<path d="M68.2103 24.1909H63.8992C63.1506 24.1909 62.5439 23.5843 62.5439 22.8357C62.5439 22.0871 63.1506 21.4804 63.8992 21.4804H68.2103C68.9589 21.4804 69.5655 22.0871 69.5655 22.8357C69.5655 23.5841 68.9589 24.1909 68.2103 24.1909Z" fill="#407BFF"/>
<path d="M58.87 12.0506C58.5232 12.0506 58.1763 11.9182 57.9116 11.6537C57.3823 11.1242 57.3823 10.2663 57.9116 9.737L60.9601 6.6885C61.4896 6.15939 62.3475 6.15939 62.8768 6.6885C63.4061 7.21797 63.4061 8.0759 62.8768 8.60519L59.8283 11.6537C59.5637 11.9182 59.2167 12.0506 58.87 12.0506Z" fill="#407BFF"/>
</svg>
