<svg width="42" height="42" viewBox="0 0 42 42" fill="none" xmlns="http://www.w3.org/2000/svg">
<path fill-rule="evenodd" clip-rule="evenodd" d="M38.5 21C38.5 30.665 30.665 38.5 21 38.5C11.335 38.5 3.5 30.665 3.5 21C3.5 11.335 11.335 3.5 21 3.5C30.665 3.5 38.5 11.335 38.5 21ZM29.6384 17.2709C29.9951 16.8493 29.9425 16.2184 29.5209 15.8616C29.0993 15.5049 28.4684 15.5575 28.1116 15.9791L19.1886 26.5244L14.7071 22.0429C14.3166 21.6524 13.6834 21.6524 13.2929 22.0429C12.9024 22.4334 12.9024 23.0666 13.2929 23.4571L18.5429 28.7071C18.7406 28.9049 19.0121 29.0108 19.2916 28.9991C19.571 28.9875 19.8327 28.8594 20.0134 28.6459L29.6384 17.2709Z" fill="#26AA76"/>
</svg>
