<svg width="340" height="40" viewBox="0 0 634 60" fill="none" xmlns="http://www.w3.org/2000/svg">
<path d="M136.392 43.7884C136.167 43.7884 135.95 43.6987 135.79 43.539C135.631 43.3793 135.541 43.1628 135.541 42.937V37.4679C135.541 37.2421 135.631 37.0256 135.79 36.8659C135.95 36.7063 136.167 36.6166 136.392 36.6166C136.618 36.6166 136.835 36.7063 136.994 36.8659C137.154 37.0256 137.244 37.2421 137.244 37.4679V42.937C137.244 43.1628 137.154 43.3793 136.994 43.539C136.835 43.6987 136.618 43.7884 136.392 43.7884Z" fill="#00B4D8"/>
<path d="M127.928 43.7884C127.702 43.7884 127.485 43.6987 127.326 43.539C127.166 43.3793 127.076 43.1628 127.076 42.937V37.4679C127.076 37.2421 127.166 37.0256 127.326 36.8659C127.485 36.7063 127.702 36.6166 127.928 36.6166C128.153 36.6166 128.37 36.7063 128.53 36.8659C128.689 37.0256 128.779 37.2421 128.779 37.4679V42.937C128.779 43.1628 128.689 43.3793 128.53 43.539C128.37 43.6987 128.153 43.7884 127.928 43.7884Z" fill="#00B4D8"/>
<path d="M132.159 47.5871C131.933 47.5871 131.717 47.4974 131.557 47.3378C131.397 47.1781 131.308 46.9616 131.308 46.7358V33.6692C131.308 33.4434 131.397 33.2269 131.557 33.0672C131.717 32.9076 131.933 32.8179 132.159 32.8179C132.385 32.8179 132.601 32.9076 132.761 33.0672C132.921 33.2269 133.01 33.4434 133.01 33.6692V46.7358C133.01 46.9616 132.921 47.1781 132.761 47.3378C132.601 47.4974 132.385 47.5871 132.159 47.5871Z" fill="#00B4D8"/>
<path d="M101.096 43.7884C100.871 43.7884 100.654 43.6987 100.494 43.539C100.335 43.3793 100.245 43.1628 100.245 42.937V37.4679C100.245 37.2421 100.335 37.0256 100.494 36.8659C100.654 36.7063 100.871 36.6166 101.096 36.6166C101.322 36.6166 101.539 36.7063 101.698 36.8659C101.858 37.0256 101.948 37.2421 101.948 37.4679V42.937C101.948 43.1628 101.858 43.3793 101.698 43.539C101.539 43.6987 101.322 43.7884 101.096 43.7884Z" fill="#00B4D8"/>
<path d="M119.462 53.8173C119.236 53.8173 119.019 53.7276 118.86 53.5679C118.7 53.4083 118.61 53.1917 118.61 52.9659V27.439C118.61 27.2132 118.7 26.9967 118.86 26.837C119.019 26.6773 119.236 26.5876 119.462 26.5876C119.687 26.5876 119.904 26.6773 120.064 26.837C120.223 26.9967 120.313 27.2132 120.313 27.439V52.9659C120.313 53.1917 120.223 53.4083 120.064 53.5679C119.904 53.7276 119.687 53.8173 119.462 53.8173Z" fill="#00B4D8"/>
<path d="M123.693 51.0818C123.467 51.0818 123.251 50.9921 123.091 50.8325C122.931 50.6728 122.842 50.4563 122.842 50.2305V30.1743C122.842 29.9486 122.931 29.732 123.091 29.5724C123.251 29.4127 123.467 29.323 123.693 29.323C123.919 29.323 124.135 29.4127 124.295 29.5724C124.455 29.732 124.545 29.9486 124.545 30.1743V50.2305C124.545 50.4563 124.455 50.6728 124.295 50.8325C124.135 50.9921 123.919 51.0818 123.693 51.0818Z" fill="#00B4D8"/>
<path d="M109.562 53.8173C109.336 53.8173 109.12 53.7276 108.96 53.5679C108.801 53.4083 108.711 53.1917 108.711 52.9659V27.439C108.711 27.2132 108.801 26.9967 108.96 26.837C109.12 26.6773 109.336 26.5876 109.562 26.5876C109.788 26.5876 110.005 26.6773 110.164 26.837C110.324 26.9967 110.414 27.2132 110.414 27.439V52.9659C110.414 53.1917 110.324 53.4083 110.164 53.5679C110.005 53.7276 109.788 53.8173 109.562 53.8173Z" fill="#00B4D8"/>
<path d="M105.33 51.0818C105.104 51.0818 104.888 50.9921 104.728 50.8325C104.568 50.6728 104.479 50.4563 104.479 50.2305V30.1743C104.479 29.9486 104.568 29.732 104.728 29.5724C104.888 29.4127 105.104 29.323 105.33 29.323C105.556 29.323 105.772 29.4127 105.932 29.5724C106.092 29.732 106.181 29.9486 106.181 30.1743V50.2305C106.181 50.4563 106.092 50.6728 105.932 50.8325C105.772 50.9921 105.556 51.0818 105.33 51.0818Z" fill="#00B4D8"/>
<path d="M114.512 59.7435C114.287 59.7435 114.07 59.6538 113.91 59.4941C113.751 59.3345 113.661 59.1179 113.661 58.8922V21.5127C113.661 21.2869 113.751 21.0704 113.91 20.9107C114.07 20.7511 114.287 20.6614 114.512 20.6614C114.738 20.6614 114.955 20.7511 115.114 20.9107C115.274 21.0704 115.364 21.2869 115.364 21.5127V58.8922C115.364 59.1179 115.274 59.3345 115.114 59.4941C114.955 59.6538 114.738 59.7435 114.512 59.7435Z" fill="#00B4D8"/>
<path d="M83.5845 31.0862C83.5845 30.616 83.2034 30.2349 82.7332 30.2349C82.263 30.2349 81.8818 30.616 81.8818 31.0862V49.3153C81.8818 49.7855 82.263 50.1667 82.7332 50.1667C83.2034 50.1667 83.5845 49.7855 83.5845 49.3153V31.0862Z" fill="#00B4D8"/>
<path d="M78.5008 46.144C78.275 46.144 78.0584 46.0543 77.8988 45.8947C77.7391 45.735 77.6494 45.5185 77.6494 45.2927V35.1122C77.6494 34.8864 77.7391 34.6699 77.8988 34.5102C78.0584 34.3506 78.275 34.2609 78.5008 34.2609C78.7266 34.2609 78.9431 34.3506 79.1028 34.5102C79.2624 34.6699 79.3521 34.8864 79.3521 35.1122V45.2927C79.3521 45.5185 79.2624 45.735 79.1028 45.8947C78.9431 46.0543 78.7266 46.144 78.5008 46.144Z" fill="#00B4D8"/>
<path d="M93.483 31.0904C93.483 30.6202 93.1018 30.239 92.6316 30.239C92.1614 30.239 91.7803 30.6202 91.7803 31.0904V49.3195C91.7803 49.7897 92.1614 50.1709 92.6316 50.1709C93.1018 50.1709 93.483 49.7897 93.483 49.3195V31.0904Z" fill="#00B4D8"/>
<path d="M96.864 46.144C96.6383 46.144 96.4217 46.0543 96.2621 45.8947C96.1024 45.735 96.0127 45.5185 96.0127 45.2927V35.1122C96.0127 34.8864 96.1024 34.6699 96.2621 34.5102C96.4217 34.3506 96.6383 34.2609 96.864 34.2609C97.0898 34.2609 97.3064 34.3506 97.466 34.5102C97.6257 34.6699 97.7154 34.8864 97.7154 35.1122V45.2927C97.7154 45.5185 97.6257 45.735 97.466 45.8947C97.3064 46.0543 97.0898 46.144 96.864 46.144Z" fill="#00B4D8"/>
<path d="M87.6824 53.8173C87.4566 53.8173 87.2401 53.7276 87.0804 53.5679C86.9208 53.4083 86.8311 53.1917 86.8311 52.9659V27.439C86.8311 27.2132 86.9208 26.9967 87.0804 26.837C87.2401 26.6773 87.4566 26.5876 87.6824 26.5876C87.9082 26.5876 88.1247 26.6773 88.2844 26.837C88.4441 26.9967 88.5338 27.2132 88.5338 27.439V52.9659C88.5338 53.1917 88.4441 53.4083 88.2844 53.5679C88.1247 53.7276 87.9082 53.8173 87.6824 53.8173Z" fill="#00B4D8"/>
<path d="M202.392 43.7884C202.167 43.7884 201.95 43.6987 201.79 43.539C201.631 43.3793 201.541 43.1628 201.541 42.937V37.4679C201.541 37.2421 201.631 37.0256 201.79 36.8659C201.95 36.7063 202.167 36.6166 202.392 36.6166C202.618 36.6166 202.835 36.7063 202.994 36.8659C203.154 37.0256 203.244 37.2421 203.244 37.4679V42.937C203.244 43.1628 203.154 43.3793 202.994 43.539C202.835 43.6987 202.618 43.7884 202.392 43.7884Z" fill="#00B4D8"/>
<path d="M193.928 43.7884C193.702 43.7884 193.485 43.6987 193.326 43.539C193.166 43.3793 193.076 43.1628 193.076 42.937V37.4679C193.076 37.2421 193.166 37.0256 193.326 36.8659C193.485 36.7063 193.702 36.6166 193.928 36.6166C194.153 36.6166 194.37 36.7063 194.53 36.8659C194.689 37.0256 194.779 37.2421 194.779 37.4679V42.937C194.779 43.1628 194.689 43.3793 194.53 43.539C194.37 43.6987 194.153 43.7884 193.928 43.7884Z" fill="#00B4D8"/>
<path d="M198.159 47.5871C197.933 47.5871 197.717 47.4974 197.557 47.3378C197.397 47.1781 197.308 46.9616 197.308 46.7358V33.6692C197.308 33.4434 197.397 33.2269 197.557 33.0672C197.717 32.9076 197.933 32.8179 198.159 32.8179C198.385 32.8179 198.601 32.9076 198.761 33.0672C198.921 33.2269 199.01 33.4434 199.01 33.6692V46.7358C199.01 46.9616 198.921 47.1781 198.761 47.3378C198.601 47.4974 198.385 47.5871 198.159 47.5871Z" fill="#00B4D8"/>
<path d="M167.096 43.7884C166.871 43.7884 166.654 43.6987 166.494 43.539C166.335 43.3793 166.245 43.1628 166.245 42.937V37.4679C166.245 37.2421 166.335 37.0256 166.494 36.8659C166.654 36.7063 166.871 36.6166 167.096 36.6166C167.322 36.6166 167.539 36.7063 167.698 36.8659C167.858 37.0256 167.948 37.2421 167.948 37.4679V42.937C167.948 43.1628 167.858 43.3793 167.698 43.539C167.539 43.6987 167.322 43.7884 167.096 43.7884Z" fill="#00B4D8"/>
<path d="M185.462 53.8173C185.236 53.8173 185.019 53.7276 184.86 53.5679C184.7 53.4083 184.61 53.1917 184.61 52.9659V27.439C184.61 27.2132 184.7 26.9967 184.86 26.837C185.019 26.6773 185.236 26.5876 185.462 26.5876C185.687 26.5876 185.904 26.6773 186.064 26.837C186.223 26.9967 186.313 27.2132 186.313 27.439V52.9659C186.313 53.1917 186.223 53.4083 186.064 53.5679C185.904 53.7276 185.687 53.8173 185.462 53.8173Z" fill="#00B4D8"/>
<path d="M189.693 51.0818C189.467 51.0818 189.251 50.9921 189.091 50.8325C188.931 50.6728 188.842 50.4563 188.842 50.2305V30.1743C188.842 29.9486 188.931 29.732 189.091 29.5724C189.251 29.4127 189.467 29.323 189.693 29.323C189.919 29.323 190.135 29.4127 190.295 29.5724C190.455 29.732 190.545 29.9486 190.545 30.1743V50.2305C190.545 50.4563 190.455 50.6728 190.295 50.8325C190.135 50.9921 189.919 51.0818 189.693 51.0818Z" fill="#00B4D8"/>
<path d="M175.562 53.8173C175.336 53.8173 175.12 53.7276 174.96 53.5679C174.801 53.4083 174.711 53.1917 174.711 52.9659V27.439C174.711 27.2132 174.801 26.9967 174.96 26.837C175.12 26.6773 175.336 26.5876 175.562 26.5876C175.788 26.5876 176.005 26.6773 176.164 26.837C176.324 26.9967 176.414 27.2132 176.414 27.439V52.9659C176.414 53.1917 176.324 53.4083 176.164 53.5679C176.005 53.7276 175.788 53.8173 175.562 53.8173Z" fill="#00B4D8"/>
<path d="M171.33 51.0818C171.104 51.0818 170.888 50.9921 170.728 50.8325C170.568 50.6728 170.479 50.4563 170.479 50.2305V30.1743C170.479 29.9486 170.568 29.732 170.728 29.5724C170.888 29.4127 171.104 29.323 171.33 29.323C171.556 29.323 171.772 29.4127 171.932 29.5724C172.092 29.732 172.181 29.9486 172.181 30.1743V50.2305C172.181 50.4563 172.092 50.6728 171.932 50.8325C171.772 50.9921 171.556 51.0818 171.33 51.0818Z" fill="#00B4D8"/>
<path d="M180.512 59.7435C180.287 59.7435 180.07 59.6538 179.91 59.4941C179.751 59.3345 179.661 59.1179 179.661 58.8922V21.5127C179.661 21.2869 179.751 21.0704 179.91 20.9107C180.07 20.7511 180.287 20.6614 180.512 20.6614C180.738 20.6614 180.955 20.7511 181.114 20.9107C181.274 21.0704 181.364 21.2869 181.364 21.5127V58.8922C181.364 59.1179 181.274 59.3345 181.114 59.4941C180.955 59.6538 180.738 59.7435 180.512 59.7435Z" fill="#00B4D8"/>
<path d="M149.585 31.0862C149.585 30.616 149.203 30.2349 148.733 30.2349C148.263 30.2349 147.882 30.616 147.882 31.0862V49.3153C147.882 49.7855 148.263 50.1667 148.733 50.1667C149.203 50.1667 149.585 49.7855 149.585 49.3153V31.0862Z" fill="#00B4D8"/>
<path d="M144.501 46.144C144.275 46.144 144.058 46.0543 143.899 45.8947C143.739 45.735 143.649 45.5185 143.649 45.2927V35.1122C143.649 34.8864 143.739 34.6699 143.899 34.5102C144.058 34.3506 144.275 34.2609 144.501 34.2609C144.727 34.2609 144.943 34.3506 145.103 34.5102C145.262 34.6699 145.352 34.8864 145.352 35.1122V45.2927C145.352 45.5185 145.262 45.735 145.103 45.8947C144.943 46.0543 144.727 46.144 144.501 46.144Z" fill="#00B4D8"/>
<path d="M159.483 31.0904C159.483 30.6202 159.102 30.239 158.632 30.239C158.161 30.239 157.78 30.6202 157.78 31.0904V49.3195C157.78 49.7897 158.161 50.1709 158.632 50.1709C159.102 50.1709 159.483 49.7897 159.483 49.3195V31.0904Z" fill="#00B4D8"/>
<path d="M162.864 46.144C162.638 46.144 162.422 46.0543 162.262 45.8947C162.102 45.735 162.013 45.5185 162.013 45.2927V35.1122C162.013 34.8864 162.102 34.6699 162.262 34.5102C162.422 34.3506 162.638 34.2609 162.864 34.2609C163.09 34.2609 163.306 34.3506 163.466 34.5102C163.626 34.6699 163.715 34.8864 163.715 35.1122V45.2927C163.715 45.5185 163.626 45.735 163.466 45.8947C163.306 46.0543 163.09 46.144 162.864 46.144Z" fill="#00B4D8"/>
<path d="M153.682 53.8173C153.457 53.8173 153.24 53.7276 153.08 53.5679C152.921 53.4083 152.831 53.1917 152.831 52.9659V27.439C152.831 27.2132 152.921 26.9967 153.08 26.837C153.24 26.6773 153.457 26.5876 153.682 26.5876C153.908 26.5876 154.125 26.6773 154.284 26.837C154.444 26.9967 154.534 27.2132 154.534 27.439V52.9659C154.534 53.1917 154.444 53.4083 154.284 53.5679C154.125 53.7276 153.908 53.8173 153.682 53.8173Z" fill="#00B4D8"/>
<path d="M282.582 46.988C282.284 46.988 281.999 46.8057 281.788 46.4814C281.578 46.157 281.46 45.717 281.46 45.2583V34.1465C281.46 33.6877 281.578 33.2478 281.788 32.9234C281.999 32.599 282.284 32.4167 282.582 32.4167C282.879 32.4167 283.164 32.599 283.375 32.9234C283.585 33.2478 283.703 33.6877 283.703 34.1465V45.2583C283.703 45.717 283.585 46.157 283.375 46.4814C283.164 46.8057 282.879 46.988 282.582 46.988Z" fill="#CAF0F8"/>
<path d="M271.429 46.988C271.132 46.988 270.846 46.8057 270.636 46.4814C270.426 46.157 270.308 45.717 270.308 45.2583V34.1465C270.308 33.6877 270.426 33.2478 270.636 32.9234C270.846 32.599 271.132 32.4167 271.429 32.4167C271.727 32.4167 272.012 32.599 272.222 32.9234C272.433 33.2478 272.551 33.6877 272.551 34.1465V45.2583C272.551 45.717 272.433 46.157 272.222 46.4814C272.012 46.8057 271.727 46.988 271.429 46.988Z" fill="#CAF0F8"/>
<path d="M277.004 54.7061C276.707 54.7061 276.422 54.5238 276.211 54.1995C276.001 53.8751 275.883 53.4351 275.883 52.9763V26.4285C275.883 25.9697 276.001 25.5297 276.211 25.2054C276.422 24.881 276.707 24.6987 277.004 24.6987C277.302 24.6987 277.587 24.881 277.798 25.2054C278.008 25.5297 278.126 25.9697 278.126 26.4285V52.9763C278.126 53.4351 278.008 53.8751 277.798 54.1995C277.587 54.5238 277.302 54.7061 277.004 54.7061Z" fill="#CAF0F8"/>
<path d="M236.082 46.988C235.784 46.988 235.499 46.8057 235.288 46.4814C235.078 46.157 234.96 45.717 234.96 45.2583V34.1465C234.96 33.6877 235.078 33.2478 235.288 32.9234C235.499 32.599 235.784 32.4167 236.082 32.4167C236.379 32.4167 236.664 32.599 236.875 32.9234C237.085 33.2478 237.203 33.6877 237.203 34.1465V45.2583C237.203 45.717 237.085 46.157 236.875 46.4814C236.664 46.8057 236.379 46.988 236.082 46.988Z" fill="#CAF0F8"/>
<path d="M260.276 67.3642C259.978 67.3642 259.693 67.182 259.483 66.8576C259.272 66.5332 259.154 66.0932 259.154 65.6345V13.7703C259.154 13.3115 259.272 12.8715 259.483 12.5472C259.693 12.2228 259.978 12.0405 260.276 12.0405C260.573 12.0405 260.859 12.2228 261.069 12.5472C261.279 12.8715 261.398 13.3115 261.398 13.7703V65.6345C261.398 66.0932 261.279 66.5332 261.069 66.8576C260.859 67.182 260.573 67.3642 260.276 67.3642Z" fill="#CAF0F8"/>
<path d="M265.851 61.8067C265.554 61.8067 265.268 61.6245 265.058 61.3001C264.848 60.9757 264.729 60.5357 264.729 60.077V19.328C264.729 18.8692 264.848 18.4293 265.058 18.1049C265.268 17.7805 265.554 17.5983 265.851 17.5983C266.149 17.5983 266.434 17.7805 266.644 18.1049C266.855 18.4293 266.973 18.8692 266.973 19.328V60.077C266.973 60.5357 266.855 60.9757 266.644 61.3001C266.434 61.6245 266.149 61.8067 265.851 61.8067Z" fill="#CAF0F8"/>
<path d="M247.235 67.3642C246.937 67.3642 246.652 67.182 246.442 66.8576C246.231 66.5332 246.113 66.0932 246.113 65.6345V13.7703C246.113 13.3115 246.231 12.8715 246.442 12.5472C246.652 12.2228 246.937 12.0405 247.235 12.0405C247.532 12.0405 247.818 12.2228 248.028 12.5472C248.238 12.8715 248.357 13.3115 248.357 13.7703V65.6345C248.357 66.0932 248.238 66.5332 248.028 66.8576C247.818 67.182 247.532 67.3642 247.235 67.3642Z" fill="#CAF0F8"/>
<path d="M241.658 61.8067C241.36 61.8067 241.075 61.6245 240.865 61.3001C240.654 60.9757 240.536 60.5357 240.536 60.077V19.328C240.536 18.8692 240.654 18.4293 240.865 18.1049C241.075 17.7805 241.36 17.5983 241.658 17.5983C241.955 17.5983 242.241 17.7805 242.451 18.1049C242.661 18.4293 242.779 18.8692 242.779 19.328V60.077C242.779 60.5357 242.661 60.9757 242.451 61.3001C242.241 61.6245 241.955 61.8067 241.658 61.8067Z" fill="#CAF0F8"/>
<path d="M253.755 79.4049C253.458 79.4049 253.173 79.2227 252.962 78.8983C252.752 78.5739 252.634 78.134 252.634 77.6752V1.72973C252.634 1.27098 252.752 0.831013 252.962 0.506626C253.173 0.182239 253.458 0 253.755 0C254.053 0 254.338 0.182239 254.549 0.506626C254.759 0.831013 254.877 1.27098 254.877 1.72973V77.6752C254.877 78.134 254.759 78.5739 254.549 78.8983C254.338 79.2227 254.053 79.4049 253.755 79.4049Z" fill="#CAF0F8"/>
<path d="M213.01 21.1805C213.01 20.2252 212.508 19.4508 211.888 19.4508C211.269 19.4508 210.767 20.2252 210.767 21.1805V58.2175C210.767 59.1728 211.269 59.9472 211.888 59.9472C212.508 59.9472 213.01 59.1728 213.01 58.2175V21.1805Z" fill="#CAF0F8"/>
<path d="M206.311 51.7742C206.014 51.7742 205.728 51.5919 205.518 51.2675C205.308 50.9432 205.189 50.5032 205.189 50.0444V29.3603C205.189 28.9016 205.308 28.4616 205.518 28.1372C205.728 27.8129 206.014 27.6306 206.311 27.6306C206.609 27.6306 206.894 27.8129 207.104 28.1372C207.315 28.4616 207.433 28.9016 207.433 29.3603V50.0444C207.433 50.5032 207.315 50.9432 207.104 51.2675C206.894 51.5919 206.609 51.7742 206.311 51.7742Z" fill="#CAF0F8"/>
<path d="M226.051 21.1892C226.051 20.2339 225.549 19.4595 224.929 19.4595C224.31 19.4595 223.808 20.2339 223.808 21.1892V58.2262C223.808 59.1815 224.31 59.9559 224.929 59.9559C225.549 59.9559 226.051 59.1815 226.051 58.2262V21.1892Z" fill="#CAF0F8"/>
<path d="M230.504 51.7742C230.207 51.7742 229.922 51.5919 229.711 51.2675C229.501 50.9432 229.383 50.5032 229.383 50.0444V29.3603C229.383 28.9016 229.501 28.4616 229.711 28.1372C229.922 27.8129 230.207 27.6306 230.504 27.6306C230.802 27.6306 231.087 27.8129 231.298 28.1372C231.508 28.4616 231.626 28.9016 231.626 29.3603V50.0444C231.626 50.5032 231.508 50.9432 231.298 51.2675C231.087 51.5919 230.802 51.7742 230.504 51.7742Z" fill="#CAF0F8"/>
<path d="M218.408 67.3642C218.11 67.3642 217.825 67.182 217.615 66.8576C217.404 66.5332 217.286 66.0932 217.286 65.6345V13.7703C217.286 13.3115 217.404 12.8715 217.615 12.5472C217.825 12.2228 218.11 12.0405 218.408 12.0405C218.705 12.0405 218.991 12.2228 219.201 12.5472C219.411 12.8715 219.529 13.3115 219.529 13.7703V65.6345C219.529 66.0932 219.411 66.5332 219.201 66.8576C218.991 67.182 218.705 67.3642 218.408 67.3642Z" fill="#CAF0F8"/>
<path d="M376.136 45.0528C375.799 45.0528 375.476 44.919 375.237 44.6807C374.999 44.4425 374.865 44.1194 374.865 43.7825V35.6223C374.865 35.2854 374.999 34.9623 375.237 34.7241C375.476 34.4859 375.799 34.3521 376.136 34.3521C376.472 34.3521 376.796 34.4859 377.034 34.7241C377.272 34.9623 377.406 35.2854 377.406 35.6223V43.7825C377.406 44.1194 377.272 44.4425 377.034 44.6807C376.796 44.919 376.472 45.0528 376.136 45.0528Z" fill="#CAF0F8"/>
<path d="M363.506 45.0528C363.169 45.0528 362.846 44.919 362.607 44.6807C362.369 44.4425 362.235 44.1194 362.235 43.7825V35.6223C362.235 35.2854 362.369 34.9623 362.607 34.7241C362.846 34.4859 363.169 34.3521 363.506 34.3521C363.843 34.3521 364.166 34.4859 364.404 34.7241C364.642 34.9623 364.776 35.2854 364.776 35.6223V43.7825C364.776 44.1194 364.642 44.4425 364.404 44.6807C364.166 44.919 363.843 45.0528 363.506 45.0528Z" fill="#CAF0F8"/>
<path d="M369.82 50.7207C369.483 50.7207 369.16 50.5869 368.922 50.3487C368.684 50.1105 368.55 49.7874 368.55 49.4505V29.9544C368.55 29.6175 368.684 29.2944 368.922 29.0561C369.16 28.8179 369.483 28.6841 369.82 28.6841C370.157 28.6841 370.48 28.8179 370.718 29.0561C370.957 29.2944 371.09 29.6175 371.09 29.9544V49.4505C371.09 49.7874 370.957 50.1105 370.718 50.3487C370.48 50.5869 370.157 50.7207 369.82 50.7207Z" fill="#CAF0F8"/>
<path d="M323.472 45.0528C323.136 45.0528 322.812 44.919 322.574 44.6807C322.336 44.4425 322.202 44.1194 322.202 43.7825V35.6223C322.202 35.2854 322.336 34.9623 322.574 34.7241C322.812 34.4859 323.136 34.3521 323.472 34.3521C323.809 34.3521 324.132 34.4859 324.371 34.7241C324.609 34.9623 324.743 35.2854 324.743 35.6223V43.7825C324.743 44.1194 324.609 44.4425 324.371 44.6807C324.132 44.919 323.809 45.0528 323.472 45.0528Z" fill="#CAF0F8"/>
<path d="M350.874 60.0165C350.537 60.0165 350.214 59.8827 349.976 59.6445C349.737 59.4062 349.604 59.0831 349.604 58.7462V20.6585C349.604 20.3216 349.737 19.9985 349.976 19.7602C350.214 19.522 350.537 19.3882 350.874 19.3882C351.211 19.3882 351.534 19.522 351.772 19.7602C352.01 19.9985 352.144 20.3216 352.144 20.6585V58.7462C352.144 59.0831 352.01 59.4062 351.772 59.6445C351.534 59.8827 351.211 60.0165 350.874 60.0165Z" fill="#CAF0F8"/>
<path d="M357.188 55.9353C356.851 55.9353 356.528 55.8015 356.29 55.5632C356.052 55.325 355.918 55.0019 355.918 54.665V24.74C355.918 24.4031 356.052 24.08 356.29 23.8418C356.528 23.6036 356.851 23.4697 357.188 23.4697C357.525 23.4697 357.848 23.6036 358.086 23.8418C358.325 24.08 358.459 24.4031 358.459 24.74V54.665C358.459 55.0019 358.325 55.325 358.086 55.5632C357.848 55.8015 357.525 55.9353 357.188 55.9353Z" fill="#CAF0F8"/>
<path d="M336.104 60.0165C335.767 60.0165 335.444 59.8827 335.206 59.6445C334.968 59.4062 334.834 59.0831 334.834 58.7462V20.6585C334.834 20.3216 334.968 19.9985 335.206 19.7602C335.444 19.522 335.767 19.3882 336.104 19.3882C336.441 19.3882 336.764 19.522 337.002 19.7602C337.241 19.9985 337.375 20.3216 337.375 20.6585V58.7462C337.375 59.0831 337.241 59.4062 337.002 59.6445C336.764 59.8827 336.441 60.0165 336.104 60.0165Z" fill="#CAF0F8"/>
<path d="M329.788 55.9353C329.451 55.9353 329.128 55.8015 328.89 55.5632C328.651 55.325 328.518 55.0019 328.518 54.665V24.74C328.518 24.4031 328.651 24.08 328.89 23.8418C329.128 23.6036 329.451 23.4697 329.788 23.4697C330.125 23.4697 330.448 23.6036 330.686 23.8418C330.924 24.08 331.058 24.4031 331.058 24.74V54.665C331.058 55.0019 330.924 55.325 330.686 55.5632C330.448 55.8015 330.125 55.9353 329.788 55.9353Z" fill="#CAF0F8"/>
<path d="M343.489 68.8589C343.152 68.8589 342.829 68.7251 342.591 68.4869C342.353 68.2486 342.219 67.9255 342.219 67.5886V11.8162C342.219 11.4793 342.353 11.1562 342.591 10.918C342.829 10.6797 343.152 10.5459 343.489 10.5459C343.826 10.5459 344.149 10.6797 344.387 10.918C344.625 11.1562 344.759 11.4793 344.759 11.8162V67.5886C344.759 67.9255 344.625 68.2486 344.387 68.4869C344.149 68.7251 343.826 68.8589 343.489 68.8589Z" fill="#CAF0F8"/>
<path d="M297.343 26.1003C297.343 25.3988 296.775 24.8301 296.073 24.8301C295.371 24.8301 294.803 25.3988 294.803 26.1003V53.2994C294.803 54.0009 295.371 54.5696 296.073 54.5696C296.775 54.5696 297.343 54.0009 297.343 53.2994V26.1003Z" fill="#CAF0F8"/>
<path d="M289.757 48.5676C289.42 48.5676 289.097 48.4338 288.858 48.1955C288.62 47.9573 288.486 47.6342 288.486 47.2973V32.1074C288.486 31.7705 288.62 31.4474 288.858 31.2092C289.097 30.971 289.42 30.8372 289.757 30.8372C290.093 30.8372 290.417 30.971 290.655 31.2092C290.893 31.4474 291.027 31.7705 291.027 32.1074V47.2973C291.027 47.6342 290.893 47.9573 290.655 48.1955C290.417 48.4338 290.093 48.5676 289.757 48.5676Z" fill="#CAF0F8"/>
<path d="M312.113 26.1067C312.113 25.4051 311.544 24.8364 310.843 24.8364C310.141 24.8364 309.572 25.4051 309.572 26.1067V53.3057C309.572 54.0073 310.141 54.576 310.843 54.576C311.544 54.576 312.113 54.0073 312.113 53.3057V26.1067Z" fill="#CAF0F8"/>
<path d="M317.157 48.5676C316.82 48.5676 316.497 48.4338 316.259 48.1955C316.021 47.9573 315.887 47.6342 315.887 47.2973V32.1074C315.887 31.7705 316.021 31.4474 316.259 31.2092C316.497 30.971 316.82 30.8372 317.157 30.8372C317.494 30.8372 317.817 30.971 318.055 31.2092C318.293 31.4474 318.427 31.7705 318.427 32.1074V47.2973C318.427 47.6342 318.293 47.9573 318.055 48.1955C317.817 48.4338 317.494 48.5676 317.157 48.5676Z" fill="#CAF0F8"/>
<path d="M303.457 60.0165C303.12 60.0165 302.797 59.8827 302.559 59.6445C302.32 59.4062 302.187 59.0831 302.187 58.7462V20.6585C302.187 20.3216 302.32 19.9985 302.559 19.7602C302.797 19.522 303.12 19.3882 303.457 19.3882C303.794 19.3882 304.117 19.522 304.355 19.7602C304.593 19.9985 304.727 20.3216 304.727 20.6585V58.7462C304.727 59.0831 304.593 59.4062 304.355 59.6445C304.117 59.8827 303.794 60.0165 303.457 60.0165Z" fill="#CAF0F8"/>
<path d="M70.8649 46.2927C70.5925 46.2927 70.3313 46.1404 70.1387 45.8692C69.9461 45.598 69.8379 45.2302 69.8379 44.8468V35.558C69.8379 35.1745 69.9461 34.8067 70.1387 34.5356C70.3313 34.2644 70.5925 34.1121 70.8649 34.1121C71.1373 34.1121 71.3985 34.2644 71.5911 34.5356C71.7837 34.8067 71.892 35.1745 71.892 35.558V44.8468C71.892 45.2302 71.7837 45.598 71.5911 45.8692C71.3985 46.1404 71.1373 46.2927 70.8649 46.2927Z" fill="#00B4D8"/>
<path d="M60.653 46.2927C60.3806 46.2927 60.1194 46.1404 59.9268 45.8692C59.7342 45.598 59.626 45.2302 59.626 44.8468V35.558C59.626 35.1745 59.7342 34.8067 59.9268 34.5356C60.1194 34.2644 60.3806 34.1121 60.653 34.1121C60.9254 34.1121 61.1866 34.2644 61.3792 34.5356C61.5718 34.8067 61.68 35.1745 61.68 35.558V44.8468C61.68 45.2302 61.5718 45.598 61.3792 45.8692C61.1866 46.1404 60.9254 46.2927 60.653 46.2927Z" fill="#00B4D8"/>
<path d="M65.7585 52.7447C65.4861 52.7447 65.2249 52.5923 65.0323 52.3212C64.8396 52.05 64.7314 51.6822 64.7314 51.2987V29.1063C64.7314 28.7229 64.8396 28.3551 65.0323 28.0839C65.2249 27.8127 65.4861 27.6604 65.7585 27.6604C66.0309 27.6604 66.2921 27.8127 66.4847 28.0839C66.6773 28.3551 66.7855 28.7229 66.7855 29.1063V51.2987C66.7855 51.6822 66.6773 52.05 66.4847 52.3212C66.2921 52.5923 66.0309 52.7447 65.7585 52.7447Z" fill="#00B4D8"/>
<path d="M28.2868 46.2927C28.0144 46.2927 27.7532 46.1404 27.5606 45.8692C27.368 45.598 27.2598 45.2302 27.2598 44.8468V35.558C27.2598 35.1745 27.368 34.8067 27.5606 34.5356C27.7532 34.2644 28.0144 34.1121 28.2868 34.1121C28.5592 34.1121 28.8204 34.2644 29.013 34.5356C29.2056 34.8067 29.3138 35.1745 29.3138 35.558V44.8468C29.3138 45.2302 29.2056 45.598 29.013 45.8692C28.8204 46.1404 28.5592 46.2927 28.2868 46.2927Z" fill="#00B4D8"/>
<path d="M50.4401 63.326C50.1677 63.326 49.9065 63.1737 49.7139 62.9025C49.5213 62.6313 49.4131 62.2635 49.4131 61.8801V18.5248C49.4131 18.1413 49.5213 17.7735 49.7139 17.5024C49.9065 17.2312 50.1677 17.0789 50.4401 17.0789C50.7125 17.0789 50.9737 17.2312 51.1663 17.5024C51.3589 17.7735 51.4671 18.1413 51.4671 18.5248V61.8801C51.4671 62.2635 51.3589 62.6313 51.1663 62.9025C50.9737 63.1737 50.7125 63.326 50.4401 63.326Z" fill="#00B4D8"/>
<path d="M55.5456 58.6802C55.2732 58.6802 55.012 58.5279 54.8194 58.2567C54.6268 57.9855 54.5186 57.6178 54.5186 57.2343V23.1707C54.5186 22.7872 54.6268 22.4194 54.8194 22.1482C55.012 21.8771 55.2732 21.7247 55.5456 21.7247C55.818 21.7247 56.0792 21.8771 56.2718 22.1482C56.4644 22.4194 56.5726 22.7872 56.5726 23.1707V57.2343C56.5726 57.6178 56.4644 57.9855 56.2718 58.2567C56.0792 58.5279 55.818 58.6802 55.5456 58.6802Z" fill="#00B4D8"/>
<path d="M38.4987 63.326C38.2263 63.326 37.9651 63.1737 37.7725 62.9025C37.5799 62.6313 37.4717 62.2635 37.4717 61.8801V18.5248C37.4717 18.1413 37.5799 17.7735 37.7725 17.5024C37.9651 17.2312 38.2263 17.0789 38.4987 17.0789C38.7711 17.0789 39.0323 17.2312 39.2249 17.5024C39.4175 17.7735 39.5257 18.1413 39.5257 18.5248V61.8801C39.5257 62.2635 39.4175 62.6313 39.2249 62.9025C39.0323 63.1737 38.7711 63.326 38.4987 63.326Z" fill="#00B4D8"/>
<path d="M33.3923 58.6802C33.1199 58.6802 32.8586 58.5279 32.666 58.2567C32.4734 57.9855 32.3652 57.6178 32.3652 57.2343V23.1707C32.3652 22.7872 32.4734 22.4194 32.666 22.1482C32.8586 21.8771 33.1199 21.7247 33.3923 21.7247C33.6646 21.7247 33.9259 21.8771 34.1185 22.1482C34.3111 22.4194 34.4193 22.7872 34.4193 23.1707V57.2343C34.4193 57.6178 34.3111 57.9855 34.1185 58.2567C33.9259 58.5279 33.6646 58.6802 33.3923 58.6802Z" fill="#00B4D8"/>
<path d="M44.4704 73.3912C44.198 73.3912 43.9368 73.2389 43.7442 72.9677C43.5516 72.6966 43.4434 72.3288 43.4434 71.9453V8.45962C43.4434 8.07613 43.5516 7.70835 43.7442 7.43718C43.9368 7.16601 44.198 7.01367 44.4704 7.01367C44.7428 7.01367 45.004 7.16601 45.1966 7.43718C45.3892 7.70835 45.4974 8.07613 45.4974 8.45962V71.9453C45.4974 72.3288 45.3892 72.6966 45.1966 72.9677C45.004 73.2389 44.7428 73.3912 44.4704 73.3912Z" fill="#00B4D8"/>
<path d="M7.1605 24.7193C7.1605 23.9207 6.70068 23.2733 6.13347 23.2733C5.56626 23.2733 5.10645 23.9207 5.10645 24.7193V55.6798C5.10645 56.4784 5.56626 57.1258 6.13347 57.1258C6.70068 57.1258 7.1605 56.4784 7.1605 55.6798V24.7193Z" fill="#00B4D8"/>
<path d="M1.02703 50.2937C0.754643 50.2937 0.493414 50.1414 0.300809 49.8702C0.108204 49.599 0 49.2313 0 48.8478V31.5572C0 31.1737 0.108204 30.8059 0.300809 30.5347C0.493414 30.2635 0.754643 30.1112 1.02703 30.1112C1.29941 30.1112 1.56064 30.2635 1.75325 30.5347C1.94585 30.8059 2.05405 31.1737 2.05405 31.5572V48.8478C2.05405 49.2313 1.94585 49.599 1.75325 49.8702C1.56064 50.1414 1.29941 50.2937 1.02703 50.2937Z" fill="#00B4D8"/>
<path d="M19.1019 24.7265C19.1019 23.9279 18.6421 23.2805 18.0749 23.2805C17.5077 23.2805 17.0479 23.9279 17.0479 24.7265V55.6871C17.0479 56.4856 17.5077 57.133 18.0749 57.133C18.6421 57.133 19.1019 56.4856 19.1019 55.6871V24.7265Z" fill="#00B4D8"/>
<path d="M23.1803 50.2937C22.908 50.2937 22.6467 50.1414 22.4541 49.8702C22.2615 49.599 22.1533 49.2313 22.1533 48.8478V31.5572C22.1533 31.1737 22.2615 30.8059 22.4541 30.5347C22.6467 30.2635 22.908 30.1112 23.1803 30.1112C23.4527 30.1112 23.714 30.2635 23.9066 30.5347C24.0992 30.8059 24.2074 31.1737 24.2074 31.5572V48.8478C24.2074 49.2313 24.0992 49.599 23.9066 49.8702C23.714 50.1414 23.4527 50.2937 23.1803 50.2937Z" fill="#00B4D8"/>
<path d="M12.1032 63.326C11.8308 63.326 11.5696 63.1737 11.377 62.9025C11.1844 62.6313 11.0762 62.2635 11.0762 61.8801V18.5248C11.0762 18.1413 11.1844 17.7735 11.377 17.5024C11.5696 17.2312 11.8308 17.0789 12.1032 17.0789C12.3756 17.0789 12.6368 17.2312 12.8294 17.5024C13.022 17.7735 13.1302 18.1413 13.1302 18.5248V61.8801C13.1302 62.2635 13.022 62.6313 12.8294 62.9025C12.6368 63.1737 12.3756 63.326 12.1032 63.326Z" fill="#00B4D8"/>
<path d="M457.392 46.988C457.095 46.988 456.809 46.8057 456.599 46.4814C456.389 46.157 456.271 45.717 456.271 45.2583V34.1465C456.271 33.6877 456.389 33.2478 456.599 32.9234C456.809 32.599 457.095 32.4167 457.392 32.4167C457.69 32.4167 457.975 32.599 458.185 32.9234C458.396 33.2478 458.514 33.6877 458.514 34.1465V45.2583C458.514 45.717 458.396 46.157 458.185 46.4814C457.975 46.8057 457.69 46.988 457.392 46.988Z" fill="#CAF0F8"/>
<path d="M446.24 46.988C445.942 46.988 445.657 46.8057 445.447 46.4814C445.236 46.157 445.118 45.717 445.118 45.2583V34.1465C445.118 33.6877 445.236 33.2478 445.447 32.9234C445.657 32.599 445.942 32.4167 446.24 32.4167C446.537 32.4167 446.823 32.599 447.033 32.9234C447.243 33.2478 447.361 33.6877 447.361 34.1465V45.2583C447.361 45.717 447.243 46.157 447.033 46.4814C446.823 46.8057 446.537 46.988 446.24 46.988Z" fill="#CAF0F8"/>
<path d="M451.815 54.7061C451.518 54.7061 451.232 54.5238 451.022 54.1995C450.812 53.8751 450.693 53.4351 450.693 52.9763V26.4285C450.693 25.9697 450.812 25.5297 451.022 25.2054C451.232 24.881 451.518 24.6987 451.815 24.6987C452.112 24.6987 452.398 24.881 452.608 25.2054C452.818 25.5297 452.937 25.9697 452.937 26.4285V52.9763C452.937 53.4351 452.818 53.8751 452.608 54.1995C452.398 54.5238 452.112 54.7061 451.815 54.7061Z" fill="#CAF0F8"/>
<path d="M410.892 46.988C410.595 46.988 410.309 46.8057 410.099 46.4814C409.889 46.157 409.771 45.717 409.771 45.2583V34.1465C409.771 33.6877 409.889 33.2478 410.099 32.9234C410.309 32.599 410.595 32.4167 410.892 32.4167C411.19 32.4167 411.475 32.599 411.685 32.9234C411.896 33.2478 412.014 33.6877 412.014 34.1465V45.2583C412.014 45.717 411.896 46.157 411.685 46.4814C411.475 46.8057 411.19 46.988 410.892 46.988Z" fill="#CAF0F8"/>
<path d="M435.086 67.3642C434.789 67.3642 434.504 67.182 434.293 66.8576C434.083 66.5332 433.965 66.0932 433.965 65.6345V13.7703C433.965 13.3115 434.083 12.8715 434.293 12.5472C434.504 12.2228 434.789 12.0405 435.086 12.0405C435.384 12.0405 435.669 12.2228 435.88 12.5472C436.09 12.8715 436.208 13.3115 436.208 13.7703V65.6345C436.208 66.0932 436.09 66.5332 435.88 66.8576C435.669 67.182 435.384 67.3642 435.086 67.3642Z" fill="#CAF0F8"/>
<path d="M440.662 61.8067C440.364 61.8067 440.079 61.6245 439.869 61.3001C439.658 60.9757 439.54 60.5357 439.54 60.077V19.328C439.54 18.8692 439.658 18.4293 439.869 18.1049C440.079 17.7805 440.364 17.5983 440.662 17.5983C440.959 17.5983 441.244 17.7805 441.455 18.1049C441.665 18.4293 441.783 18.8692 441.783 19.328V60.077C441.783 60.5357 441.665 60.9757 441.455 61.3001C441.244 61.6245 440.959 61.8067 440.662 61.8067Z" fill="#CAF0F8"/>
<path d="M422.045 67.3642C421.748 67.3642 421.463 67.182 421.252 66.8576C421.042 66.5332 420.924 66.0932 420.924 65.6345V13.7703C420.924 13.3115 421.042 12.8715 421.252 12.5472C421.463 12.2228 421.748 12.0405 422.045 12.0405C422.343 12.0405 422.628 12.2228 422.839 12.5472C423.049 12.8715 423.167 13.3115 423.167 13.7703V65.6345C423.167 66.0932 423.049 66.5332 422.839 66.8576C422.628 67.182 422.343 67.3642 422.045 67.3642Z" fill="#CAF0F8"/>
<path d="M416.468 61.8067C416.171 61.8067 415.886 61.6245 415.675 61.3001C415.465 60.9757 415.347 60.5357 415.347 60.077V19.328C415.347 18.8692 415.465 18.4293 415.675 18.1049C415.886 17.7805 416.171 17.5983 416.468 17.5983C416.766 17.5983 417.051 17.7805 417.261 18.1049C417.472 18.4293 417.59 18.8692 417.59 19.328V60.077C417.59 60.5357 417.472 60.9757 417.261 61.3001C417.051 61.6245 416.766 61.8067 416.468 61.8067Z" fill="#CAF0F8"/>
<path d="M428.566 79.4049C428.268 79.4049 427.983 79.2227 427.773 78.8983C427.563 78.5739 427.444 78.134 427.444 77.6752V1.72973C427.444 1.27098 427.563 0.831013 427.773 0.506626C427.983 0.182239 428.268 0 428.566 0C428.863 0 429.149 0.182239 429.359 0.506626C429.569 0.831013 429.688 1.27098 429.688 1.72973V77.6752C429.688 78.134 429.569 78.5739 429.359 78.8983C429.149 79.2227 428.863 79.4049 428.566 79.4049Z" fill="#CAF0F8"/>
<path d="M387.82 21.1805C387.82 20.2252 387.318 19.4508 386.699 19.4508C386.079 19.4508 385.577 20.2252 385.577 21.1805V58.2175C385.577 59.1728 386.079 59.9472 386.699 59.9472C387.318 59.9472 387.82 59.1728 387.82 58.2175V21.1805Z" fill="#CAF0F8"/>
<path d="M381.122 51.7742C380.824 51.7742 380.539 51.5919 380.329 51.2675C380.118 50.9432 380 50.5032 380 50.0444V29.3603C380 28.9016 380.118 28.4616 380.329 28.1372C380.539 27.8129 380.824 27.6306 381.122 27.6306C381.419 27.6306 381.704 27.8129 381.915 28.1372C382.125 28.4616 382.243 28.9016 382.243 29.3603V50.0444C382.243 50.5032 382.125 50.9432 381.915 51.2675C381.704 51.5919 381.419 51.7742 381.122 51.7742Z" fill="#CAF0F8"/>
<path d="M400.861 21.1892C400.861 20.2339 400.359 19.4595 399.74 19.4595C399.12 19.4595 398.618 20.2339 398.618 21.1892V58.2262C398.618 59.1815 399.12 59.9559 399.74 59.9559C400.359 59.9559 400.861 59.1815 400.861 58.2262V21.1892Z" fill="#CAF0F8"/>
<path d="M405.315 51.7742C405.018 51.7742 404.732 51.5919 404.522 51.2675C404.312 50.9432 404.193 50.5032 404.193 50.0444V29.3603C404.193 28.9016 404.312 28.4616 404.522 28.1372C404.732 27.8129 405.018 27.6306 405.315 27.6306C405.612 27.6306 405.898 27.8129 406.108 28.1372C406.318 28.4616 406.437 28.9016 406.437 29.3603V50.0444C406.437 50.5032 406.318 50.9432 406.108 51.2675C405.898 51.5919 405.612 51.7742 405.315 51.7742Z" fill="#CAF0F8"/>
<path d="M393.218 67.3642C392.921 67.3642 392.636 67.182 392.425 66.8576C392.215 66.5332 392.097 66.0932 392.097 65.6345V13.7703C392.097 13.3115 392.215 12.8715 392.425 12.5472C392.636 12.2228 392.921 12.0405 393.218 12.0405C393.516 12.0405 393.801 12.2228 394.011 12.5472C394.222 12.8715 394.34 13.3115 394.34 13.7703V65.6345C394.34 66.0932 394.222 66.5332 394.011 66.8576C393.801 67.182 393.516 67.3642 393.218 67.3642Z" fill="#CAF0F8"/>
<path d="M550.946 45.0528C550.609 45.0528 550.286 44.919 550.048 44.6807C549.81 44.4425 549.676 44.1194 549.676 43.7825V35.6223C549.676 35.2854 549.81 34.9623 550.048 34.7241C550.286 34.4859 550.609 34.3521 550.946 34.3521C551.283 34.3521 551.606 34.4859 551.844 34.7241C552.083 34.9623 552.216 35.2854 552.216 35.6223V43.7825C552.216 44.1194 552.083 44.4425 551.844 44.6807C551.606 44.919 551.283 45.0528 550.946 45.0528Z" fill="#CAF0F8"/>
<path d="M538.316 45.0528C537.979 45.0528 537.656 44.919 537.418 44.6807C537.18 44.4425 537.046 44.1194 537.046 43.7825V35.6223C537.046 35.2854 537.18 34.9623 537.418 34.7241C537.656 34.4859 537.979 34.3521 538.316 34.3521C538.653 34.3521 538.976 34.4859 539.214 34.7241C539.453 34.9623 539.586 35.2854 539.586 35.6223V43.7825C539.586 44.1194 539.453 44.4425 539.214 44.6807C538.976 44.919 538.653 45.0528 538.316 45.0528Z" fill="#CAF0F8"/>
<path d="M544.631 50.7207C544.294 50.7207 543.971 50.5869 543.732 50.3487C543.494 50.1105 543.36 49.7874 543.36 49.4505V29.9544C543.36 29.6175 543.494 29.2944 543.732 29.0561C543.971 28.8179 544.294 28.6841 544.631 28.6841C544.968 28.6841 545.291 28.8179 545.529 29.0561C545.767 29.2944 545.901 29.6175 545.901 29.9544V49.4505C545.901 49.7874 545.767 50.1105 545.529 50.3487C545.291 50.5869 544.968 50.7207 544.631 50.7207Z" fill="#CAF0F8"/>
<path d="M498.283 45.0528C497.946 45.0528 497.623 44.919 497.385 44.6807C497.147 44.4425 497.013 44.1194 497.013 43.7825V35.6223C497.013 35.2854 497.147 34.9623 497.385 34.7241C497.623 34.4859 497.946 34.3521 498.283 34.3521C498.62 34.3521 498.943 34.4859 499.181 34.7241C499.419 34.9623 499.553 35.2854 499.553 35.6223V43.7825C499.553 44.1194 499.419 44.4425 499.181 44.6807C498.943 44.919 498.62 45.0528 498.283 45.0528Z" fill="#CAF0F8"/>
<path d="M525.684 60.0165C525.347 60.0165 525.024 59.8827 524.786 59.6445C524.548 59.4062 524.414 59.0831 524.414 58.7462V20.6585C524.414 20.3216 524.548 19.9985 524.786 19.7602C525.024 19.522 525.347 19.3882 525.684 19.3882C526.021 19.3882 526.344 19.522 526.583 19.7602C526.821 19.9985 526.955 20.3216 526.955 20.6585V58.7462C526.955 59.0831 526.821 59.4062 526.583 59.6445C526.344 59.8827 526.021 60.0165 525.684 60.0165Z" fill="#CAF0F8"/>
<path d="M531.999 55.9353C531.662 55.9353 531.339 55.8015 531.101 55.5632C530.862 55.325 530.729 55.0019 530.729 54.665V24.74C530.729 24.4031 530.862 24.08 531.101 23.8418C531.339 23.6036 531.662 23.4697 531.999 23.4697C532.336 23.4697 532.659 23.6036 532.897 23.8418C533.135 24.08 533.269 24.4031 533.269 24.74V54.665C533.269 55.0019 533.135 55.325 532.897 55.5632C532.659 55.8015 532.336 55.9353 531.999 55.9353Z" fill="#CAF0F8"/>
<path d="M510.915 60.0165C510.578 60.0165 510.255 59.8827 510.017 59.6445C509.778 59.4062 509.645 59.0831 509.645 58.7462V20.6585C509.645 20.3216 509.778 19.9985 510.017 19.7602C510.255 19.522 510.578 19.3882 510.915 19.3882C511.252 19.3882 511.575 19.522 511.813 19.7602C512.051 19.9985 512.185 20.3216 512.185 20.6585V58.7462C512.185 59.0831 512.051 59.4062 511.813 59.6445C511.575 59.8827 511.252 60.0165 510.915 60.0165Z" fill="#CAF0F8"/>
<path d="M504.598 55.9353C504.261 55.9353 503.938 55.8015 503.7 55.5632C503.462 55.325 503.328 55.0019 503.328 54.665V24.74C503.328 24.4031 503.462 24.08 503.7 23.8418C503.938 23.6036 504.261 23.4697 504.598 23.4697C504.935 23.4697 505.258 23.6036 505.497 23.8418C505.735 24.08 505.869 24.4031 505.869 24.74V54.665C505.869 55.0019 505.735 55.325 505.497 55.5632C505.258 55.8015 504.935 55.9353 504.598 55.9353Z" fill="#CAF0F8"/>
<path d="M518.3 68.8589C517.963 68.8589 517.64 68.7251 517.401 68.4869C517.163 68.2486 517.029 67.9255 517.029 67.5886V11.8162C517.029 11.4793 517.163 11.1562 517.401 10.918C517.64 10.6797 517.963 10.5459 518.3 10.5459C518.636 10.5459 518.96 10.6797 519.198 10.918C519.436 11.1562 519.57 11.4793 519.57 11.8162V67.5886C519.57 67.9255 519.436 68.2486 519.198 68.4869C518.96 68.7251 518.636 68.8589 518.3 68.8589Z" fill="#CAF0F8"/>
<path d="M472.154 26.1003C472.154 25.3988 471.585 24.8301 470.884 24.8301C470.182 24.8301 469.613 25.3988 469.613 26.1003V53.2994C469.613 54.0009 470.182 54.5696 470.884 54.5696C471.585 54.5696 472.154 54.0009 472.154 53.2994V26.1003Z" fill="#CAF0F8"/>
<path d="M464.567 48.5676C464.23 48.5676 463.907 48.4338 463.669 48.1955C463.431 47.9573 463.297 47.6342 463.297 47.2973V32.1074C463.297 31.7705 463.431 31.4474 463.669 31.2092C463.907 30.971 464.23 30.8372 464.567 30.8372C464.904 30.8372 465.227 30.971 465.465 31.2092C465.704 31.4474 465.837 31.7705 465.837 32.1074V47.2973C465.837 47.6342 465.704 47.9573 465.465 48.1955C465.227 48.4338 464.904 48.5676 464.567 48.5676Z" fill="#CAF0F8"/>
<path d="M486.923 26.1067C486.923 25.4051 486.355 24.8364 485.653 24.8364C484.952 24.8364 484.383 25.4051 484.383 26.1067V53.3057C484.383 54.0073 484.952 54.576 485.653 54.576C486.355 54.576 486.923 54.0073 486.923 53.3057V26.1067Z" fill="#CAF0F8"/>
<path d="M491.968 48.5676C491.631 48.5676 491.308 48.4338 491.069 48.1955C490.831 47.9573 490.697 47.6342 490.697 47.2973V32.1074C490.697 31.7705 490.831 31.4474 491.069 31.2092C491.308 30.971 491.631 30.8372 491.968 30.8372C492.304 30.8372 492.628 30.971 492.866 31.2092C493.104 31.4474 493.238 31.7705 493.238 32.1074V47.2973C493.238 47.6342 493.104 47.9573 492.866 48.1955C492.628 48.4338 492.304 48.5676 491.968 48.5676Z" fill="#CAF0F8"/>
<path d="M478.267 60.0165C477.93 60.0165 477.607 59.8827 477.369 59.6445C477.131 59.4062 476.997 59.0831 476.997 58.7462V20.6585C476.997 20.3216 477.131 19.9985 477.369 19.7602C477.607 19.522 477.93 19.3882 478.267 19.3882C478.604 19.3882 478.927 19.522 479.166 19.7602C479.404 19.9985 479.538 20.3216 479.538 20.6585V58.7462C479.538 59.0831 479.404 59.4062 479.166 59.6445C478.927 59.8827 478.604 60.0165 478.267 60.0165Z" fill="#CAF0F8"/>
<path d="M632.392 46.988C632.095 46.988 631.809 46.8057 631.599 46.4814C631.389 46.157 631.271 45.717 631.271 45.2583V34.1465C631.271 33.6877 631.389 33.2478 631.599 32.9234C631.809 32.599 632.095 32.4167 632.392 32.4167C632.69 32.4167 632.975 32.599 633.185 32.9234C633.396 33.2478 633.514 33.6877 633.514 34.1465V45.2583C633.514 45.717 633.396 46.157 633.185 46.4814C632.975 46.8057 632.69 46.988 632.392 46.988Z" fill="#CAF0F8"/>
<path d="M621.24 46.988C620.942 46.988 620.657 46.8057 620.447 46.4814C620.236 46.157 620.118 45.717 620.118 45.2583V34.1465C620.118 33.6877 620.236 33.2478 620.447 32.9234C620.657 32.599 620.942 32.4167 621.24 32.4167C621.537 32.4167 621.823 32.599 622.033 32.9234C622.243 33.2478 622.361 33.6877 622.361 34.1465V45.2583C622.361 45.717 622.243 46.157 622.033 46.4814C621.823 46.8057 621.537 46.988 621.24 46.988Z" fill="#CAF0F8"/>
<path d="M626.815 54.7061C626.518 54.7061 626.232 54.5238 626.022 54.1995C625.812 53.8751 625.693 53.4351 625.693 52.9763V26.4285C625.693 25.9697 625.812 25.5297 626.022 25.2054C626.232 24.881 626.518 24.6987 626.815 24.6987C627.112 24.6987 627.398 24.881 627.608 25.2054C627.818 25.5297 627.937 25.9697 627.937 26.4285V52.9763C627.937 53.4351 627.818 53.8751 627.608 54.1995C627.398 54.5238 627.112 54.7061 626.815 54.7061Z" fill="#CAF0F8"/>
<path d="M585.892 46.988C585.595 46.988 585.309 46.8057 585.099 46.4814C584.889 46.157 584.771 45.717 584.771 45.2583V34.1465C584.771 33.6877 584.889 33.2478 585.099 32.9234C585.309 32.599 585.595 32.4167 585.892 32.4167C586.19 32.4167 586.475 32.599 586.685 32.9234C586.896 33.2478 587.014 33.6877 587.014 34.1465V45.2583C587.014 45.717 586.896 46.157 586.685 46.4814C586.475 46.8057 586.19 46.988 585.892 46.988Z" fill="#CAF0F8"/>
<path d="M610.086 67.3642C609.789 67.3642 609.504 67.182 609.293 66.8576C609.083 66.5332 608.965 66.0932 608.965 65.6345V13.7703C608.965 13.3115 609.083 12.8715 609.293 12.5472C609.504 12.2228 609.789 12.0405 610.086 12.0405C610.384 12.0405 610.669 12.2228 610.88 12.5472C611.09 12.8715 611.208 13.3115 611.208 13.7703V65.6345C611.208 66.0932 611.09 66.5332 610.88 66.8576C610.669 67.182 610.384 67.3642 610.086 67.3642Z" fill="#CAF0F8"/>
<path d="M615.662 61.8067C615.364 61.8067 615.079 61.6245 614.869 61.3001C614.658 60.9757 614.54 60.5357 614.54 60.077V19.328C614.54 18.8692 614.658 18.4293 614.869 18.1049C615.079 17.7805 615.364 17.5983 615.662 17.5983C615.959 17.5983 616.244 17.7805 616.455 18.1049C616.665 18.4293 616.783 18.8692 616.783 19.328V60.077C616.783 60.5357 616.665 60.9757 616.455 61.3001C616.244 61.6245 615.959 61.8067 615.662 61.8067Z" fill="#CAF0F8"/>
<path d="M597.045 67.3642C596.748 67.3642 596.463 67.182 596.252 66.8576C596.042 66.5332 595.924 66.0932 595.924 65.6345V13.7703C595.924 13.3115 596.042 12.8715 596.252 12.5472C596.463 12.2228 596.748 12.0405 597.045 12.0405C597.343 12.0405 597.628 12.2228 597.839 12.5472C598.049 12.8715 598.167 13.3115 598.167 13.7703V65.6345C598.167 66.0932 598.049 66.5332 597.839 66.8576C597.628 67.182 597.343 67.3642 597.045 67.3642Z" fill="#CAF0F8"/>
<path d="M591.468 61.8067C591.171 61.8067 590.886 61.6245 590.675 61.3001C590.465 60.9757 590.347 60.5357 590.347 60.077V19.328C590.347 18.8692 590.465 18.4293 590.675 18.1049C590.886 17.7805 591.171 17.5983 591.468 17.5983C591.766 17.5983 592.051 17.7805 592.261 18.1049C592.472 18.4293 592.59 18.8692 592.59 19.328V60.077C592.59 60.5357 592.472 60.9757 592.261 61.3001C592.051 61.6245 591.766 61.8067 591.468 61.8067Z" fill="#CAF0F8"/>
<path d="M603.566 79.4049C603.268 79.4049 602.983 79.2227 602.773 78.8983C602.563 78.5739 602.444 78.134 602.444 77.6752V1.72973C602.444 1.27098 602.563 0.831013 602.773 0.506626C602.983 0.182239 603.268 0 603.566 0C603.863 0 604.149 0.182239 604.359 0.506626C604.569 0.831013 604.688 1.27098 604.688 1.72973V77.6752C604.688 78.134 604.569 78.5739 604.359 78.8983C604.149 79.2227 603.863 79.4049 603.566 79.4049Z" fill="#CAF0F8"/>
<path d="M562.82 21.1805C562.82 20.2252 562.318 19.4508 561.699 19.4508C561.079 19.4508 560.577 20.2252 560.577 21.1805V58.2175C560.577 59.1728 561.079 59.9472 561.699 59.9472C562.318 59.9472 562.82 59.1728 562.82 58.2175V21.1805Z" fill="#CAF0F8"/>
<path d="M556.122 51.7742C555.824 51.7742 555.539 51.5919 555.329 51.2675C555.118 50.9432 555 50.5032 555 50.0444V29.3603C555 28.9016 555.118 28.4616 555.329 28.1372C555.539 27.8129 555.824 27.6306 556.122 27.6306C556.419 27.6306 556.704 27.8129 556.915 28.1372C557.125 28.4616 557.243 28.9016 557.243 29.3603V50.0444C557.243 50.5032 557.125 50.9432 556.915 51.2675C556.704 51.5919 556.419 51.7742 556.122 51.7742Z" fill="#CAF0F8"/>
<path d="M575.861 21.1892C575.861 20.2339 575.359 19.4595 574.74 19.4595C574.12 19.4595 573.618 20.2339 573.618 21.1892V58.2262C573.618 59.1815 574.12 59.9559 574.74 59.9559C575.359 59.9559 575.861 59.1815 575.861 58.2262V21.1892Z" fill="#CAF0F8"/>
<path d="M580.315 51.7742C580.018 51.7742 579.732 51.5919 579.522 51.2675C579.312 50.9432 579.193 50.5032 579.193 50.0444V29.3603C579.193 28.9016 579.312 28.4616 579.522 28.1372C579.732 27.8129 580.018 27.6306 580.315 27.6306C580.612 27.6306 580.898 27.8129 581.108 28.1372C581.318 28.4616 581.437 28.9016 581.437 29.3603V50.0444C581.437 50.5032 581.318 50.9432 581.108 51.2675C580.898 51.5919 580.612 51.7742 580.315 51.7742Z" fill="#CAF0F8"/>
<path d="M568.218 67.3642C567.921 67.3642 567.636 67.182 567.425 66.8576C567.215 66.5332 567.097 66.0932 567.097 65.6345V13.7703C567.097 13.3115 567.215 12.8715 567.425 12.5472C567.636 12.2228 567.921 12.0405 568.218 12.0405C568.516 12.0405 568.801 12.2228 569.011 12.5472C569.222 12.8715 569.34 13.3115 569.34 13.7703V65.6345C569.34 66.0932 569.222 66.5332 569.011 66.8576C568.801 67.182 568.516 67.3642 568.218 67.3642Z" fill="#CAF0F8"/>
</svg>
